M48
;GenerationSoftware,Autodesk,EAGLE,9.6.1*%
;CreationDate,2024-07-14T17:57:54Z*%
FMAT,2
ICI,OFF
METRIC,TZ,000.000
T4C0.250
T3C0.300
T2C0.350
T1C1.016
%
G90
M71
T1
X92551Y54610
X75248Y63341
X75248Y60801
X75248Y58261
T2
X86995Y63817
X84296Y55245
X69691Y50959
X71438Y50165
X79534Y41751
X81756Y42863
X92075Y45561
X91916Y47942
X96837Y57785
X94139Y58579
X83820Y66675
X81121Y66358
X85820Y58261
T3
X95467Y58839
X86415Y52705
T4
X81483Y62706
X72399Y61679
X80804Y42704
X70497Y50044
X91896Y46916
X82037Y66431
X82983Y62706
X83503Y50641
X81439Y50641
X78264Y52387
X78264Y51680
M30