G04 EAGLE Gerber RS-274X export*
G75*
%MOMM*%
%FSLAX34Y34*%
%LPD*%
%INSilkscreen Top*%
%IPPOS*%
%AMOC8*
5,1,8,0,0,1.08239X$1,22.5*%
G01*
%ADD10C,0.152400*%
%ADD11C,0.101600*%
%ADD12C,0.254000*%
%ADD13C,0.076200*%
%ADD14C,0.127000*%
%ADD15C,0.100000*%
%ADD16C,0.200000*%
%ADD17C,0.200000*%
%ADD18R,0.302256X0.017781*%
%ADD19R,1.529081X0.017781*%
%ADD20R,0.017775X0.017781*%
%ADD21R,0.017781X0.017781*%
%ADD22R,0.355600X0.017781*%
%ADD23R,1.582419X0.017781*%
%ADD24R,0.017775X0.017775*%
%ADD25R,0.017781X0.017775*%
%ADD26R,0.391156X0.017775*%
%ADD27R,1.635756X0.017775*%
%ADD28R,0.426719X0.017781*%
%ADD29R,1.653538X0.017781*%
%ADD30R,0.444500X0.017775*%
%ADD31R,1.689100X0.017775*%
%ADD32R,0.462275X0.017781*%
%ADD33R,1.706875X0.017781*%
%ADD34R,0.480056X0.017781*%
%ADD35R,1.724656X0.017781*%
%ADD36R,0.497838X0.017775*%
%ADD37R,1.724656X0.017775*%
%ADD38R,0.497838X0.017781*%
%ADD39R,1.742438X0.017781*%
%ADD40R,0.515619X0.017775*%
%ADD41R,1.760219X0.017775*%
%ADD42R,0.533400X0.017781*%
%ADD43R,1.760219X0.017781*%
%ADD44R,1.778000X0.017781*%
%ADD45R,0.551175X0.017775*%
%ADD46R,1.778000X0.017775*%
%ADD47R,0.551175X0.017781*%
%ADD48R,1.795775X0.017781*%
%ADD49R,0.568956X0.017775*%
%ADD50R,1.813556X0.017775*%
%ADD51R,0.586738X0.017781*%
%ADD52R,1.813556X0.017781*%
%ADD53R,1.831338X0.017781*%
%ADD54R,0.604519X0.017775*%
%ADD55R,1.831338X0.017775*%
%ADD56R,0.604519X0.017781*%
%ADD57R,1.849119X0.017781*%
%ADD58R,0.622300X0.017775*%
%ADD59R,1.849119X0.017775*%
%ADD60R,0.622300X0.017781*%
%ADD61R,1.866900X0.017781*%
%ADD62R,0.640075X0.017781*%
%ADD63R,1.884675X0.017781*%
%ADD64R,0.657856X0.017775*%
%ADD65R,1.884675X0.017775*%
%ADD66R,0.657856X0.017781*%
%ADD67R,1.902456X0.017781*%
%ADD68R,0.675638X0.017775*%
%ADD69R,1.902456X0.017775*%
%ADD70R,0.675638X0.017781*%
%ADD71R,1.920238X0.017781*%
%ADD72R,0.693419X0.017781*%
%ADD73R,1.938019X0.017781*%
%ADD74R,0.693419X0.017775*%
%ADD75R,1.938019X0.017775*%
%ADD76R,0.711200X0.017781*%
%ADD77R,1.955800X0.017781*%
%ADD78R,0.728975X0.017775*%
%ADD79R,1.955800X0.017775*%
%ADD80R,0.728975X0.017781*%
%ADD81R,1.973575X0.017781*%
%ADD82R,0.746756X0.017781*%
%ADD83R,0.746756X0.017775*%
%ADD84R,1.991356X0.017775*%
%ADD85R,0.764538X0.017781*%
%ADD86R,2.009138X0.017781*%
%ADD87R,0.764538X0.017775*%
%ADD88R,2.009138X0.017775*%
%ADD89R,0.782319X0.017781*%
%ADD90R,2.026919X0.017781*%
%ADD91R,0.800100X0.017781*%
%ADD92R,0.800100X0.017775*%
%ADD93R,2.044700X0.017775*%
%ADD94R,0.817875X0.017781*%
%ADD95R,0.817875X0.017775*%
%ADD96R,0.835656X0.017781*%
%ADD97R,2.044700X0.017781*%
%ADD98R,0.853438X0.017781*%
%ADD99R,2.062481X0.017781*%
%ADD100R,0.853438X0.017775*%
%ADD101R,2.080256X0.017775*%
%ADD102R,0.871219X0.017781*%
%ADD103R,2.080256X0.017781*%
%ADD104R,0.871219X0.017775*%
%ADD105R,2.098038X0.017775*%
%ADD106R,0.035556X0.017781*%
%ADD107R,0.889000X0.017781*%
%ADD108R,0.942338X0.017781*%
%ADD109R,1.013456X0.017781*%
%ADD110R,0.906781X0.017781*%
%ADD111R,0.995681X0.017781*%
%ADD112R,0.906775X0.017775*%
%ADD113R,0.889000X0.017775*%
%ADD114R,0.977900X0.017775*%
%ADD115R,0.924556X0.017781*%
%ADD116R,0.960119X0.017781*%
%ADD117R,0.924556X0.017775*%
%ADD118R,0.977900X0.017781*%
%ADD119R,0.960119X0.017775*%
%ADD120R,0.835656X0.017775*%
%ADD121R,0.817881X0.017781*%
%ADD122R,0.817881X0.017775*%
%ADD123R,0.995675X0.017781*%
%ADD124R,1.013456X0.017775*%
%ADD125R,1.031238X0.017781*%
%ADD126R,1.031238X0.017775*%
%ADD127R,1.049019X0.017781*%
%ADD128R,1.066800X0.017775*%
%ADD129R,1.066800X0.017781*%
%ADD130R,1.084575X0.017775*%
%ADD131R,1.084575X0.017781*%
%ADD132R,1.102356X0.017781*%
%ADD133R,1.102356X0.017775*%
%ADD134R,1.120138X0.017781*%
%ADD135R,1.137919X0.017775*%
%ADD136R,1.120138X0.017775*%
%ADD137R,1.137919X0.017781*%
%ADD138R,1.155700X0.017781*%
%ADD139R,1.155700X0.017775*%
%ADD140R,1.173475X0.017781*%
%ADD141R,1.173475X0.017775*%
%ADD142R,1.191256X0.017781*%
%ADD143R,1.209037X0.017781*%
%ADD144R,1.209037X0.017775*%
%ADD145R,1.226819X0.017781*%
%ADD146R,1.226819X0.017775*%
%ADD147R,1.244600X0.017781*%
%ADD148R,1.262375X0.017775*%
%ADD149R,1.244600X0.017775*%
%ADD150R,1.280156X0.017781*%
%ADD151R,1.262375X0.017781*%
%ADD152R,1.280156X0.017775*%
%ADD153R,1.297937X0.017781*%
%ADD154R,1.315719X0.017775*%
%ADD155R,1.297937X0.017775*%
%ADD156R,1.333500X0.017781*%
%ADD157R,1.315719X0.017781*%
%ADD158R,1.333500X0.017775*%
%ADD159R,1.351275X0.017781*%
%ADD160R,1.369056X0.017775*%
%ADD161R,1.351275X0.017775*%
%ADD162R,1.369056X0.017781*%
%ADD163R,1.386838X0.017775*%
%ADD164R,1.404619X0.017781*%
%ADD165R,1.386838X0.017781*%
%ADD166R,1.422400X0.017775*%
%ADD167R,1.404619X0.017775*%
%ADD168R,1.422400X0.017781*%
%ADD169R,1.440175X0.017775*%
%ADD170R,1.440175X0.017781*%
%ADD171R,1.457956X0.017781*%
%ADD172R,1.475738X0.017775*%
%ADD173R,1.457956X0.017775*%
%ADD174R,1.475738X0.017781*%
%ADD175R,1.493519X0.017775*%
%ADD176R,1.493519X0.017781*%
%ADD177R,1.511300X0.017781*%
%ADD178R,1.511300X0.017775*%
%ADD179R,1.529075X0.017781*%
%ADD180R,1.546856X0.017775*%
%ADD181R,0.782319X0.017775*%
%ADD182R,1.529075X0.017775*%
%ADD183R,1.546856X0.017781*%
%ADD184R,1.564638X0.017781*%
%ADD185R,1.564638X0.017775*%
%ADD186R,1.582419X0.017775*%
%ADD187R,1.600200X0.017781*%
%ADD188R,1.600200X0.017775*%
%ADD189R,1.617975X0.017781*%
%ADD190R,1.617975X0.017775*%
%ADD191R,1.049019X0.017775*%
%ADD192R,0.995675X0.017775*%
%ADD193R,0.942338X0.017775*%
%ADD194R,0.906775X0.017781*%
%ADD195R,0.053338X0.017775*%
%ADD196R,2.098038X0.017781*%
%ADD197R,2.026919X0.017775*%
%ADD198R,1.991356X0.017781*%
%ADD199R,1.973581X0.017775*%
%ADD200R,1.973581X0.017781*%
%ADD201R,0.711200X0.017775*%
%ADD202R,1.920238X0.017775*%
%ADD203R,1.884681X0.017781*%
%ADD204R,1.866900X0.017775*%
%ADD205R,0.640075X0.017775*%
%ADD206R,0.586738X0.017775*%
%ADD207R,1.795781X0.017781*%
%ADD208R,0.568956X0.017781*%
%ADD209R,1.795781X0.017775*%
%ADD210R,0.533400X0.017775*%
%ADD211R,0.035563X0.017781*%
%ADD212R,0.071119X0.017781*%
%ADD213R,1.671319X0.017781*%
%ADD214R,0.515619X0.017781*%
%ADD215R,0.124456X0.017775*%
%ADD216R,1.617981X0.017775*%
%ADD217R,0.142238X0.017781*%
%ADD218R,0.177800X0.017775*%
%ADD219R,1.529081X0.017775*%
%ADD220R,0.480056X0.017775*%
%ADD221R,0.213356X0.017781*%
%ADD222R,0.444500X0.017781*%
%ADD223R,0.248919X0.017781*%
%ADD224R,0.088900X0.017781*%
%ADD225R,1.440181X0.017781*%
%ADD226R,0.373375X0.017781*%
%ADD227R,0.284481X0.017775*%
%ADD228R,0.320038X0.017775*%
%ADD229R,0.177800X0.017781*%
%ADD230R,1.351281X0.017781*%
%ADD231R,0.231138X0.017781*%
%ADD232R,0.213356X0.017775*%
%ADD233R,0.320038X0.017781*%
%ADD234R,0.266700X0.017781*%
%ADD235R,1.262381X0.017781*%
%ADD236R,0.284481X0.017781*%
%ADD237R,0.053338X0.017781*%


D10*
X770700Y635268D02*
X775215Y635268D01*
X775215Y635269D02*
X775348Y635267D01*
X775480Y635261D01*
X775612Y635251D01*
X775744Y635238D01*
X775876Y635220D01*
X776006Y635199D01*
X776137Y635174D01*
X776266Y635145D01*
X776394Y635112D01*
X776522Y635076D01*
X776648Y635036D01*
X776773Y634992D01*
X776897Y634944D01*
X777019Y634893D01*
X777140Y634838D01*
X777259Y634780D01*
X777377Y634718D01*
X777492Y634653D01*
X777606Y634584D01*
X777717Y634513D01*
X777826Y634437D01*
X777933Y634359D01*
X778038Y634278D01*
X778140Y634193D01*
X778240Y634106D01*
X778337Y634016D01*
X778432Y633923D01*
X778523Y633827D01*
X778612Y633729D01*
X778698Y633628D01*
X778781Y633524D01*
X778861Y633418D01*
X778937Y633310D01*
X779011Y633200D01*
X779081Y633087D01*
X779148Y632973D01*
X779211Y632856D01*
X779271Y632738D01*
X779328Y632618D01*
X779381Y632496D01*
X779430Y632373D01*
X779476Y632249D01*
X779518Y632123D01*
X779556Y631996D01*
X779591Y631868D01*
X779622Y631739D01*
X779649Y631610D01*
X779672Y631479D01*
X779692Y631348D01*
X779707Y631216D01*
X779719Y631084D01*
X779727Y630952D01*
X779731Y630819D01*
X779731Y630687D01*
X779727Y630554D01*
X779719Y630422D01*
X779707Y630290D01*
X779692Y630158D01*
X779672Y630027D01*
X779649Y629896D01*
X779622Y629767D01*
X779591Y629638D01*
X779556Y629510D01*
X779518Y629383D01*
X779476Y629257D01*
X779430Y629133D01*
X779381Y629010D01*
X779328Y628888D01*
X779271Y628768D01*
X779211Y628650D01*
X779148Y628533D01*
X779081Y628419D01*
X779011Y628306D01*
X778937Y628196D01*
X778861Y628088D01*
X778781Y627982D01*
X778698Y627878D01*
X778612Y627777D01*
X778523Y627679D01*
X778432Y627583D01*
X778337Y627490D01*
X778240Y627400D01*
X778140Y627313D01*
X778038Y627228D01*
X777933Y627147D01*
X777826Y627069D01*
X777717Y626993D01*
X777606Y626922D01*
X777492Y626853D01*
X777377Y626788D01*
X777259Y626726D01*
X777140Y626668D01*
X777019Y626613D01*
X776897Y626562D01*
X776773Y626514D01*
X776648Y626470D01*
X776522Y626430D01*
X776394Y626394D01*
X776266Y626361D01*
X776137Y626332D01*
X776006Y626307D01*
X775876Y626286D01*
X775744Y626268D01*
X775612Y626255D01*
X775480Y626245D01*
X775348Y626239D01*
X775215Y626237D01*
X770700Y626237D01*
X770700Y642493D01*
X775215Y642493D01*
X775334Y642491D01*
X775454Y642485D01*
X775573Y642475D01*
X775691Y642461D01*
X775810Y642444D01*
X775927Y642422D01*
X776044Y642397D01*
X776159Y642367D01*
X776274Y642334D01*
X776388Y642297D01*
X776500Y642257D01*
X776611Y642212D01*
X776720Y642164D01*
X776828Y642113D01*
X776934Y642058D01*
X777038Y641999D01*
X777140Y641937D01*
X777240Y641872D01*
X777338Y641803D01*
X777434Y641731D01*
X777527Y641656D01*
X777617Y641579D01*
X777705Y641498D01*
X777790Y641414D01*
X777872Y641327D01*
X777952Y641238D01*
X778028Y641146D01*
X778102Y641052D01*
X778172Y640955D01*
X778239Y640857D01*
X778303Y640756D01*
X778363Y640652D01*
X778420Y640547D01*
X778473Y640440D01*
X778523Y640332D01*
X778569Y640222D01*
X778611Y640110D01*
X778650Y639997D01*
X778685Y639883D01*
X778716Y639768D01*
X778744Y639651D01*
X778767Y639534D01*
X778787Y639417D01*
X778803Y639298D01*
X778815Y639179D01*
X778823Y639060D01*
X778827Y638941D01*
X778827Y638821D01*
X778823Y638702D01*
X778815Y638583D01*
X778803Y638464D01*
X778787Y638345D01*
X778767Y638228D01*
X778744Y638111D01*
X778716Y637994D01*
X778685Y637879D01*
X778650Y637765D01*
X778611Y637652D01*
X778569Y637540D01*
X778523Y637430D01*
X778473Y637322D01*
X778420Y637215D01*
X778363Y637110D01*
X778303Y637006D01*
X778239Y636905D01*
X778172Y636807D01*
X778102Y636710D01*
X778028Y636616D01*
X777952Y636524D01*
X777872Y636435D01*
X777790Y636348D01*
X777705Y636264D01*
X777617Y636183D01*
X777527Y636106D01*
X777434Y636031D01*
X777338Y635959D01*
X777240Y635890D01*
X777140Y635825D01*
X777038Y635763D01*
X776934Y635704D01*
X776828Y635649D01*
X776720Y635598D01*
X776611Y635550D01*
X776500Y635505D01*
X776388Y635465D01*
X776274Y635428D01*
X776159Y635395D01*
X776044Y635365D01*
X775927Y635340D01*
X775810Y635318D01*
X775691Y635301D01*
X775573Y635287D01*
X775454Y635277D01*
X775334Y635271D01*
X775215Y635269D01*
X774312Y599250D02*
X777924Y599250D01*
X774312Y599250D02*
X774194Y599252D01*
X774076Y599258D01*
X773958Y599267D01*
X773841Y599281D01*
X773724Y599298D01*
X773607Y599319D01*
X773492Y599344D01*
X773377Y599373D01*
X773263Y599406D01*
X773151Y599442D01*
X773040Y599482D01*
X772930Y599525D01*
X772821Y599572D01*
X772714Y599622D01*
X772609Y599677D01*
X772506Y599734D01*
X772405Y599795D01*
X772305Y599859D01*
X772208Y599926D01*
X772113Y599996D01*
X772021Y600070D01*
X771930Y600146D01*
X771843Y600226D01*
X771758Y600308D01*
X771676Y600393D01*
X771596Y600480D01*
X771520Y600571D01*
X771446Y600663D01*
X771376Y600758D01*
X771309Y600855D01*
X771245Y600955D01*
X771184Y601056D01*
X771127Y601159D01*
X771072Y601264D01*
X771022Y601371D01*
X770975Y601480D01*
X770932Y601590D01*
X770892Y601701D01*
X770856Y601813D01*
X770823Y601927D01*
X770794Y602042D01*
X770769Y602157D01*
X770748Y602274D01*
X770731Y602391D01*
X770717Y602508D01*
X770708Y602626D01*
X770702Y602744D01*
X770700Y602862D01*
X770700Y611893D01*
X770702Y612011D01*
X770708Y612129D01*
X770717Y612247D01*
X770731Y612364D01*
X770748Y612481D01*
X770769Y612598D01*
X770794Y612713D01*
X770823Y612828D01*
X770856Y612942D01*
X770892Y613054D01*
X770932Y613165D01*
X770975Y613275D01*
X771022Y613384D01*
X771072Y613491D01*
X771126Y613596D01*
X771184Y613699D01*
X771245Y613800D01*
X771309Y613900D01*
X771376Y613997D01*
X771446Y614092D01*
X771520Y614184D01*
X771596Y614275D01*
X771676Y614362D01*
X771758Y614447D01*
X771843Y614529D01*
X771930Y614609D01*
X772021Y614685D01*
X772113Y614759D01*
X772208Y614829D01*
X772305Y614896D01*
X772405Y614960D01*
X772506Y615021D01*
X772609Y615078D01*
X772714Y615132D01*
X772821Y615183D01*
X772930Y615230D01*
X773040Y615273D01*
X773151Y615313D01*
X773263Y615349D01*
X773377Y615382D01*
X773492Y615411D01*
X773607Y615436D01*
X773724Y615457D01*
X773841Y615474D01*
X773958Y615488D01*
X774076Y615497D01*
X774194Y615503D01*
X774312Y615505D01*
X774312Y615506D02*
X777924Y615506D01*
X770700Y590106D02*
X770700Y573850D01*
X770700Y590106D02*
X775215Y590106D01*
X775346Y590104D01*
X775478Y590098D01*
X775609Y590089D01*
X775739Y590075D01*
X775870Y590058D01*
X775999Y590037D01*
X776128Y590013D01*
X776256Y589984D01*
X776384Y589952D01*
X776510Y589916D01*
X776635Y589877D01*
X776760Y589834D01*
X776882Y589787D01*
X777004Y589737D01*
X777124Y589683D01*
X777242Y589626D01*
X777358Y589565D01*
X777473Y589501D01*
X777586Y589434D01*
X777697Y589363D01*
X777805Y589289D01*
X777912Y589212D01*
X778016Y589132D01*
X778118Y589049D01*
X778217Y588964D01*
X778314Y588875D01*
X778408Y588783D01*
X778500Y588689D01*
X778589Y588592D01*
X778674Y588493D01*
X778757Y588391D01*
X778837Y588287D01*
X778914Y588180D01*
X778988Y588072D01*
X779059Y587961D01*
X779126Y587848D01*
X779190Y587733D01*
X779251Y587617D01*
X779308Y587499D01*
X779362Y587379D01*
X779412Y587257D01*
X779459Y587135D01*
X779502Y587010D01*
X779541Y586885D01*
X779577Y586759D01*
X779609Y586631D01*
X779638Y586503D01*
X779662Y586374D01*
X779683Y586245D01*
X779700Y586114D01*
X779714Y585984D01*
X779723Y585853D01*
X779729Y585721D01*
X779731Y585590D01*
X779731Y578365D01*
X779729Y578234D01*
X779723Y578102D01*
X779714Y577971D01*
X779700Y577841D01*
X779683Y577710D01*
X779662Y577581D01*
X779638Y577452D01*
X779609Y577324D01*
X779577Y577196D01*
X779541Y577070D01*
X779502Y576945D01*
X779459Y576820D01*
X779412Y576698D01*
X779362Y576576D01*
X779308Y576456D01*
X779251Y576338D01*
X779190Y576222D01*
X779126Y576107D01*
X779059Y575994D01*
X778988Y575883D01*
X778914Y575775D01*
X778837Y575668D01*
X778757Y575564D01*
X778674Y575462D01*
X778589Y575363D01*
X778500Y575266D01*
X778408Y575172D01*
X778314Y575080D01*
X778217Y574991D01*
X778118Y574906D01*
X778016Y574823D01*
X777912Y574743D01*
X777805Y574666D01*
X777697Y574592D01*
X777586Y574521D01*
X777473Y574454D01*
X777358Y574390D01*
X777242Y574329D01*
X777124Y574272D01*
X777004Y574218D01*
X776882Y574168D01*
X776760Y574121D01*
X776635Y574078D01*
X776510Y574039D01*
X776384Y574003D01*
X776256Y573971D01*
X776128Y573942D01*
X775999Y573918D01*
X775869Y573897D01*
X775739Y573880D01*
X775609Y573866D01*
X775478Y573857D01*
X775346Y573851D01*
X775215Y573849D01*
X775215Y573850D02*
X770700Y573850D01*
D11*
X685292Y536258D02*
X685292Y533012D01*
X685292Y536258D02*
X685290Y536371D01*
X685284Y536484D01*
X685274Y536597D01*
X685260Y536710D01*
X685243Y536822D01*
X685221Y536933D01*
X685196Y537043D01*
X685166Y537153D01*
X685133Y537261D01*
X685096Y537368D01*
X685056Y537474D01*
X685011Y537578D01*
X684963Y537681D01*
X684912Y537782D01*
X684857Y537881D01*
X684799Y537978D01*
X684737Y538073D01*
X684672Y538166D01*
X684604Y538256D01*
X684533Y538344D01*
X684458Y538430D01*
X684381Y538513D01*
X684301Y538593D01*
X684218Y538670D01*
X684132Y538745D01*
X684044Y538816D01*
X683954Y538884D01*
X683861Y538949D01*
X683766Y539011D01*
X683669Y539069D01*
X683570Y539124D01*
X683469Y539175D01*
X683366Y539223D01*
X683262Y539268D01*
X683156Y539308D01*
X683049Y539345D01*
X682941Y539378D01*
X682831Y539408D01*
X682721Y539433D01*
X682610Y539455D01*
X682498Y539472D01*
X682385Y539486D01*
X682272Y539496D01*
X682159Y539502D01*
X682046Y539504D01*
X681933Y539502D01*
X681820Y539496D01*
X681707Y539486D01*
X681594Y539472D01*
X681482Y539455D01*
X681371Y539433D01*
X681261Y539408D01*
X681151Y539378D01*
X681043Y539345D01*
X680936Y539308D01*
X680830Y539268D01*
X680726Y539223D01*
X680623Y539175D01*
X680522Y539124D01*
X680423Y539069D01*
X680326Y539011D01*
X680231Y538949D01*
X680138Y538884D01*
X680048Y538816D01*
X679960Y538745D01*
X679874Y538670D01*
X679791Y538593D01*
X679711Y538513D01*
X679634Y538430D01*
X679559Y538344D01*
X679488Y538256D01*
X679420Y538166D01*
X679355Y538073D01*
X679293Y537978D01*
X679235Y537881D01*
X679180Y537782D01*
X679129Y537681D01*
X679081Y537578D01*
X679036Y537474D01*
X678996Y537368D01*
X678959Y537261D01*
X678926Y537153D01*
X678896Y537043D01*
X678871Y536933D01*
X678849Y536822D01*
X678832Y536710D01*
X678818Y536597D01*
X678808Y536484D01*
X678802Y536371D01*
X678800Y536258D01*
X673608Y536907D02*
X673608Y533012D01*
X673608Y536907D02*
X673610Y537008D01*
X673616Y537108D01*
X673626Y537208D01*
X673639Y537308D01*
X673657Y537407D01*
X673678Y537506D01*
X673703Y537603D01*
X673732Y537700D01*
X673765Y537795D01*
X673801Y537889D01*
X673841Y537981D01*
X673884Y538072D01*
X673931Y538161D01*
X673981Y538248D01*
X674035Y538334D01*
X674092Y538417D01*
X674152Y538497D01*
X674215Y538576D01*
X674282Y538652D01*
X674351Y538725D01*
X674423Y538795D01*
X674497Y538863D01*
X674574Y538928D01*
X674654Y538989D01*
X674736Y539048D01*
X674820Y539103D01*
X674906Y539155D01*
X674994Y539204D01*
X675084Y539249D01*
X675176Y539291D01*
X675269Y539329D01*
X675364Y539363D01*
X675459Y539394D01*
X675556Y539421D01*
X675654Y539444D01*
X675753Y539464D01*
X675853Y539479D01*
X675953Y539491D01*
X676053Y539499D01*
X676154Y539503D01*
X676254Y539503D01*
X676355Y539499D01*
X676455Y539491D01*
X676555Y539479D01*
X676655Y539464D01*
X676754Y539444D01*
X676852Y539421D01*
X676949Y539394D01*
X677044Y539363D01*
X677139Y539329D01*
X677232Y539291D01*
X677324Y539249D01*
X677414Y539204D01*
X677502Y539155D01*
X677588Y539103D01*
X677672Y539048D01*
X677754Y538989D01*
X677834Y538928D01*
X677911Y538863D01*
X677985Y538795D01*
X678057Y538725D01*
X678126Y538652D01*
X678193Y538576D01*
X678256Y538497D01*
X678316Y538417D01*
X678373Y538334D01*
X678427Y538248D01*
X678477Y538161D01*
X678524Y538072D01*
X678567Y537981D01*
X678607Y537889D01*
X678643Y537795D01*
X678676Y537700D01*
X678705Y537603D01*
X678730Y537506D01*
X678751Y537407D01*
X678769Y537308D01*
X678782Y537208D01*
X678792Y537108D01*
X678798Y537008D01*
X678800Y536907D01*
X678801Y536907D02*
X678801Y534310D01*
X673608Y543793D02*
X685292Y547688D01*
X673608Y551582D01*
X685292Y555872D02*
X685292Y559117D01*
X685290Y559230D01*
X685284Y559343D01*
X685274Y559456D01*
X685260Y559569D01*
X685243Y559681D01*
X685221Y559792D01*
X685196Y559902D01*
X685166Y560012D01*
X685133Y560120D01*
X685096Y560227D01*
X685056Y560333D01*
X685011Y560437D01*
X684963Y560540D01*
X684912Y560641D01*
X684857Y560740D01*
X684799Y560837D01*
X684737Y560932D01*
X684672Y561025D01*
X684604Y561115D01*
X684533Y561203D01*
X684458Y561289D01*
X684381Y561372D01*
X684301Y561452D01*
X684218Y561529D01*
X684132Y561604D01*
X684044Y561675D01*
X683954Y561743D01*
X683861Y561808D01*
X683766Y561870D01*
X683669Y561928D01*
X683570Y561983D01*
X683469Y562034D01*
X683366Y562082D01*
X683262Y562127D01*
X683156Y562167D01*
X683049Y562204D01*
X682941Y562237D01*
X682831Y562267D01*
X682721Y562292D01*
X682610Y562314D01*
X682498Y562331D01*
X682385Y562345D01*
X682272Y562355D01*
X682159Y562361D01*
X682046Y562363D01*
X681933Y562361D01*
X681820Y562355D01*
X681707Y562345D01*
X681594Y562331D01*
X681482Y562314D01*
X681371Y562292D01*
X681261Y562267D01*
X681151Y562237D01*
X681043Y562204D01*
X680936Y562167D01*
X680830Y562127D01*
X680726Y562082D01*
X680623Y562034D01*
X680522Y561983D01*
X680423Y561928D01*
X680326Y561870D01*
X680231Y561808D01*
X680138Y561743D01*
X680048Y561675D01*
X679960Y561604D01*
X679874Y561529D01*
X679791Y561452D01*
X679711Y561372D01*
X679634Y561289D01*
X679559Y561203D01*
X679488Y561115D01*
X679420Y561025D01*
X679355Y560932D01*
X679293Y560837D01*
X679235Y560740D01*
X679180Y560641D01*
X679129Y560540D01*
X679081Y560437D01*
X679036Y560333D01*
X678996Y560227D01*
X678959Y560120D01*
X678926Y560012D01*
X678896Y559902D01*
X678871Y559792D01*
X678849Y559681D01*
X678832Y559569D01*
X678818Y559456D01*
X678808Y559343D01*
X678802Y559230D01*
X678800Y559117D01*
X673608Y559767D02*
X673608Y555872D01*
X673608Y559767D02*
X673610Y559868D01*
X673616Y559968D01*
X673626Y560068D01*
X673639Y560168D01*
X673657Y560267D01*
X673678Y560366D01*
X673703Y560463D01*
X673732Y560560D01*
X673765Y560655D01*
X673801Y560749D01*
X673841Y560841D01*
X673884Y560932D01*
X673931Y561021D01*
X673981Y561108D01*
X674035Y561194D01*
X674092Y561277D01*
X674152Y561357D01*
X674215Y561436D01*
X674282Y561512D01*
X674351Y561585D01*
X674423Y561655D01*
X674497Y561723D01*
X674574Y561788D01*
X674654Y561849D01*
X674736Y561908D01*
X674820Y561963D01*
X674906Y562015D01*
X674994Y562064D01*
X675084Y562109D01*
X675176Y562151D01*
X675269Y562189D01*
X675364Y562223D01*
X675459Y562254D01*
X675556Y562281D01*
X675654Y562304D01*
X675753Y562324D01*
X675853Y562339D01*
X675953Y562351D01*
X676053Y562359D01*
X676154Y562363D01*
X676254Y562363D01*
X676355Y562359D01*
X676455Y562351D01*
X676555Y562339D01*
X676655Y562324D01*
X676754Y562304D01*
X676852Y562281D01*
X676949Y562254D01*
X677044Y562223D01*
X677139Y562189D01*
X677232Y562151D01*
X677324Y562109D01*
X677414Y562064D01*
X677502Y562015D01*
X677588Y561963D01*
X677672Y561908D01*
X677754Y561849D01*
X677834Y561788D01*
X677911Y561723D01*
X677985Y561655D01*
X678057Y561585D01*
X678126Y561512D01*
X678193Y561436D01*
X678256Y561357D01*
X678316Y561277D01*
X678373Y561194D01*
X678427Y561108D01*
X678477Y561021D01*
X678524Y560932D01*
X678567Y560841D01*
X678607Y560749D01*
X678643Y560655D01*
X678676Y560560D01*
X678705Y560463D01*
X678730Y560366D01*
X678751Y560267D01*
X678769Y560168D01*
X678782Y560068D01*
X678792Y559968D01*
X678798Y559868D01*
X678800Y559767D01*
X678801Y559767D02*
X678801Y557170D01*
X972630Y533083D02*
X972630Y529837D01*
X972630Y533083D02*
X972628Y533196D01*
X972622Y533309D01*
X972612Y533422D01*
X972598Y533535D01*
X972581Y533647D01*
X972559Y533758D01*
X972534Y533868D01*
X972504Y533978D01*
X972471Y534086D01*
X972434Y534193D01*
X972394Y534299D01*
X972349Y534403D01*
X972301Y534506D01*
X972250Y534607D01*
X972195Y534706D01*
X972137Y534803D01*
X972075Y534898D01*
X972010Y534991D01*
X971942Y535081D01*
X971871Y535169D01*
X971796Y535255D01*
X971719Y535338D01*
X971639Y535418D01*
X971556Y535495D01*
X971470Y535570D01*
X971382Y535641D01*
X971292Y535709D01*
X971199Y535774D01*
X971104Y535836D01*
X971007Y535894D01*
X970908Y535949D01*
X970807Y536000D01*
X970704Y536048D01*
X970600Y536093D01*
X970494Y536133D01*
X970387Y536170D01*
X970279Y536203D01*
X970169Y536233D01*
X970059Y536258D01*
X969948Y536280D01*
X969836Y536297D01*
X969723Y536311D01*
X969610Y536321D01*
X969497Y536327D01*
X969384Y536329D01*
X969271Y536327D01*
X969158Y536321D01*
X969045Y536311D01*
X968932Y536297D01*
X968820Y536280D01*
X968709Y536258D01*
X968599Y536233D01*
X968489Y536203D01*
X968381Y536170D01*
X968274Y536133D01*
X968168Y536093D01*
X968064Y536048D01*
X967961Y536000D01*
X967860Y535949D01*
X967761Y535894D01*
X967664Y535836D01*
X967569Y535774D01*
X967476Y535709D01*
X967386Y535641D01*
X967298Y535570D01*
X967212Y535495D01*
X967129Y535418D01*
X967049Y535338D01*
X966972Y535255D01*
X966897Y535169D01*
X966826Y535081D01*
X966758Y534991D01*
X966693Y534898D01*
X966631Y534803D01*
X966573Y534706D01*
X966518Y534607D01*
X966467Y534506D01*
X966419Y534403D01*
X966374Y534299D01*
X966334Y534193D01*
X966297Y534086D01*
X966264Y533978D01*
X966234Y533868D01*
X966209Y533758D01*
X966187Y533647D01*
X966170Y533535D01*
X966156Y533422D01*
X966146Y533309D01*
X966140Y533196D01*
X966138Y533083D01*
X960946Y533732D02*
X960946Y529837D01*
X960946Y533732D02*
X960948Y533833D01*
X960954Y533933D01*
X960964Y534033D01*
X960977Y534133D01*
X960995Y534232D01*
X961016Y534331D01*
X961041Y534428D01*
X961070Y534525D01*
X961103Y534620D01*
X961139Y534714D01*
X961179Y534806D01*
X961222Y534897D01*
X961269Y534986D01*
X961319Y535073D01*
X961373Y535159D01*
X961430Y535242D01*
X961490Y535322D01*
X961553Y535401D01*
X961620Y535477D01*
X961689Y535550D01*
X961761Y535620D01*
X961835Y535688D01*
X961912Y535753D01*
X961992Y535814D01*
X962074Y535873D01*
X962158Y535928D01*
X962244Y535980D01*
X962332Y536029D01*
X962422Y536074D01*
X962514Y536116D01*
X962607Y536154D01*
X962702Y536188D01*
X962797Y536219D01*
X962894Y536246D01*
X962992Y536269D01*
X963091Y536289D01*
X963191Y536304D01*
X963291Y536316D01*
X963391Y536324D01*
X963492Y536328D01*
X963592Y536328D01*
X963693Y536324D01*
X963793Y536316D01*
X963893Y536304D01*
X963993Y536289D01*
X964092Y536269D01*
X964190Y536246D01*
X964287Y536219D01*
X964382Y536188D01*
X964477Y536154D01*
X964570Y536116D01*
X964662Y536074D01*
X964752Y536029D01*
X964840Y535980D01*
X964926Y535928D01*
X965010Y535873D01*
X965092Y535814D01*
X965172Y535753D01*
X965249Y535688D01*
X965323Y535620D01*
X965395Y535550D01*
X965464Y535477D01*
X965531Y535401D01*
X965594Y535322D01*
X965654Y535242D01*
X965711Y535159D01*
X965765Y535073D01*
X965815Y534986D01*
X965862Y534897D01*
X965905Y534806D01*
X965945Y534714D01*
X965981Y534620D01*
X966014Y534525D01*
X966043Y534428D01*
X966068Y534331D01*
X966089Y534232D01*
X966107Y534133D01*
X966120Y534033D01*
X966130Y533933D01*
X966136Y533833D01*
X966138Y533732D01*
X966138Y531135D01*
X960946Y540618D02*
X972630Y544513D01*
X960946Y548407D01*
X972630Y552697D02*
X972630Y555942D01*
X972628Y556055D01*
X972622Y556168D01*
X972612Y556281D01*
X972598Y556394D01*
X972581Y556506D01*
X972559Y556617D01*
X972534Y556727D01*
X972504Y556837D01*
X972471Y556945D01*
X972434Y557052D01*
X972394Y557158D01*
X972349Y557262D01*
X972301Y557365D01*
X972250Y557466D01*
X972195Y557565D01*
X972137Y557662D01*
X972075Y557757D01*
X972010Y557850D01*
X971942Y557940D01*
X971871Y558028D01*
X971796Y558114D01*
X971719Y558197D01*
X971639Y558277D01*
X971556Y558354D01*
X971470Y558429D01*
X971382Y558500D01*
X971292Y558568D01*
X971199Y558633D01*
X971104Y558695D01*
X971007Y558753D01*
X970908Y558808D01*
X970807Y558859D01*
X970704Y558907D01*
X970600Y558952D01*
X970494Y558992D01*
X970387Y559029D01*
X970279Y559062D01*
X970169Y559092D01*
X970059Y559117D01*
X969948Y559139D01*
X969836Y559156D01*
X969723Y559170D01*
X969610Y559180D01*
X969497Y559186D01*
X969384Y559188D01*
X969271Y559186D01*
X969158Y559180D01*
X969045Y559170D01*
X968932Y559156D01*
X968820Y559139D01*
X968709Y559117D01*
X968599Y559092D01*
X968489Y559062D01*
X968381Y559029D01*
X968274Y558992D01*
X968168Y558952D01*
X968064Y558907D01*
X967961Y558859D01*
X967860Y558808D01*
X967761Y558753D01*
X967664Y558695D01*
X967569Y558633D01*
X967476Y558568D01*
X967386Y558500D01*
X967298Y558429D01*
X967212Y558354D01*
X967129Y558277D01*
X967049Y558197D01*
X966972Y558114D01*
X966897Y558028D01*
X966826Y557940D01*
X966758Y557850D01*
X966693Y557757D01*
X966631Y557662D01*
X966573Y557565D01*
X966518Y557466D01*
X966467Y557365D01*
X966419Y557262D01*
X966374Y557158D01*
X966334Y557052D01*
X966297Y556945D01*
X966264Y556837D01*
X966234Y556727D01*
X966209Y556617D01*
X966187Y556506D01*
X966170Y556394D01*
X966156Y556281D01*
X966146Y556168D01*
X966140Y556055D01*
X966138Y555942D01*
X960946Y556592D02*
X960946Y552697D01*
X960946Y556592D02*
X960948Y556693D01*
X960954Y556793D01*
X960964Y556893D01*
X960977Y556993D01*
X960995Y557092D01*
X961016Y557191D01*
X961041Y557288D01*
X961070Y557385D01*
X961103Y557480D01*
X961139Y557574D01*
X961179Y557666D01*
X961222Y557757D01*
X961269Y557846D01*
X961319Y557933D01*
X961373Y558019D01*
X961430Y558102D01*
X961490Y558182D01*
X961553Y558261D01*
X961620Y558337D01*
X961689Y558410D01*
X961761Y558480D01*
X961835Y558548D01*
X961912Y558613D01*
X961992Y558674D01*
X962074Y558733D01*
X962158Y558788D01*
X962244Y558840D01*
X962332Y558889D01*
X962422Y558934D01*
X962514Y558976D01*
X962607Y559014D01*
X962702Y559048D01*
X962797Y559079D01*
X962894Y559106D01*
X962992Y559129D01*
X963091Y559149D01*
X963191Y559164D01*
X963291Y559176D01*
X963391Y559184D01*
X963492Y559188D01*
X963592Y559188D01*
X963693Y559184D01*
X963793Y559176D01*
X963893Y559164D01*
X963993Y559149D01*
X964092Y559129D01*
X964190Y559106D01*
X964287Y559079D01*
X964382Y559048D01*
X964477Y559014D01*
X964570Y558976D01*
X964662Y558934D01*
X964752Y558889D01*
X964840Y558840D01*
X964926Y558788D01*
X965010Y558733D01*
X965092Y558674D01*
X965172Y558613D01*
X965249Y558548D01*
X965323Y558480D01*
X965395Y558410D01*
X965464Y558337D01*
X965531Y558261D01*
X965594Y558182D01*
X965654Y558102D01*
X965711Y558019D01*
X965765Y557933D01*
X965815Y557846D01*
X965862Y557757D01*
X965905Y557666D01*
X965945Y557574D01*
X965981Y557480D01*
X966014Y557385D01*
X966043Y557288D01*
X966068Y557191D01*
X966089Y557092D01*
X966107Y556993D01*
X966120Y556893D01*
X966130Y556793D01*
X966136Y556693D01*
X966138Y556592D01*
X966138Y553995D01*
X738174Y422458D02*
X735515Y424320D01*
X738173Y422458D02*
X738267Y422395D01*
X738363Y422335D01*
X738461Y422278D01*
X738561Y422225D01*
X738663Y422175D01*
X738767Y422129D01*
X738872Y422087D01*
X738978Y422048D01*
X739086Y422013D01*
X739195Y421982D01*
X739305Y421954D01*
X739416Y421931D01*
X739527Y421911D01*
X739639Y421895D01*
X739752Y421883D01*
X739865Y421875D01*
X739978Y421871D01*
X740092Y421871D01*
X740205Y421875D01*
X740318Y421883D01*
X740431Y421895D01*
X740543Y421911D01*
X740654Y421931D01*
X740765Y421954D01*
X740875Y421982D01*
X740984Y422013D01*
X741092Y422048D01*
X741198Y422087D01*
X741303Y422129D01*
X741407Y422175D01*
X741509Y422225D01*
X741609Y422278D01*
X741707Y422335D01*
X741803Y422395D01*
X741897Y422458D01*
X741988Y422525D01*
X742078Y422594D01*
X742165Y422667D01*
X742249Y422743D01*
X742330Y422822D01*
X742409Y422903D01*
X742485Y422987D01*
X742558Y423074D01*
X742627Y423164D01*
X742694Y423255D01*
X742757Y423349D01*
X742817Y423445D01*
X742874Y423543D01*
X742927Y423643D01*
X742977Y423745D01*
X743023Y423849D01*
X743065Y423954D01*
X743104Y424060D01*
X743139Y424168D01*
X743170Y424277D01*
X743198Y424387D01*
X743221Y424498D01*
X743241Y424609D01*
X743257Y424721D01*
X743269Y424834D01*
X743277Y424947D01*
X743281Y425060D01*
X743281Y425174D01*
X743277Y425287D01*
X743269Y425400D01*
X743257Y425513D01*
X743241Y425625D01*
X743221Y425736D01*
X743198Y425847D01*
X743170Y425957D01*
X743139Y426066D01*
X743104Y426174D01*
X743065Y426280D01*
X743023Y426385D01*
X742977Y426489D01*
X742927Y426591D01*
X742874Y426691D01*
X742817Y426789D01*
X742757Y426885D01*
X742694Y426979D01*
X742627Y427070D01*
X742558Y427160D01*
X742485Y427247D01*
X742409Y427331D01*
X742330Y427412D01*
X742249Y427491D01*
X742165Y427567D01*
X742078Y427640D01*
X741989Y427709D01*
X741897Y427776D01*
X745407Y431657D02*
X742217Y433890D01*
X745407Y431657D02*
X745488Y431597D01*
X745567Y431535D01*
X745644Y431469D01*
X745718Y431401D01*
X745789Y431330D01*
X745857Y431256D01*
X745923Y431179D01*
X745985Y431100D01*
X746045Y431019D01*
X746101Y430935D01*
X746154Y430850D01*
X746203Y430762D01*
X746249Y430673D01*
X746292Y430581D01*
X746331Y430488D01*
X746366Y430394D01*
X746398Y430299D01*
X746426Y430202D01*
X746450Y430104D01*
X746470Y430006D01*
X746487Y429906D01*
X746499Y429806D01*
X746508Y429706D01*
X746513Y429606D01*
X746514Y429505D01*
X746511Y429404D01*
X746504Y429304D01*
X746493Y429204D01*
X746479Y429104D01*
X746460Y429005D01*
X746438Y428907D01*
X746412Y428810D01*
X746382Y428713D01*
X746349Y428619D01*
X746312Y428525D01*
X746271Y428433D01*
X746226Y428342D01*
X746179Y428254D01*
X746127Y428167D01*
X746073Y428083D01*
X746015Y428000D01*
X745954Y427920D01*
X745890Y427842D01*
X745823Y427767D01*
X745754Y427694D01*
X745681Y427625D01*
X745606Y427558D01*
X745528Y427494D01*
X745448Y427433D01*
X745365Y427375D01*
X745281Y427321D01*
X745194Y427269D01*
X745106Y427222D01*
X745015Y427177D01*
X744923Y427136D01*
X744829Y427099D01*
X744735Y427066D01*
X744638Y427036D01*
X744541Y427010D01*
X744443Y426988D01*
X744344Y426969D01*
X744244Y426955D01*
X744144Y426944D01*
X744044Y426937D01*
X743943Y426934D01*
X743842Y426935D01*
X743742Y426940D01*
X743642Y426949D01*
X743542Y426961D01*
X743442Y426978D01*
X743344Y426998D01*
X743246Y427022D01*
X743149Y427050D01*
X743054Y427082D01*
X742960Y427117D01*
X742867Y427156D01*
X742775Y427199D01*
X742686Y427245D01*
X742598Y427294D01*
X742513Y427347D01*
X742429Y427403D01*
X740302Y428892D01*
X751048Y427707D02*
X747537Y415902D01*
X757429Y423239D01*
X754241Y411208D02*
X756899Y409346D01*
X756993Y409283D01*
X757089Y409223D01*
X757187Y409166D01*
X757287Y409113D01*
X757389Y409063D01*
X757493Y409017D01*
X757598Y408975D01*
X757704Y408936D01*
X757812Y408901D01*
X757921Y408870D01*
X758031Y408842D01*
X758142Y408819D01*
X758253Y408799D01*
X758365Y408783D01*
X758478Y408771D01*
X758591Y408763D01*
X758704Y408759D01*
X758818Y408759D01*
X758931Y408763D01*
X759044Y408771D01*
X759157Y408783D01*
X759269Y408799D01*
X759380Y408819D01*
X759491Y408842D01*
X759601Y408870D01*
X759710Y408901D01*
X759818Y408936D01*
X759924Y408975D01*
X760029Y409017D01*
X760133Y409063D01*
X760235Y409113D01*
X760335Y409166D01*
X760433Y409223D01*
X760529Y409283D01*
X760623Y409346D01*
X760714Y409413D01*
X760804Y409482D01*
X760891Y409555D01*
X760975Y409631D01*
X761056Y409710D01*
X761135Y409791D01*
X761211Y409875D01*
X761284Y409962D01*
X761353Y410052D01*
X761420Y410143D01*
X761483Y410237D01*
X761543Y410333D01*
X761600Y410431D01*
X761653Y410531D01*
X761703Y410633D01*
X761749Y410737D01*
X761791Y410842D01*
X761830Y410948D01*
X761865Y411056D01*
X761896Y411165D01*
X761924Y411275D01*
X761947Y411386D01*
X761967Y411497D01*
X761983Y411609D01*
X761995Y411722D01*
X762003Y411835D01*
X762007Y411948D01*
X762007Y412062D01*
X762003Y412175D01*
X761995Y412288D01*
X761983Y412401D01*
X761967Y412513D01*
X761947Y412624D01*
X761924Y412735D01*
X761896Y412845D01*
X761865Y412954D01*
X761830Y413062D01*
X761791Y413168D01*
X761749Y413273D01*
X761703Y413377D01*
X761653Y413479D01*
X761600Y413579D01*
X761543Y413677D01*
X761483Y413773D01*
X761420Y413867D01*
X761353Y413958D01*
X761284Y414048D01*
X761211Y414135D01*
X761135Y414219D01*
X761056Y414300D01*
X760975Y414379D01*
X760891Y414455D01*
X760804Y414528D01*
X760715Y414597D01*
X760623Y414664D01*
X764133Y418545D02*
X760943Y420778D01*
X764133Y418545D02*
X764214Y418485D01*
X764293Y418423D01*
X764370Y418357D01*
X764444Y418289D01*
X764515Y418218D01*
X764583Y418144D01*
X764649Y418067D01*
X764711Y417988D01*
X764771Y417907D01*
X764827Y417823D01*
X764880Y417738D01*
X764929Y417650D01*
X764975Y417561D01*
X765018Y417469D01*
X765057Y417376D01*
X765092Y417282D01*
X765124Y417187D01*
X765152Y417090D01*
X765176Y416992D01*
X765196Y416894D01*
X765213Y416794D01*
X765225Y416694D01*
X765234Y416594D01*
X765239Y416494D01*
X765240Y416393D01*
X765237Y416292D01*
X765230Y416192D01*
X765219Y416092D01*
X765205Y415992D01*
X765186Y415893D01*
X765164Y415795D01*
X765138Y415698D01*
X765108Y415601D01*
X765075Y415507D01*
X765038Y415413D01*
X764997Y415321D01*
X764952Y415230D01*
X764905Y415142D01*
X764853Y415055D01*
X764799Y414971D01*
X764741Y414888D01*
X764680Y414808D01*
X764616Y414730D01*
X764549Y414655D01*
X764480Y414582D01*
X764407Y414513D01*
X764332Y414446D01*
X764254Y414382D01*
X764174Y414321D01*
X764091Y414263D01*
X764007Y414209D01*
X763920Y414157D01*
X763832Y414110D01*
X763741Y414065D01*
X763649Y414024D01*
X763555Y413987D01*
X763461Y413954D01*
X763364Y413924D01*
X763267Y413898D01*
X763169Y413876D01*
X763070Y413857D01*
X762970Y413843D01*
X762870Y413832D01*
X762770Y413825D01*
X762669Y413822D01*
X762568Y413823D01*
X762468Y413828D01*
X762368Y413837D01*
X762268Y413849D01*
X762168Y413866D01*
X762070Y413886D01*
X761972Y413910D01*
X761875Y413938D01*
X761780Y413970D01*
X761686Y414005D01*
X761593Y414044D01*
X761501Y414087D01*
X761412Y414133D01*
X761324Y414182D01*
X761239Y414235D01*
X761155Y414291D01*
X761154Y414291D02*
X759027Y415780D01*
X885092Y405897D02*
X887750Y407759D01*
X887751Y407758D02*
X887842Y407825D01*
X887932Y407894D01*
X888019Y407967D01*
X888103Y408043D01*
X888184Y408122D01*
X888263Y408203D01*
X888339Y408287D01*
X888412Y408374D01*
X888481Y408464D01*
X888548Y408555D01*
X888611Y408649D01*
X888671Y408745D01*
X888728Y408843D01*
X888781Y408943D01*
X888831Y409045D01*
X888877Y409149D01*
X888919Y409254D01*
X888958Y409360D01*
X888993Y409468D01*
X889024Y409577D01*
X889052Y409687D01*
X889075Y409798D01*
X889095Y409909D01*
X889111Y410021D01*
X889123Y410134D01*
X889131Y410247D01*
X889135Y410360D01*
X889135Y410474D01*
X889131Y410587D01*
X889123Y410700D01*
X889111Y410813D01*
X889095Y410925D01*
X889075Y411036D01*
X889052Y411147D01*
X889024Y411257D01*
X888993Y411366D01*
X888958Y411474D01*
X888919Y411580D01*
X888877Y411685D01*
X888831Y411789D01*
X888781Y411891D01*
X888728Y411991D01*
X888671Y412089D01*
X888611Y412185D01*
X888548Y412279D01*
X888481Y412370D01*
X888412Y412460D01*
X888339Y412547D01*
X888263Y412631D01*
X888184Y412712D01*
X888103Y412791D01*
X888019Y412867D01*
X887932Y412940D01*
X887843Y413009D01*
X887751Y413076D01*
X887657Y413139D01*
X887561Y413199D01*
X887463Y413256D01*
X887363Y413309D01*
X887261Y413359D01*
X887157Y413405D01*
X887052Y413447D01*
X886946Y413486D01*
X886838Y413521D01*
X886729Y413552D01*
X886619Y413580D01*
X886508Y413603D01*
X886397Y413623D01*
X886285Y413639D01*
X886172Y413651D01*
X886059Y413659D01*
X885946Y413663D01*
X885832Y413663D01*
X885719Y413659D01*
X885606Y413651D01*
X885493Y413639D01*
X885381Y413623D01*
X885270Y413603D01*
X885159Y413580D01*
X885049Y413552D01*
X884940Y413521D01*
X884832Y413486D01*
X884726Y413447D01*
X884621Y413405D01*
X884517Y413359D01*
X884415Y413309D01*
X884315Y413256D01*
X884217Y413199D01*
X884121Y413139D01*
X884027Y413076D01*
X881580Y417702D02*
X878390Y415468D01*
X881581Y417702D02*
X881665Y417758D01*
X881750Y417811D01*
X881838Y417860D01*
X881927Y417906D01*
X882019Y417949D01*
X882112Y417988D01*
X882206Y418023D01*
X882301Y418055D01*
X882398Y418083D01*
X882496Y418107D01*
X882594Y418127D01*
X882694Y418144D01*
X882794Y418156D01*
X882894Y418165D01*
X882995Y418170D01*
X883095Y418171D01*
X883196Y418168D01*
X883296Y418161D01*
X883396Y418150D01*
X883496Y418136D01*
X883595Y418117D01*
X883693Y418095D01*
X883790Y418069D01*
X883887Y418039D01*
X883982Y418006D01*
X884075Y417969D01*
X884167Y417928D01*
X884258Y417883D01*
X884346Y417836D01*
X884433Y417784D01*
X884517Y417730D01*
X884600Y417672D01*
X884680Y417611D01*
X884758Y417547D01*
X884833Y417480D01*
X884906Y417411D01*
X884975Y417338D01*
X885042Y417263D01*
X885106Y417185D01*
X885167Y417105D01*
X885225Y417022D01*
X885279Y416938D01*
X885331Y416851D01*
X885378Y416763D01*
X885423Y416672D01*
X885464Y416580D01*
X885501Y416486D01*
X885534Y416392D01*
X885564Y416295D01*
X885590Y416198D01*
X885612Y416100D01*
X885631Y416001D01*
X885645Y415901D01*
X885656Y415801D01*
X885663Y415701D01*
X885666Y415600D01*
X885665Y415500D01*
X885660Y415399D01*
X885651Y415299D01*
X885639Y415199D01*
X885622Y415099D01*
X885602Y415001D01*
X885578Y414903D01*
X885550Y414806D01*
X885518Y414711D01*
X885483Y414617D01*
X885444Y414524D01*
X885401Y414432D01*
X885355Y414343D01*
X885306Y414255D01*
X885253Y414170D01*
X885197Y414086D01*
X885137Y414005D01*
X885075Y413926D01*
X885009Y413849D01*
X884941Y413775D01*
X884870Y413704D01*
X884796Y413636D01*
X884719Y413570D01*
X884640Y413508D01*
X884559Y413448D01*
X882432Y411959D01*
X887221Y421652D02*
X897113Y414314D01*
X893602Y426119D01*
X903818Y419009D02*
X906476Y420870D01*
X906477Y420870D02*
X906568Y420937D01*
X906658Y421006D01*
X906745Y421079D01*
X906829Y421155D01*
X906910Y421234D01*
X906989Y421315D01*
X907065Y421399D01*
X907138Y421486D01*
X907207Y421576D01*
X907274Y421667D01*
X907337Y421761D01*
X907397Y421857D01*
X907454Y421955D01*
X907507Y422055D01*
X907557Y422157D01*
X907603Y422261D01*
X907645Y422366D01*
X907684Y422472D01*
X907719Y422580D01*
X907750Y422689D01*
X907778Y422799D01*
X907801Y422910D01*
X907821Y423021D01*
X907837Y423133D01*
X907849Y423246D01*
X907857Y423359D01*
X907861Y423472D01*
X907861Y423586D01*
X907857Y423699D01*
X907849Y423812D01*
X907837Y423925D01*
X907821Y424037D01*
X907801Y424148D01*
X907778Y424259D01*
X907750Y424369D01*
X907719Y424478D01*
X907684Y424586D01*
X907645Y424692D01*
X907603Y424797D01*
X907557Y424901D01*
X907507Y425003D01*
X907454Y425103D01*
X907397Y425201D01*
X907337Y425297D01*
X907274Y425391D01*
X907207Y425482D01*
X907138Y425572D01*
X907065Y425659D01*
X906989Y425743D01*
X906910Y425824D01*
X906829Y425903D01*
X906745Y425979D01*
X906658Y426052D01*
X906569Y426121D01*
X906477Y426188D01*
X906383Y426251D01*
X906287Y426311D01*
X906189Y426368D01*
X906089Y426421D01*
X905987Y426471D01*
X905883Y426517D01*
X905778Y426559D01*
X905672Y426598D01*
X905564Y426633D01*
X905455Y426664D01*
X905345Y426692D01*
X905234Y426715D01*
X905123Y426735D01*
X905011Y426751D01*
X904898Y426763D01*
X904785Y426771D01*
X904672Y426775D01*
X904558Y426775D01*
X904445Y426771D01*
X904332Y426763D01*
X904219Y426751D01*
X904107Y426735D01*
X903996Y426715D01*
X903885Y426692D01*
X903775Y426664D01*
X903666Y426633D01*
X903558Y426598D01*
X903452Y426559D01*
X903347Y426517D01*
X903243Y426471D01*
X903141Y426421D01*
X903041Y426368D01*
X902943Y426311D01*
X902847Y426251D01*
X902753Y426188D01*
X900306Y430814D02*
X897116Y428580D01*
X900306Y430814D02*
X900390Y430870D01*
X900475Y430923D01*
X900563Y430972D01*
X900652Y431018D01*
X900744Y431061D01*
X900837Y431100D01*
X900931Y431135D01*
X901026Y431167D01*
X901123Y431195D01*
X901221Y431219D01*
X901319Y431239D01*
X901419Y431256D01*
X901519Y431268D01*
X901619Y431277D01*
X901720Y431282D01*
X901820Y431283D01*
X901921Y431280D01*
X902021Y431273D01*
X902121Y431262D01*
X902221Y431248D01*
X902320Y431229D01*
X902418Y431207D01*
X902515Y431181D01*
X902612Y431151D01*
X902707Y431118D01*
X902800Y431081D01*
X902892Y431040D01*
X902983Y430995D01*
X903071Y430948D01*
X903158Y430896D01*
X903242Y430842D01*
X903325Y430784D01*
X903405Y430723D01*
X903483Y430659D01*
X903558Y430592D01*
X903631Y430523D01*
X903700Y430450D01*
X903767Y430375D01*
X903831Y430297D01*
X903892Y430217D01*
X903950Y430134D01*
X904004Y430050D01*
X904056Y429963D01*
X904103Y429875D01*
X904148Y429784D01*
X904189Y429692D01*
X904226Y429598D01*
X904259Y429504D01*
X904289Y429407D01*
X904315Y429310D01*
X904337Y429212D01*
X904356Y429113D01*
X904370Y429013D01*
X904381Y428913D01*
X904388Y428813D01*
X904391Y428712D01*
X904390Y428612D01*
X904385Y428511D01*
X904376Y428411D01*
X904364Y428311D01*
X904347Y428211D01*
X904327Y428113D01*
X904303Y428015D01*
X904275Y427918D01*
X904243Y427823D01*
X904208Y427729D01*
X904169Y427636D01*
X904126Y427544D01*
X904080Y427455D01*
X904031Y427367D01*
X903978Y427282D01*
X903922Y427198D01*
X903862Y427117D01*
X903800Y427038D01*
X903734Y426961D01*
X903666Y426887D01*
X903595Y426816D01*
X903521Y426748D01*
X903444Y426682D01*
X903365Y426620D01*
X903284Y426560D01*
X903285Y426560D02*
X901158Y425071D01*
X877874Y674870D02*
X875215Y676732D01*
X877873Y674870D02*
X877967Y674807D01*
X878063Y674747D01*
X878161Y674690D01*
X878261Y674637D01*
X878363Y674587D01*
X878467Y674541D01*
X878572Y674499D01*
X878678Y674460D01*
X878786Y674425D01*
X878895Y674394D01*
X879005Y674366D01*
X879116Y674343D01*
X879227Y674323D01*
X879339Y674307D01*
X879452Y674295D01*
X879565Y674287D01*
X879678Y674283D01*
X879792Y674283D01*
X879905Y674287D01*
X880018Y674295D01*
X880131Y674307D01*
X880243Y674323D01*
X880354Y674343D01*
X880465Y674366D01*
X880575Y674394D01*
X880684Y674425D01*
X880792Y674460D01*
X880898Y674499D01*
X881003Y674541D01*
X881107Y674587D01*
X881209Y674637D01*
X881309Y674690D01*
X881407Y674747D01*
X881503Y674807D01*
X881597Y674870D01*
X881688Y674937D01*
X881778Y675006D01*
X881865Y675079D01*
X881949Y675155D01*
X882030Y675234D01*
X882109Y675315D01*
X882185Y675399D01*
X882258Y675486D01*
X882327Y675576D01*
X882394Y675667D01*
X882457Y675761D01*
X882517Y675857D01*
X882574Y675955D01*
X882627Y676055D01*
X882677Y676157D01*
X882723Y676261D01*
X882765Y676366D01*
X882804Y676472D01*
X882839Y676580D01*
X882870Y676689D01*
X882898Y676799D01*
X882921Y676910D01*
X882941Y677021D01*
X882957Y677133D01*
X882969Y677246D01*
X882977Y677359D01*
X882981Y677472D01*
X882981Y677586D01*
X882977Y677699D01*
X882969Y677812D01*
X882957Y677925D01*
X882941Y678037D01*
X882921Y678148D01*
X882898Y678259D01*
X882870Y678369D01*
X882839Y678478D01*
X882804Y678586D01*
X882765Y678692D01*
X882723Y678797D01*
X882677Y678901D01*
X882627Y679003D01*
X882574Y679103D01*
X882517Y679201D01*
X882457Y679297D01*
X882394Y679391D01*
X882327Y679482D01*
X882258Y679572D01*
X882185Y679659D01*
X882109Y679743D01*
X882030Y679824D01*
X881949Y679903D01*
X881865Y679979D01*
X881778Y680052D01*
X881689Y680121D01*
X881597Y680188D01*
X885107Y684069D02*
X881917Y686303D01*
X885107Y684069D02*
X885188Y684009D01*
X885267Y683947D01*
X885344Y683881D01*
X885418Y683813D01*
X885489Y683742D01*
X885557Y683668D01*
X885623Y683591D01*
X885685Y683512D01*
X885745Y683431D01*
X885801Y683347D01*
X885854Y683262D01*
X885903Y683174D01*
X885949Y683085D01*
X885992Y682993D01*
X886031Y682900D01*
X886066Y682806D01*
X886098Y682711D01*
X886126Y682614D01*
X886150Y682516D01*
X886170Y682418D01*
X886187Y682318D01*
X886199Y682218D01*
X886208Y682118D01*
X886213Y682018D01*
X886214Y681917D01*
X886211Y681816D01*
X886204Y681716D01*
X886193Y681616D01*
X886179Y681516D01*
X886160Y681417D01*
X886138Y681319D01*
X886112Y681222D01*
X886082Y681125D01*
X886049Y681031D01*
X886012Y680937D01*
X885971Y680845D01*
X885926Y680754D01*
X885879Y680666D01*
X885827Y680579D01*
X885773Y680495D01*
X885715Y680412D01*
X885654Y680332D01*
X885590Y680254D01*
X885523Y680179D01*
X885454Y680106D01*
X885381Y680037D01*
X885306Y679970D01*
X885228Y679906D01*
X885148Y679845D01*
X885065Y679787D01*
X884981Y679733D01*
X884894Y679681D01*
X884806Y679634D01*
X884715Y679589D01*
X884623Y679548D01*
X884529Y679511D01*
X884435Y679478D01*
X884338Y679448D01*
X884241Y679422D01*
X884143Y679400D01*
X884044Y679381D01*
X883944Y679367D01*
X883844Y679356D01*
X883744Y679349D01*
X883643Y679346D01*
X883542Y679347D01*
X883442Y679352D01*
X883342Y679361D01*
X883242Y679373D01*
X883142Y679390D01*
X883044Y679410D01*
X882946Y679434D01*
X882849Y679462D01*
X882754Y679494D01*
X882660Y679529D01*
X882567Y679568D01*
X882475Y679611D01*
X882386Y679657D01*
X882298Y679706D01*
X882213Y679759D01*
X882129Y679815D01*
X880002Y681305D01*
X890748Y680119D02*
X887237Y668314D01*
X897129Y675652D01*
X893941Y663620D02*
X896599Y661758D01*
X896693Y661695D01*
X896789Y661635D01*
X896887Y661578D01*
X896987Y661525D01*
X897089Y661475D01*
X897193Y661429D01*
X897298Y661387D01*
X897404Y661348D01*
X897512Y661313D01*
X897621Y661282D01*
X897731Y661254D01*
X897842Y661231D01*
X897953Y661211D01*
X898065Y661195D01*
X898178Y661183D01*
X898291Y661175D01*
X898404Y661171D01*
X898518Y661171D01*
X898631Y661175D01*
X898744Y661183D01*
X898857Y661195D01*
X898969Y661211D01*
X899080Y661231D01*
X899191Y661254D01*
X899301Y661282D01*
X899410Y661313D01*
X899518Y661348D01*
X899624Y661387D01*
X899729Y661429D01*
X899833Y661475D01*
X899935Y661525D01*
X900035Y661578D01*
X900133Y661635D01*
X900229Y661695D01*
X900323Y661758D01*
X900414Y661825D01*
X900504Y661894D01*
X900591Y661967D01*
X900675Y662043D01*
X900756Y662122D01*
X900835Y662203D01*
X900911Y662287D01*
X900984Y662374D01*
X901053Y662464D01*
X901120Y662555D01*
X901183Y662649D01*
X901243Y662745D01*
X901300Y662843D01*
X901353Y662943D01*
X901403Y663045D01*
X901449Y663149D01*
X901491Y663254D01*
X901530Y663360D01*
X901565Y663468D01*
X901596Y663577D01*
X901624Y663687D01*
X901647Y663798D01*
X901667Y663909D01*
X901683Y664021D01*
X901695Y664134D01*
X901703Y664247D01*
X901707Y664360D01*
X901707Y664474D01*
X901703Y664587D01*
X901695Y664700D01*
X901683Y664813D01*
X901667Y664925D01*
X901647Y665036D01*
X901624Y665147D01*
X901596Y665257D01*
X901565Y665366D01*
X901530Y665474D01*
X901491Y665580D01*
X901449Y665685D01*
X901403Y665789D01*
X901353Y665891D01*
X901300Y665991D01*
X901243Y666089D01*
X901183Y666185D01*
X901120Y666279D01*
X901053Y666370D01*
X900984Y666460D01*
X900911Y666547D01*
X900835Y666631D01*
X900756Y666712D01*
X900675Y666791D01*
X900591Y666867D01*
X900504Y666940D01*
X900415Y667009D01*
X900323Y667076D01*
X903833Y670957D02*
X900643Y673191D01*
X903833Y670957D02*
X903914Y670897D01*
X903993Y670835D01*
X904070Y670769D01*
X904144Y670701D01*
X904215Y670630D01*
X904283Y670556D01*
X904349Y670479D01*
X904411Y670400D01*
X904471Y670319D01*
X904527Y670235D01*
X904580Y670150D01*
X904629Y670062D01*
X904675Y669973D01*
X904718Y669881D01*
X904757Y669788D01*
X904792Y669694D01*
X904824Y669599D01*
X904852Y669502D01*
X904876Y669404D01*
X904896Y669306D01*
X904913Y669206D01*
X904925Y669106D01*
X904934Y669006D01*
X904939Y668906D01*
X904940Y668805D01*
X904937Y668704D01*
X904930Y668604D01*
X904919Y668504D01*
X904905Y668404D01*
X904886Y668305D01*
X904864Y668207D01*
X904838Y668110D01*
X904808Y668013D01*
X904775Y667919D01*
X904738Y667825D01*
X904697Y667733D01*
X904652Y667642D01*
X904605Y667554D01*
X904553Y667467D01*
X904499Y667383D01*
X904441Y667300D01*
X904380Y667220D01*
X904316Y667142D01*
X904249Y667067D01*
X904180Y666994D01*
X904107Y666925D01*
X904032Y666858D01*
X903954Y666794D01*
X903874Y666733D01*
X903791Y666675D01*
X903707Y666621D01*
X903620Y666569D01*
X903532Y666522D01*
X903441Y666477D01*
X903349Y666436D01*
X903255Y666399D01*
X903161Y666366D01*
X903064Y666336D01*
X902967Y666310D01*
X902869Y666288D01*
X902770Y666269D01*
X902670Y666255D01*
X902570Y666244D01*
X902470Y666237D01*
X902369Y666234D01*
X902268Y666235D01*
X902168Y666240D01*
X902068Y666249D01*
X901968Y666261D01*
X901868Y666278D01*
X901770Y666298D01*
X901672Y666322D01*
X901575Y666350D01*
X901480Y666382D01*
X901386Y666417D01*
X901293Y666456D01*
X901201Y666499D01*
X901112Y666545D01*
X901024Y666594D01*
X900939Y666647D01*
X900855Y666703D01*
X900854Y666703D02*
X898727Y668193D01*
D10*
X809389Y434340D02*
X809389Y416560D01*
X809389Y434340D02*
X814328Y434340D01*
X814468Y434338D01*
X814607Y434332D01*
X814747Y434322D01*
X814886Y434308D01*
X815025Y434291D01*
X815163Y434269D01*
X815300Y434243D01*
X815437Y434214D01*
X815573Y434181D01*
X815707Y434144D01*
X815841Y434103D01*
X815973Y434058D01*
X816105Y434009D01*
X816234Y433957D01*
X816362Y433902D01*
X816489Y433842D01*
X816614Y433779D01*
X816737Y433713D01*
X816858Y433643D01*
X816977Y433570D01*
X817094Y433493D01*
X817208Y433413D01*
X817321Y433330D01*
X817431Y433244D01*
X817538Y433154D01*
X817643Y433062D01*
X817745Y432967D01*
X817845Y432869D01*
X817942Y432768D01*
X818036Y432664D01*
X818126Y432558D01*
X818214Y432449D01*
X818299Y432338D01*
X818380Y432224D01*
X818459Y432109D01*
X818534Y431991D01*
X818605Y431871D01*
X818673Y431748D01*
X818738Y431625D01*
X818799Y431499D01*
X818857Y431371D01*
X818911Y431243D01*
X818961Y431112D01*
X819008Y430980D01*
X819051Y430847D01*
X819090Y430713D01*
X819125Y430578D01*
X819156Y430442D01*
X819184Y430304D01*
X819207Y430167D01*
X819227Y430028D01*
X819243Y429889D01*
X819255Y429750D01*
X819263Y429611D01*
X819267Y429471D01*
X819267Y429331D01*
X819263Y429191D01*
X819255Y429052D01*
X819243Y428913D01*
X819227Y428774D01*
X819207Y428635D01*
X819184Y428498D01*
X819156Y428360D01*
X819125Y428224D01*
X819090Y428089D01*
X819051Y427955D01*
X819008Y427822D01*
X818961Y427690D01*
X818911Y427559D01*
X818857Y427431D01*
X818799Y427303D01*
X818738Y427177D01*
X818673Y427054D01*
X818605Y426932D01*
X818534Y426811D01*
X818459Y426693D01*
X818380Y426578D01*
X818299Y426464D01*
X818214Y426353D01*
X818126Y426244D01*
X818036Y426138D01*
X817942Y426034D01*
X817845Y425933D01*
X817745Y425835D01*
X817643Y425740D01*
X817538Y425648D01*
X817431Y425558D01*
X817321Y425472D01*
X817208Y425389D01*
X817094Y425309D01*
X816977Y425232D01*
X816858Y425159D01*
X816737Y425089D01*
X816614Y425023D01*
X816489Y424960D01*
X816362Y424900D01*
X816234Y424845D01*
X816105Y424793D01*
X815973Y424744D01*
X815841Y424699D01*
X815707Y424658D01*
X815573Y424621D01*
X815437Y424588D01*
X815300Y424559D01*
X815163Y424533D01*
X815025Y424511D01*
X814886Y424494D01*
X814747Y424480D01*
X814607Y424470D01*
X814468Y424464D01*
X814328Y424462D01*
X809389Y424462D01*
X825384Y416560D02*
X830323Y416560D01*
X830463Y416562D01*
X830602Y416568D01*
X830742Y416578D01*
X830881Y416592D01*
X831020Y416609D01*
X831158Y416631D01*
X831295Y416657D01*
X831432Y416686D01*
X831568Y416719D01*
X831702Y416756D01*
X831836Y416797D01*
X831968Y416842D01*
X832100Y416891D01*
X832229Y416943D01*
X832357Y416998D01*
X832484Y417058D01*
X832609Y417121D01*
X832732Y417187D01*
X832853Y417257D01*
X832972Y417330D01*
X833089Y417407D01*
X833203Y417487D01*
X833316Y417570D01*
X833426Y417656D01*
X833533Y417746D01*
X833638Y417838D01*
X833740Y417933D01*
X833840Y418031D01*
X833937Y418132D01*
X834031Y418236D01*
X834121Y418342D01*
X834209Y418451D01*
X834294Y418562D01*
X834375Y418676D01*
X834454Y418791D01*
X834529Y418909D01*
X834600Y419030D01*
X834668Y419152D01*
X834733Y419275D01*
X834794Y419401D01*
X834852Y419529D01*
X834906Y419657D01*
X834956Y419788D01*
X835003Y419920D01*
X835046Y420053D01*
X835085Y420187D01*
X835120Y420322D01*
X835151Y420458D01*
X835179Y420596D01*
X835202Y420733D01*
X835222Y420872D01*
X835238Y421011D01*
X835250Y421150D01*
X835258Y421289D01*
X835262Y421429D01*
X835262Y421569D01*
X835258Y421709D01*
X835250Y421848D01*
X835238Y421987D01*
X835222Y422126D01*
X835202Y422265D01*
X835179Y422402D01*
X835151Y422540D01*
X835120Y422676D01*
X835085Y422811D01*
X835046Y422945D01*
X835003Y423078D01*
X834956Y423210D01*
X834906Y423341D01*
X834852Y423469D01*
X834794Y423597D01*
X834733Y423723D01*
X834668Y423846D01*
X834600Y423969D01*
X834529Y424089D01*
X834454Y424207D01*
X834375Y424322D01*
X834294Y424436D01*
X834209Y424547D01*
X834121Y424656D01*
X834031Y424762D01*
X833937Y424866D01*
X833840Y424967D01*
X833740Y425065D01*
X833638Y425160D01*
X833533Y425252D01*
X833426Y425342D01*
X833316Y425428D01*
X833203Y425511D01*
X833089Y425591D01*
X832972Y425668D01*
X832853Y425741D01*
X832732Y425811D01*
X832609Y425877D01*
X832484Y425940D01*
X832357Y426000D01*
X832229Y426055D01*
X832100Y426107D01*
X831968Y426156D01*
X831836Y426201D01*
X831702Y426242D01*
X831568Y426279D01*
X831432Y426312D01*
X831295Y426341D01*
X831158Y426367D01*
X831020Y426389D01*
X830881Y426406D01*
X830742Y426420D01*
X830602Y426430D01*
X830463Y426436D01*
X830323Y426438D01*
X831310Y434340D02*
X825384Y434340D01*
X831310Y434340D02*
X831434Y434338D01*
X831558Y434332D01*
X831682Y434322D01*
X831805Y434309D01*
X831928Y434291D01*
X832050Y434270D01*
X832172Y434245D01*
X832293Y434216D01*
X832412Y434183D01*
X832531Y434147D01*
X832648Y434106D01*
X832764Y434063D01*
X832879Y434015D01*
X832992Y433964D01*
X833104Y433909D01*
X833213Y433851D01*
X833321Y433790D01*
X833427Y433725D01*
X833531Y433657D01*
X833632Y433585D01*
X833732Y433511D01*
X833828Y433433D01*
X833923Y433353D01*
X834015Y433269D01*
X834104Y433183D01*
X834190Y433094D01*
X834274Y433002D01*
X834354Y432907D01*
X834432Y432811D01*
X834506Y432711D01*
X834578Y432610D01*
X834646Y432506D01*
X834711Y432400D01*
X834772Y432292D01*
X834830Y432183D01*
X834885Y432071D01*
X834936Y431958D01*
X834984Y431843D01*
X835027Y431727D01*
X835068Y431610D01*
X835104Y431491D01*
X835137Y431372D01*
X835166Y431251D01*
X835191Y431129D01*
X835212Y431007D01*
X835230Y430884D01*
X835243Y430761D01*
X835253Y430637D01*
X835259Y430513D01*
X835261Y430389D01*
X835259Y430265D01*
X835253Y430141D01*
X835243Y430017D01*
X835230Y429894D01*
X835212Y429771D01*
X835191Y429649D01*
X835166Y429527D01*
X835137Y429406D01*
X835104Y429287D01*
X835068Y429168D01*
X835027Y429051D01*
X834984Y428935D01*
X834936Y428820D01*
X834885Y428707D01*
X834830Y428595D01*
X834772Y428486D01*
X834711Y428378D01*
X834646Y428272D01*
X834578Y428168D01*
X834506Y428067D01*
X834432Y427967D01*
X834354Y427871D01*
X834274Y427776D01*
X834190Y427684D01*
X834104Y427595D01*
X834015Y427509D01*
X833923Y427425D01*
X833828Y427345D01*
X833732Y427267D01*
X833632Y427193D01*
X833531Y427121D01*
X833427Y427053D01*
X833321Y426988D01*
X833213Y426927D01*
X833104Y426869D01*
X832992Y426814D01*
X832879Y426763D01*
X832764Y426715D01*
X832648Y426672D01*
X832531Y426631D01*
X832412Y426595D01*
X832293Y426562D01*
X832172Y426533D01*
X832050Y426508D01*
X831928Y426487D01*
X831805Y426469D01*
X831682Y426456D01*
X831558Y426446D01*
X831434Y426440D01*
X831310Y426438D01*
X827359Y426438D01*
X713175Y470535D02*
X713175Y488315D01*
X718114Y488315D01*
X718254Y488313D01*
X718393Y488307D01*
X718533Y488297D01*
X718672Y488283D01*
X718811Y488266D01*
X718949Y488244D01*
X719086Y488218D01*
X719223Y488189D01*
X719359Y488156D01*
X719493Y488119D01*
X719627Y488078D01*
X719759Y488033D01*
X719891Y487984D01*
X720020Y487932D01*
X720148Y487877D01*
X720275Y487817D01*
X720400Y487754D01*
X720523Y487688D01*
X720644Y487618D01*
X720763Y487545D01*
X720880Y487468D01*
X720994Y487388D01*
X721107Y487305D01*
X721217Y487219D01*
X721324Y487129D01*
X721429Y487037D01*
X721531Y486942D01*
X721631Y486844D01*
X721728Y486743D01*
X721822Y486639D01*
X721912Y486533D01*
X722000Y486424D01*
X722085Y486313D01*
X722166Y486199D01*
X722245Y486084D01*
X722320Y485966D01*
X722391Y485846D01*
X722459Y485723D01*
X722524Y485600D01*
X722585Y485474D01*
X722643Y485346D01*
X722697Y485218D01*
X722747Y485087D01*
X722794Y484955D01*
X722837Y484822D01*
X722876Y484688D01*
X722911Y484553D01*
X722942Y484417D01*
X722970Y484279D01*
X722993Y484142D01*
X723013Y484003D01*
X723029Y483864D01*
X723041Y483725D01*
X723049Y483586D01*
X723053Y483446D01*
X723053Y483306D01*
X723049Y483166D01*
X723041Y483027D01*
X723029Y482888D01*
X723013Y482749D01*
X722993Y482610D01*
X722970Y482473D01*
X722942Y482335D01*
X722911Y482199D01*
X722876Y482064D01*
X722837Y481930D01*
X722794Y481797D01*
X722747Y481665D01*
X722697Y481534D01*
X722643Y481406D01*
X722585Y481278D01*
X722524Y481152D01*
X722459Y481029D01*
X722391Y480907D01*
X722320Y480786D01*
X722245Y480668D01*
X722166Y480553D01*
X722085Y480439D01*
X722000Y480328D01*
X721912Y480219D01*
X721822Y480113D01*
X721728Y480009D01*
X721631Y479908D01*
X721531Y479810D01*
X721429Y479715D01*
X721324Y479623D01*
X721217Y479533D01*
X721107Y479447D01*
X720994Y479364D01*
X720880Y479284D01*
X720763Y479207D01*
X720644Y479134D01*
X720523Y479064D01*
X720400Y478998D01*
X720275Y478935D01*
X720148Y478875D01*
X720020Y478820D01*
X719891Y478768D01*
X719759Y478719D01*
X719627Y478674D01*
X719493Y478633D01*
X719359Y478596D01*
X719223Y478563D01*
X719086Y478534D01*
X718949Y478508D01*
X718811Y478486D01*
X718672Y478469D01*
X718533Y478455D01*
X718393Y478445D01*
X718254Y478439D01*
X718114Y478437D01*
X713175Y478437D01*
X729170Y474486D02*
X733121Y488315D01*
X729170Y474486D02*
X739048Y474486D01*
X736084Y478437D02*
X736084Y470535D01*
X751417Y477449D02*
X751417Y483376D01*
X751417Y477449D02*
X754875Y473004D01*
X751417Y477449D02*
X747960Y473004D01*
X751417Y477449D02*
X756850Y479425D01*
X751417Y477449D02*
X745985Y479425D01*
X690326Y583248D02*
X690326Y601028D01*
X695265Y601028D01*
X695405Y601026D01*
X695544Y601020D01*
X695684Y601010D01*
X695823Y600996D01*
X695962Y600979D01*
X696100Y600957D01*
X696237Y600931D01*
X696374Y600902D01*
X696510Y600869D01*
X696644Y600832D01*
X696778Y600791D01*
X696910Y600746D01*
X697042Y600697D01*
X697171Y600645D01*
X697299Y600590D01*
X697426Y600530D01*
X697551Y600467D01*
X697674Y600401D01*
X697795Y600331D01*
X697914Y600258D01*
X698031Y600181D01*
X698145Y600101D01*
X698258Y600018D01*
X698368Y599932D01*
X698475Y599842D01*
X698580Y599750D01*
X698682Y599655D01*
X698782Y599557D01*
X698879Y599456D01*
X698973Y599352D01*
X699063Y599246D01*
X699151Y599137D01*
X699236Y599026D01*
X699317Y598912D01*
X699396Y598797D01*
X699471Y598679D01*
X699542Y598559D01*
X699610Y598436D01*
X699675Y598313D01*
X699736Y598187D01*
X699794Y598059D01*
X699848Y597931D01*
X699898Y597800D01*
X699945Y597668D01*
X699988Y597535D01*
X700027Y597401D01*
X700062Y597266D01*
X700093Y597130D01*
X700121Y596992D01*
X700144Y596855D01*
X700164Y596716D01*
X700180Y596577D01*
X700192Y596438D01*
X700200Y596299D01*
X700204Y596159D01*
X700204Y596019D01*
X700200Y595879D01*
X700192Y595740D01*
X700180Y595601D01*
X700164Y595462D01*
X700144Y595323D01*
X700121Y595186D01*
X700093Y595048D01*
X700062Y594912D01*
X700027Y594777D01*
X699988Y594643D01*
X699945Y594510D01*
X699898Y594378D01*
X699848Y594247D01*
X699794Y594119D01*
X699736Y593991D01*
X699675Y593865D01*
X699610Y593742D01*
X699542Y593620D01*
X699471Y593499D01*
X699396Y593381D01*
X699317Y593266D01*
X699236Y593152D01*
X699151Y593041D01*
X699063Y592932D01*
X698973Y592826D01*
X698879Y592722D01*
X698782Y592621D01*
X698682Y592523D01*
X698580Y592428D01*
X698475Y592336D01*
X698368Y592246D01*
X698258Y592160D01*
X698145Y592077D01*
X698031Y591997D01*
X697914Y591920D01*
X697795Y591847D01*
X697674Y591777D01*
X697551Y591711D01*
X697426Y591648D01*
X697299Y591588D01*
X697171Y591533D01*
X697042Y591481D01*
X696910Y591432D01*
X696778Y591387D01*
X696644Y591346D01*
X696510Y591309D01*
X696374Y591276D01*
X696237Y591247D01*
X696100Y591221D01*
X695962Y591199D01*
X695823Y591182D01*
X695684Y591168D01*
X695544Y591158D01*
X695405Y591152D01*
X695265Y591150D01*
X690326Y591150D01*
X706321Y583248D02*
X712248Y583248D01*
X712372Y583250D01*
X712496Y583256D01*
X712620Y583266D01*
X712743Y583279D01*
X712866Y583297D01*
X712988Y583318D01*
X713110Y583343D01*
X713231Y583372D01*
X713350Y583405D01*
X713469Y583441D01*
X713586Y583482D01*
X713702Y583525D01*
X713817Y583573D01*
X713930Y583624D01*
X714042Y583679D01*
X714151Y583737D01*
X714259Y583798D01*
X714365Y583863D01*
X714469Y583931D01*
X714570Y584003D01*
X714670Y584077D01*
X714766Y584155D01*
X714861Y584235D01*
X714953Y584319D01*
X715042Y584405D01*
X715128Y584494D01*
X715212Y584586D01*
X715292Y584681D01*
X715370Y584777D01*
X715444Y584877D01*
X715516Y584978D01*
X715584Y585082D01*
X715649Y585188D01*
X715710Y585296D01*
X715768Y585405D01*
X715823Y585517D01*
X715874Y585630D01*
X715922Y585745D01*
X715965Y585861D01*
X716006Y585978D01*
X716042Y586097D01*
X716075Y586216D01*
X716104Y586337D01*
X716129Y586459D01*
X716150Y586581D01*
X716168Y586704D01*
X716181Y586827D01*
X716191Y586951D01*
X716197Y587075D01*
X716199Y587199D01*
X716199Y589174D01*
X716197Y589298D01*
X716191Y589422D01*
X716181Y589546D01*
X716168Y589669D01*
X716150Y589792D01*
X716129Y589914D01*
X716104Y590036D01*
X716075Y590157D01*
X716042Y590276D01*
X716006Y590395D01*
X715965Y590512D01*
X715922Y590628D01*
X715874Y590743D01*
X715823Y590856D01*
X715768Y590968D01*
X715710Y591077D01*
X715649Y591185D01*
X715584Y591291D01*
X715516Y591395D01*
X715444Y591496D01*
X715370Y591596D01*
X715292Y591692D01*
X715212Y591787D01*
X715128Y591879D01*
X715042Y591968D01*
X714953Y592054D01*
X714861Y592138D01*
X714766Y592218D01*
X714670Y592296D01*
X714570Y592370D01*
X714469Y592442D01*
X714365Y592510D01*
X714259Y592575D01*
X714151Y592636D01*
X714042Y592694D01*
X713930Y592749D01*
X713817Y592800D01*
X713702Y592848D01*
X713586Y592891D01*
X713469Y592932D01*
X713350Y592968D01*
X713231Y593001D01*
X713110Y593030D01*
X712988Y593055D01*
X712866Y593076D01*
X712743Y593094D01*
X712620Y593107D01*
X712496Y593117D01*
X712372Y593123D01*
X712248Y593125D01*
X706321Y593125D01*
X706321Y601028D01*
X716199Y601028D01*
X809389Y657860D02*
X809389Y675640D01*
X814328Y675640D01*
X814468Y675638D01*
X814607Y675632D01*
X814747Y675622D01*
X814886Y675608D01*
X815025Y675591D01*
X815163Y675569D01*
X815300Y675543D01*
X815437Y675514D01*
X815573Y675481D01*
X815707Y675444D01*
X815841Y675403D01*
X815973Y675358D01*
X816105Y675309D01*
X816234Y675257D01*
X816362Y675202D01*
X816489Y675142D01*
X816614Y675079D01*
X816737Y675013D01*
X816858Y674943D01*
X816977Y674870D01*
X817094Y674793D01*
X817208Y674713D01*
X817321Y674630D01*
X817431Y674544D01*
X817538Y674454D01*
X817643Y674362D01*
X817745Y674267D01*
X817845Y674169D01*
X817942Y674068D01*
X818036Y673964D01*
X818126Y673858D01*
X818214Y673749D01*
X818299Y673638D01*
X818380Y673524D01*
X818459Y673409D01*
X818534Y673291D01*
X818605Y673171D01*
X818673Y673048D01*
X818738Y672925D01*
X818799Y672799D01*
X818857Y672671D01*
X818911Y672543D01*
X818961Y672412D01*
X819008Y672280D01*
X819051Y672147D01*
X819090Y672013D01*
X819125Y671878D01*
X819156Y671742D01*
X819184Y671604D01*
X819207Y671467D01*
X819227Y671328D01*
X819243Y671189D01*
X819255Y671050D01*
X819263Y670911D01*
X819267Y670771D01*
X819267Y670631D01*
X819263Y670491D01*
X819255Y670352D01*
X819243Y670213D01*
X819227Y670074D01*
X819207Y669935D01*
X819184Y669798D01*
X819156Y669660D01*
X819125Y669524D01*
X819090Y669389D01*
X819051Y669255D01*
X819008Y669122D01*
X818961Y668990D01*
X818911Y668859D01*
X818857Y668731D01*
X818799Y668603D01*
X818738Y668477D01*
X818673Y668354D01*
X818605Y668232D01*
X818534Y668111D01*
X818459Y667993D01*
X818380Y667878D01*
X818299Y667764D01*
X818214Y667653D01*
X818126Y667544D01*
X818036Y667438D01*
X817942Y667334D01*
X817845Y667233D01*
X817745Y667135D01*
X817643Y667040D01*
X817538Y666948D01*
X817431Y666858D01*
X817321Y666772D01*
X817208Y666689D01*
X817094Y666609D01*
X816977Y666532D01*
X816858Y666459D01*
X816737Y666389D01*
X816614Y666323D01*
X816489Y666260D01*
X816362Y666200D01*
X816234Y666145D01*
X816105Y666093D01*
X815973Y666044D01*
X815841Y665999D01*
X815707Y665958D01*
X815573Y665921D01*
X815437Y665888D01*
X815300Y665859D01*
X815163Y665833D01*
X815025Y665811D01*
X814886Y665794D01*
X814747Y665780D01*
X814607Y665770D01*
X814468Y665764D01*
X814328Y665762D01*
X809389Y665762D01*
X825384Y667738D02*
X831310Y667738D01*
X831434Y667736D01*
X831558Y667730D01*
X831682Y667720D01*
X831805Y667707D01*
X831928Y667689D01*
X832050Y667668D01*
X832172Y667643D01*
X832293Y667614D01*
X832412Y667581D01*
X832531Y667545D01*
X832648Y667504D01*
X832764Y667461D01*
X832879Y667413D01*
X832992Y667362D01*
X833104Y667307D01*
X833213Y667249D01*
X833321Y667188D01*
X833427Y667123D01*
X833531Y667055D01*
X833632Y666983D01*
X833732Y666909D01*
X833828Y666831D01*
X833923Y666751D01*
X834015Y666667D01*
X834104Y666581D01*
X834190Y666492D01*
X834274Y666400D01*
X834354Y666305D01*
X834432Y666209D01*
X834506Y666109D01*
X834578Y666008D01*
X834646Y665904D01*
X834711Y665798D01*
X834772Y665690D01*
X834830Y665581D01*
X834885Y665469D01*
X834936Y665356D01*
X834984Y665241D01*
X835027Y665125D01*
X835068Y665008D01*
X835104Y664889D01*
X835137Y664770D01*
X835166Y664649D01*
X835191Y664527D01*
X835212Y664405D01*
X835230Y664282D01*
X835243Y664159D01*
X835253Y664035D01*
X835259Y663911D01*
X835261Y663787D01*
X835261Y662799D01*
X835262Y662799D02*
X835260Y662659D01*
X835254Y662520D01*
X835244Y662380D01*
X835230Y662241D01*
X835213Y662102D01*
X835191Y661964D01*
X835165Y661827D01*
X835136Y661690D01*
X835103Y661554D01*
X835066Y661420D01*
X835025Y661286D01*
X834980Y661154D01*
X834931Y661022D01*
X834879Y660893D01*
X834824Y660765D01*
X834764Y660638D01*
X834701Y660513D01*
X834635Y660390D01*
X834565Y660269D01*
X834492Y660150D01*
X834415Y660033D01*
X834335Y659919D01*
X834252Y659806D01*
X834166Y659696D01*
X834076Y659589D01*
X833984Y659484D01*
X833889Y659382D01*
X833791Y659282D01*
X833690Y659185D01*
X833586Y659091D01*
X833480Y659001D01*
X833371Y658913D01*
X833260Y658828D01*
X833146Y658747D01*
X833031Y658668D01*
X832913Y658593D01*
X832793Y658522D01*
X832670Y658454D01*
X832547Y658389D01*
X832421Y658328D01*
X832293Y658270D01*
X832165Y658216D01*
X832034Y658166D01*
X831902Y658119D01*
X831769Y658076D01*
X831635Y658037D01*
X831500Y658002D01*
X831364Y657971D01*
X831226Y657943D01*
X831089Y657920D01*
X830950Y657900D01*
X830811Y657884D01*
X830672Y657872D01*
X830533Y657864D01*
X830393Y657860D01*
X830253Y657860D01*
X830113Y657864D01*
X829974Y657872D01*
X829835Y657884D01*
X829696Y657900D01*
X829557Y657920D01*
X829420Y657943D01*
X829282Y657971D01*
X829146Y658002D01*
X829011Y658037D01*
X828877Y658076D01*
X828744Y658119D01*
X828612Y658166D01*
X828481Y658216D01*
X828353Y658270D01*
X828225Y658328D01*
X828099Y658389D01*
X827976Y658454D01*
X827854Y658522D01*
X827733Y658593D01*
X827615Y658668D01*
X827500Y658747D01*
X827386Y658828D01*
X827275Y658913D01*
X827166Y659001D01*
X827060Y659091D01*
X826956Y659185D01*
X826855Y659282D01*
X826757Y659382D01*
X826662Y659484D01*
X826570Y659589D01*
X826480Y659696D01*
X826394Y659806D01*
X826311Y659919D01*
X826231Y660033D01*
X826154Y660150D01*
X826081Y660269D01*
X826011Y660390D01*
X825945Y660513D01*
X825882Y660638D01*
X825822Y660765D01*
X825767Y660893D01*
X825715Y661022D01*
X825666Y661154D01*
X825621Y661286D01*
X825580Y661420D01*
X825543Y661554D01*
X825510Y661690D01*
X825481Y661827D01*
X825455Y661964D01*
X825433Y662102D01*
X825416Y662241D01*
X825402Y662380D01*
X825392Y662520D01*
X825386Y662659D01*
X825384Y662799D01*
X825384Y667738D01*
X825386Y667932D01*
X825394Y668126D01*
X825405Y668319D01*
X825422Y668513D01*
X825443Y668705D01*
X825470Y668897D01*
X825500Y669089D01*
X825536Y669280D01*
X825576Y669469D01*
X825621Y669658D01*
X825670Y669846D01*
X825724Y670032D01*
X825783Y670217D01*
X825846Y670400D01*
X825913Y670582D01*
X825986Y670762D01*
X826062Y670940D01*
X826143Y671117D01*
X826228Y671291D01*
X826317Y671463D01*
X826411Y671633D01*
X826508Y671800D01*
X826610Y671966D01*
X826716Y672128D01*
X826825Y672288D01*
X826939Y672445D01*
X827056Y672600D01*
X827178Y672751D01*
X827303Y672899D01*
X827431Y673045D01*
X827563Y673187D01*
X827698Y673326D01*
X827837Y673461D01*
X827979Y673593D01*
X828125Y673721D01*
X828273Y673846D01*
X828424Y673968D01*
X828579Y674085D01*
X828736Y674199D01*
X828896Y674308D01*
X829058Y674414D01*
X829224Y674516D01*
X829391Y674613D01*
X829561Y674707D01*
X829733Y674796D01*
X829907Y674881D01*
X830084Y674962D01*
X830262Y675038D01*
X830442Y675111D01*
X830624Y675178D01*
X830807Y675241D01*
X830992Y675300D01*
X831178Y675354D01*
X831366Y675403D01*
X831555Y675448D01*
X831744Y675488D01*
X831935Y675524D01*
X832127Y675554D01*
X832319Y675581D01*
X832511Y675602D01*
X832705Y675619D01*
X832898Y675630D01*
X833092Y675638D01*
X833286Y675640D01*
X925276Y599440D02*
X925276Y581660D01*
X925276Y599440D02*
X930215Y599440D01*
X930355Y599438D01*
X930494Y599432D01*
X930634Y599422D01*
X930773Y599408D01*
X930912Y599391D01*
X931050Y599369D01*
X931187Y599343D01*
X931324Y599314D01*
X931460Y599281D01*
X931594Y599244D01*
X931728Y599203D01*
X931860Y599158D01*
X931992Y599109D01*
X932121Y599057D01*
X932249Y599002D01*
X932376Y598942D01*
X932501Y598879D01*
X932624Y598813D01*
X932745Y598743D01*
X932864Y598670D01*
X932981Y598593D01*
X933095Y598513D01*
X933208Y598430D01*
X933318Y598344D01*
X933425Y598254D01*
X933530Y598162D01*
X933632Y598067D01*
X933732Y597969D01*
X933829Y597868D01*
X933923Y597764D01*
X934013Y597658D01*
X934101Y597549D01*
X934186Y597438D01*
X934267Y597324D01*
X934346Y597209D01*
X934421Y597091D01*
X934492Y596971D01*
X934560Y596848D01*
X934625Y596725D01*
X934686Y596599D01*
X934744Y596471D01*
X934798Y596343D01*
X934848Y596212D01*
X934895Y596080D01*
X934938Y595947D01*
X934977Y595813D01*
X935012Y595678D01*
X935043Y595542D01*
X935071Y595404D01*
X935094Y595267D01*
X935114Y595128D01*
X935130Y594989D01*
X935142Y594850D01*
X935150Y594711D01*
X935154Y594571D01*
X935154Y594431D01*
X935150Y594291D01*
X935142Y594152D01*
X935130Y594013D01*
X935114Y593874D01*
X935094Y593735D01*
X935071Y593598D01*
X935043Y593460D01*
X935012Y593324D01*
X934977Y593189D01*
X934938Y593055D01*
X934895Y592922D01*
X934848Y592790D01*
X934798Y592659D01*
X934744Y592531D01*
X934686Y592403D01*
X934625Y592277D01*
X934560Y592154D01*
X934492Y592032D01*
X934421Y591911D01*
X934346Y591793D01*
X934267Y591678D01*
X934186Y591564D01*
X934101Y591453D01*
X934013Y591344D01*
X933923Y591238D01*
X933829Y591134D01*
X933732Y591033D01*
X933632Y590935D01*
X933530Y590840D01*
X933425Y590748D01*
X933318Y590658D01*
X933208Y590572D01*
X933095Y590489D01*
X932981Y590409D01*
X932864Y590332D01*
X932745Y590259D01*
X932624Y590189D01*
X932501Y590123D01*
X932376Y590060D01*
X932249Y590000D01*
X932121Y589945D01*
X931992Y589893D01*
X931860Y589844D01*
X931728Y589799D01*
X931594Y589758D01*
X931460Y589721D01*
X931324Y589688D01*
X931187Y589659D01*
X931050Y589633D01*
X930912Y589611D01*
X930773Y589594D01*
X930634Y589580D01*
X930494Y589570D01*
X930355Y589564D01*
X930215Y589562D01*
X925276Y589562D01*
X941271Y595489D02*
X946210Y599440D01*
X946210Y581660D01*
X941271Y581660D02*
X951149Y581660D01*
X887800Y488315D02*
X887800Y470535D01*
X887800Y488315D02*
X892739Y488315D01*
X892879Y488313D01*
X893018Y488307D01*
X893158Y488297D01*
X893297Y488283D01*
X893436Y488266D01*
X893574Y488244D01*
X893711Y488218D01*
X893848Y488189D01*
X893984Y488156D01*
X894118Y488119D01*
X894252Y488078D01*
X894384Y488033D01*
X894516Y487984D01*
X894645Y487932D01*
X894773Y487877D01*
X894900Y487817D01*
X895025Y487754D01*
X895148Y487688D01*
X895269Y487618D01*
X895388Y487545D01*
X895505Y487468D01*
X895619Y487388D01*
X895732Y487305D01*
X895842Y487219D01*
X895949Y487129D01*
X896054Y487037D01*
X896156Y486942D01*
X896256Y486844D01*
X896353Y486743D01*
X896447Y486639D01*
X896537Y486533D01*
X896625Y486424D01*
X896710Y486313D01*
X896791Y486199D01*
X896870Y486084D01*
X896945Y485966D01*
X897016Y485846D01*
X897084Y485723D01*
X897149Y485600D01*
X897210Y485474D01*
X897268Y485346D01*
X897322Y485218D01*
X897372Y485087D01*
X897419Y484955D01*
X897462Y484822D01*
X897501Y484688D01*
X897536Y484553D01*
X897567Y484417D01*
X897595Y484279D01*
X897618Y484142D01*
X897638Y484003D01*
X897654Y483864D01*
X897666Y483725D01*
X897674Y483586D01*
X897678Y483446D01*
X897678Y483306D01*
X897674Y483166D01*
X897666Y483027D01*
X897654Y482888D01*
X897638Y482749D01*
X897618Y482610D01*
X897595Y482473D01*
X897567Y482335D01*
X897536Y482199D01*
X897501Y482064D01*
X897462Y481930D01*
X897419Y481797D01*
X897372Y481665D01*
X897322Y481534D01*
X897268Y481406D01*
X897210Y481278D01*
X897149Y481152D01*
X897084Y481029D01*
X897016Y480907D01*
X896945Y480786D01*
X896870Y480668D01*
X896791Y480553D01*
X896710Y480439D01*
X896625Y480328D01*
X896537Y480219D01*
X896447Y480113D01*
X896353Y480009D01*
X896256Y479908D01*
X896156Y479810D01*
X896054Y479715D01*
X895949Y479623D01*
X895842Y479533D01*
X895732Y479447D01*
X895619Y479364D01*
X895505Y479284D01*
X895388Y479207D01*
X895269Y479134D01*
X895148Y479064D01*
X895025Y478998D01*
X894900Y478935D01*
X894773Y478875D01*
X894645Y478820D01*
X894516Y478768D01*
X894384Y478719D01*
X894252Y478674D01*
X894118Y478633D01*
X893984Y478596D01*
X893848Y478563D01*
X893711Y478534D01*
X893574Y478508D01*
X893436Y478486D01*
X893297Y478469D01*
X893158Y478455D01*
X893018Y478445D01*
X892879Y478439D01*
X892739Y478437D01*
X887800Y478437D01*
X909228Y488315D02*
X909360Y488313D01*
X909491Y488307D01*
X909623Y488297D01*
X909754Y488284D01*
X909884Y488266D01*
X910014Y488245D01*
X910144Y488220D01*
X910272Y488191D01*
X910400Y488158D01*
X910526Y488121D01*
X910652Y488081D01*
X910776Y488037D01*
X910899Y487989D01*
X911020Y487938D01*
X911140Y487883D01*
X911258Y487825D01*
X911374Y487763D01*
X911488Y487697D01*
X911601Y487629D01*
X911711Y487557D01*
X911819Y487482D01*
X911925Y487403D01*
X912029Y487322D01*
X912130Y487237D01*
X912228Y487150D01*
X912324Y487059D01*
X912417Y486966D01*
X912508Y486870D01*
X912595Y486772D01*
X912680Y486671D01*
X912761Y486567D01*
X912840Y486461D01*
X912915Y486353D01*
X912987Y486243D01*
X913055Y486130D01*
X913121Y486016D01*
X913183Y485900D01*
X913241Y485782D01*
X913296Y485662D01*
X913347Y485541D01*
X913395Y485418D01*
X913439Y485294D01*
X913479Y485168D01*
X913516Y485042D01*
X913549Y484914D01*
X913578Y484786D01*
X913603Y484656D01*
X913624Y484526D01*
X913642Y484396D01*
X913655Y484265D01*
X913665Y484133D01*
X913671Y484002D01*
X913673Y483870D01*
X909228Y488315D02*
X909078Y488313D01*
X908929Y488307D01*
X908780Y488297D01*
X908631Y488284D01*
X908482Y488266D01*
X908334Y488245D01*
X908186Y488219D01*
X908040Y488190D01*
X907894Y488157D01*
X907749Y488120D01*
X907605Y488079D01*
X907462Y488035D01*
X907320Y487987D01*
X907180Y487935D01*
X907041Y487880D01*
X906903Y487821D01*
X906768Y487758D01*
X906633Y487692D01*
X906501Y487622D01*
X906371Y487549D01*
X906242Y487472D01*
X906115Y487392D01*
X905991Y487309D01*
X905869Y487223D01*
X905749Y487133D01*
X905632Y487040D01*
X905517Y486945D01*
X905404Y486846D01*
X905294Y486744D01*
X905187Y486640D01*
X905083Y486533D01*
X904981Y486423D01*
X904883Y486310D01*
X904787Y486195D01*
X904695Y486077D01*
X904605Y485957D01*
X904519Y485835D01*
X904436Y485711D01*
X904356Y485584D01*
X904280Y485456D01*
X904207Y485325D01*
X904137Y485192D01*
X904071Y485058D01*
X904009Y484922D01*
X903950Y484785D01*
X903894Y484646D01*
X903843Y484505D01*
X903795Y484364D01*
X912190Y480413D02*
X912286Y480506D01*
X912378Y480602D01*
X912468Y480701D01*
X912555Y480802D01*
X912640Y480905D01*
X912721Y481010D01*
X912799Y481118D01*
X912874Y481228D01*
X912947Y481340D01*
X913016Y481454D01*
X913082Y481570D01*
X913144Y481688D01*
X913203Y481807D01*
X913259Y481928D01*
X913312Y482051D01*
X913361Y482175D01*
X913406Y482300D01*
X913449Y482427D01*
X913487Y482554D01*
X913522Y482683D01*
X913553Y482812D01*
X913581Y482943D01*
X913605Y483074D01*
X913626Y483206D01*
X913642Y483338D01*
X913655Y483471D01*
X913665Y483604D01*
X913670Y483737D01*
X913672Y483870D01*
X912191Y480413D02*
X903795Y470535D01*
X913673Y470535D01*
X926042Y477449D02*
X926042Y483376D01*
X926042Y477449D02*
X929500Y473004D01*
X926042Y477449D02*
X922585Y473004D01*
X926042Y477449D02*
X931475Y479425D01*
X926042Y477449D02*
X920610Y479425D01*
D11*
X744875Y661758D02*
X742217Y659897D01*
X744876Y661758D02*
X744967Y661825D01*
X745057Y661894D01*
X745144Y661967D01*
X745228Y662043D01*
X745309Y662122D01*
X745388Y662203D01*
X745464Y662287D01*
X745537Y662374D01*
X745606Y662464D01*
X745673Y662555D01*
X745736Y662649D01*
X745796Y662745D01*
X745853Y662843D01*
X745906Y662943D01*
X745956Y663045D01*
X746002Y663149D01*
X746044Y663254D01*
X746083Y663360D01*
X746118Y663468D01*
X746149Y663577D01*
X746177Y663687D01*
X746200Y663798D01*
X746220Y663909D01*
X746236Y664021D01*
X746248Y664134D01*
X746256Y664247D01*
X746260Y664360D01*
X746260Y664474D01*
X746256Y664587D01*
X746248Y664700D01*
X746236Y664813D01*
X746220Y664925D01*
X746200Y665036D01*
X746177Y665147D01*
X746149Y665257D01*
X746118Y665366D01*
X746083Y665474D01*
X746044Y665580D01*
X746002Y665685D01*
X745956Y665789D01*
X745906Y665891D01*
X745853Y665991D01*
X745796Y666089D01*
X745736Y666185D01*
X745673Y666279D01*
X745606Y666370D01*
X745537Y666460D01*
X745464Y666547D01*
X745388Y666631D01*
X745309Y666712D01*
X745228Y666791D01*
X745144Y666867D01*
X745057Y666940D01*
X744968Y667009D01*
X744876Y667076D01*
X744782Y667139D01*
X744686Y667199D01*
X744588Y667256D01*
X744488Y667309D01*
X744386Y667359D01*
X744282Y667405D01*
X744177Y667447D01*
X744071Y667486D01*
X743963Y667521D01*
X743854Y667552D01*
X743744Y667580D01*
X743633Y667603D01*
X743522Y667623D01*
X743410Y667639D01*
X743297Y667651D01*
X743184Y667659D01*
X743071Y667663D01*
X742957Y667663D01*
X742844Y667659D01*
X742731Y667651D01*
X742618Y667639D01*
X742506Y667623D01*
X742395Y667603D01*
X742284Y667580D01*
X742174Y667552D01*
X742065Y667521D01*
X741957Y667486D01*
X741851Y667447D01*
X741746Y667405D01*
X741642Y667359D01*
X741540Y667309D01*
X741440Y667256D01*
X741342Y667199D01*
X741246Y667139D01*
X741152Y667076D01*
X738705Y671702D02*
X735515Y669468D01*
X738706Y671702D02*
X738790Y671758D01*
X738875Y671811D01*
X738963Y671860D01*
X739052Y671906D01*
X739144Y671949D01*
X739237Y671988D01*
X739331Y672023D01*
X739426Y672055D01*
X739523Y672083D01*
X739621Y672107D01*
X739719Y672127D01*
X739819Y672144D01*
X739919Y672156D01*
X740019Y672165D01*
X740120Y672170D01*
X740220Y672171D01*
X740321Y672168D01*
X740421Y672161D01*
X740521Y672150D01*
X740621Y672136D01*
X740720Y672117D01*
X740818Y672095D01*
X740915Y672069D01*
X741012Y672039D01*
X741107Y672006D01*
X741200Y671969D01*
X741292Y671928D01*
X741383Y671883D01*
X741471Y671836D01*
X741558Y671784D01*
X741642Y671730D01*
X741725Y671672D01*
X741805Y671611D01*
X741883Y671547D01*
X741958Y671480D01*
X742031Y671411D01*
X742100Y671338D01*
X742167Y671263D01*
X742231Y671185D01*
X742292Y671105D01*
X742350Y671022D01*
X742404Y670938D01*
X742456Y670851D01*
X742503Y670763D01*
X742548Y670672D01*
X742589Y670580D01*
X742626Y670486D01*
X742659Y670392D01*
X742689Y670295D01*
X742715Y670198D01*
X742737Y670100D01*
X742756Y670001D01*
X742770Y669901D01*
X742781Y669801D01*
X742788Y669701D01*
X742791Y669600D01*
X742790Y669500D01*
X742785Y669399D01*
X742776Y669299D01*
X742764Y669199D01*
X742747Y669099D01*
X742727Y669001D01*
X742703Y668903D01*
X742675Y668806D01*
X742643Y668711D01*
X742608Y668617D01*
X742569Y668524D01*
X742526Y668432D01*
X742480Y668343D01*
X742431Y668255D01*
X742378Y668170D01*
X742322Y668086D01*
X742262Y668005D01*
X742200Y667926D01*
X742134Y667849D01*
X742066Y667775D01*
X741995Y667704D01*
X741921Y667636D01*
X741844Y667570D01*
X741765Y667508D01*
X741684Y667448D01*
X739557Y665959D01*
X744346Y675652D02*
X754238Y668314D01*
X750727Y680119D01*
X760943Y673009D02*
X763601Y674870D01*
X763602Y674870D02*
X763693Y674937D01*
X763783Y675006D01*
X763870Y675079D01*
X763954Y675155D01*
X764035Y675234D01*
X764114Y675315D01*
X764190Y675399D01*
X764263Y675486D01*
X764332Y675576D01*
X764399Y675667D01*
X764462Y675761D01*
X764522Y675857D01*
X764579Y675955D01*
X764632Y676055D01*
X764682Y676157D01*
X764728Y676261D01*
X764770Y676366D01*
X764809Y676472D01*
X764844Y676580D01*
X764875Y676689D01*
X764903Y676799D01*
X764926Y676910D01*
X764946Y677021D01*
X764962Y677133D01*
X764974Y677246D01*
X764982Y677359D01*
X764986Y677472D01*
X764986Y677586D01*
X764982Y677699D01*
X764974Y677812D01*
X764962Y677925D01*
X764946Y678037D01*
X764926Y678148D01*
X764903Y678259D01*
X764875Y678369D01*
X764844Y678478D01*
X764809Y678586D01*
X764770Y678692D01*
X764728Y678797D01*
X764682Y678901D01*
X764632Y679003D01*
X764579Y679103D01*
X764522Y679201D01*
X764462Y679297D01*
X764399Y679391D01*
X764332Y679482D01*
X764263Y679572D01*
X764190Y679659D01*
X764114Y679743D01*
X764035Y679824D01*
X763954Y679903D01*
X763870Y679979D01*
X763783Y680052D01*
X763694Y680121D01*
X763602Y680188D01*
X763508Y680251D01*
X763412Y680311D01*
X763314Y680368D01*
X763214Y680421D01*
X763112Y680471D01*
X763008Y680517D01*
X762903Y680559D01*
X762797Y680598D01*
X762689Y680633D01*
X762580Y680664D01*
X762470Y680692D01*
X762359Y680715D01*
X762248Y680735D01*
X762136Y680751D01*
X762023Y680763D01*
X761910Y680771D01*
X761797Y680775D01*
X761683Y680775D01*
X761570Y680771D01*
X761457Y680763D01*
X761344Y680751D01*
X761232Y680735D01*
X761121Y680715D01*
X761010Y680692D01*
X760900Y680664D01*
X760791Y680633D01*
X760683Y680598D01*
X760577Y680559D01*
X760472Y680517D01*
X760368Y680471D01*
X760266Y680421D01*
X760166Y680368D01*
X760068Y680311D01*
X759972Y680251D01*
X759878Y680188D01*
X757431Y684814D02*
X754241Y682580D01*
X757431Y684814D02*
X757515Y684870D01*
X757600Y684923D01*
X757688Y684972D01*
X757777Y685018D01*
X757869Y685061D01*
X757962Y685100D01*
X758056Y685135D01*
X758151Y685167D01*
X758248Y685195D01*
X758346Y685219D01*
X758444Y685239D01*
X758544Y685256D01*
X758644Y685268D01*
X758744Y685277D01*
X758845Y685282D01*
X758945Y685283D01*
X759046Y685280D01*
X759146Y685273D01*
X759246Y685262D01*
X759346Y685248D01*
X759445Y685229D01*
X759543Y685207D01*
X759640Y685181D01*
X759737Y685151D01*
X759832Y685118D01*
X759925Y685081D01*
X760017Y685040D01*
X760108Y684995D01*
X760196Y684948D01*
X760283Y684896D01*
X760367Y684842D01*
X760450Y684784D01*
X760530Y684723D01*
X760608Y684659D01*
X760683Y684592D01*
X760756Y684523D01*
X760825Y684450D01*
X760892Y684375D01*
X760956Y684297D01*
X761017Y684217D01*
X761075Y684134D01*
X761129Y684050D01*
X761181Y683963D01*
X761228Y683875D01*
X761273Y683784D01*
X761314Y683692D01*
X761351Y683598D01*
X761384Y683504D01*
X761414Y683407D01*
X761440Y683310D01*
X761462Y683212D01*
X761481Y683113D01*
X761495Y683013D01*
X761506Y682913D01*
X761513Y682813D01*
X761516Y682712D01*
X761515Y682612D01*
X761510Y682511D01*
X761501Y682411D01*
X761489Y682311D01*
X761472Y682211D01*
X761452Y682113D01*
X761428Y682015D01*
X761400Y681918D01*
X761368Y681823D01*
X761333Y681729D01*
X761294Y681636D01*
X761251Y681544D01*
X761205Y681455D01*
X761156Y681367D01*
X761103Y681282D01*
X761047Y681198D01*
X760987Y681117D01*
X760925Y681038D01*
X760859Y680961D01*
X760791Y680887D01*
X760720Y680816D01*
X760646Y680748D01*
X760569Y680682D01*
X760490Y680620D01*
X760409Y680560D01*
X760410Y680560D02*
X758283Y679071D01*
D12*
X828548Y581025D02*
X835152Y581025D01*
D13*
X853679Y578834D02*
X855316Y578834D01*
X853679Y578834D02*
X853601Y578836D01*
X853523Y578841D01*
X853446Y578851D01*
X853369Y578864D01*
X853293Y578880D01*
X853218Y578900D01*
X853144Y578924D01*
X853071Y578951D01*
X852999Y578982D01*
X852929Y579016D01*
X852861Y579053D01*
X852794Y579094D01*
X852729Y579138D01*
X852667Y579184D01*
X852607Y579234D01*
X852549Y579286D01*
X852494Y579341D01*
X852442Y579399D01*
X852392Y579459D01*
X852346Y579521D01*
X852302Y579586D01*
X852261Y579653D01*
X852224Y579721D01*
X852190Y579791D01*
X852159Y579863D01*
X852132Y579936D01*
X852108Y580010D01*
X852088Y580085D01*
X852072Y580161D01*
X852059Y580238D01*
X852049Y580315D01*
X852044Y580393D01*
X852042Y580471D01*
X852043Y580471D02*
X852043Y584563D01*
X852042Y584563D02*
X852044Y584643D01*
X852050Y584723D01*
X852060Y584803D01*
X852073Y584882D01*
X852091Y584961D01*
X852112Y585038D01*
X852138Y585114D01*
X852167Y585189D01*
X852199Y585263D01*
X852235Y585335D01*
X852275Y585405D01*
X852318Y585472D01*
X852364Y585538D01*
X852414Y585601D01*
X852466Y585662D01*
X852521Y585721D01*
X852580Y585776D01*
X852640Y585828D01*
X852704Y585878D01*
X852770Y585924D01*
X852837Y585967D01*
X852907Y586007D01*
X852979Y586043D01*
X853053Y586075D01*
X853127Y586104D01*
X853204Y586130D01*
X853281Y586151D01*
X853360Y586169D01*
X853439Y586182D01*
X853519Y586192D01*
X853599Y586198D01*
X853679Y586200D01*
X855316Y586200D01*
X858162Y584563D02*
X860208Y586200D01*
X860208Y578834D01*
X858162Y578834D02*
X862254Y578834D01*
X865477Y582517D02*
X865479Y582670D01*
X865485Y582823D01*
X865494Y582975D01*
X865508Y583128D01*
X865525Y583280D01*
X865546Y583431D01*
X865571Y583582D01*
X865600Y583732D01*
X865632Y583882D01*
X865669Y584030D01*
X865709Y584178D01*
X865752Y584325D01*
X865800Y584470D01*
X865851Y584614D01*
X865905Y584757D01*
X865964Y584899D01*
X866025Y585038D01*
X866091Y585177D01*
X866117Y585247D01*
X866147Y585317D01*
X866180Y585384D01*
X866216Y585450D01*
X866255Y585514D01*
X866298Y585576D01*
X866344Y585635D01*
X866392Y585693D01*
X866443Y585747D01*
X866497Y585800D01*
X866554Y585849D01*
X866613Y585896D01*
X866674Y585939D01*
X866737Y585980D01*
X866802Y586017D01*
X866869Y586052D01*
X866938Y586082D01*
X867008Y586110D01*
X867079Y586133D01*
X867151Y586154D01*
X867224Y586170D01*
X867298Y586183D01*
X867373Y586193D01*
X867448Y586198D01*
X867523Y586200D01*
X867598Y586198D01*
X867673Y586193D01*
X867748Y586183D01*
X867822Y586170D01*
X867895Y586154D01*
X867967Y586133D01*
X868038Y586110D01*
X868108Y586082D01*
X868177Y586052D01*
X868244Y586017D01*
X868309Y585980D01*
X868372Y585939D01*
X868433Y585896D01*
X868492Y585849D01*
X868549Y585800D01*
X868603Y585747D01*
X868654Y585693D01*
X868703Y585635D01*
X868748Y585576D01*
X868791Y585514D01*
X868830Y585450D01*
X868867Y585384D01*
X868899Y585316D01*
X868929Y585247D01*
X868955Y585177D01*
X869020Y585039D01*
X869082Y584899D01*
X869140Y584757D01*
X869195Y584614D01*
X869246Y584470D01*
X869294Y584325D01*
X869337Y584178D01*
X869377Y584031D01*
X869414Y583882D01*
X869446Y583732D01*
X869475Y583582D01*
X869500Y583431D01*
X869521Y583280D01*
X869538Y583128D01*
X869552Y582975D01*
X869561Y582823D01*
X869567Y582670D01*
X869569Y582517D01*
X865476Y582517D02*
X865478Y582364D01*
X865484Y582211D01*
X865493Y582058D01*
X865507Y581906D01*
X865524Y581754D01*
X865545Y581603D01*
X865570Y581452D01*
X865599Y581301D01*
X865631Y581152D01*
X865668Y581003D01*
X865708Y580856D01*
X865751Y580709D01*
X865799Y580564D01*
X865850Y580419D01*
X865905Y580277D01*
X865963Y580135D01*
X866025Y579995D01*
X866090Y579857D01*
X866091Y579857D02*
X866117Y579786D01*
X866147Y579717D01*
X866180Y579650D01*
X866216Y579584D01*
X866255Y579520D01*
X866298Y579458D01*
X866344Y579399D01*
X866392Y579341D01*
X866443Y579287D01*
X866497Y579234D01*
X866554Y579185D01*
X866613Y579138D01*
X866674Y579095D01*
X866737Y579054D01*
X866802Y579017D01*
X866869Y578982D01*
X866938Y578952D01*
X867008Y578924D01*
X867079Y578901D01*
X867151Y578880D01*
X867224Y578864D01*
X867298Y578851D01*
X867373Y578841D01*
X867448Y578836D01*
X867523Y578834D01*
X868955Y579857D02*
X869020Y579995D01*
X869082Y580135D01*
X869140Y580277D01*
X869195Y580420D01*
X869246Y580564D01*
X869294Y580709D01*
X869337Y580856D01*
X869377Y581004D01*
X869414Y581152D01*
X869446Y581302D01*
X869475Y581452D01*
X869500Y581603D01*
X869521Y581754D01*
X869538Y581906D01*
X869552Y582059D01*
X869561Y582211D01*
X869567Y582364D01*
X869569Y582517D01*
X868955Y579857D02*
X868929Y579787D01*
X868899Y579717D01*
X868867Y579650D01*
X868830Y579584D01*
X868791Y579520D01*
X868748Y579458D01*
X868702Y579399D01*
X868654Y579341D01*
X868603Y579287D01*
X868549Y579234D01*
X868492Y579185D01*
X868433Y579138D01*
X868372Y579095D01*
X868309Y579054D01*
X868244Y579017D01*
X868177Y578982D01*
X868108Y578952D01*
X868038Y578924D01*
X867967Y578901D01*
X867895Y578880D01*
X867822Y578864D01*
X867748Y578851D01*
X867673Y578841D01*
X867598Y578836D01*
X867523Y578834D01*
X865886Y580471D02*
X869160Y584563D01*
D12*
X857377Y525463D02*
X850773Y525463D01*
D13*
X850676Y534781D02*
X852313Y534781D01*
X850676Y534781D02*
X850598Y534783D01*
X850520Y534788D01*
X850443Y534798D01*
X850366Y534811D01*
X850290Y534827D01*
X850215Y534847D01*
X850141Y534871D01*
X850068Y534898D01*
X849996Y534929D01*
X849926Y534963D01*
X849858Y535000D01*
X849791Y535041D01*
X849726Y535085D01*
X849664Y535131D01*
X849604Y535181D01*
X849546Y535233D01*
X849491Y535288D01*
X849439Y535346D01*
X849389Y535406D01*
X849343Y535468D01*
X849299Y535533D01*
X849258Y535600D01*
X849221Y535668D01*
X849187Y535738D01*
X849156Y535810D01*
X849129Y535883D01*
X849105Y535957D01*
X849085Y536032D01*
X849069Y536108D01*
X849056Y536185D01*
X849046Y536262D01*
X849041Y536340D01*
X849039Y536418D01*
X849039Y540510D01*
X849041Y540590D01*
X849047Y540670D01*
X849057Y540750D01*
X849070Y540829D01*
X849088Y540908D01*
X849109Y540985D01*
X849135Y541061D01*
X849164Y541136D01*
X849196Y541210D01*
X849232Y541282D01*
X849272Y541352D01*
X849315Y541419D01*
X849361Y541485D01*
X849411Y541548D01*
X849463Y541609D01*
X849518Y541668D01*
X849577Y541723D01*
X849637Y541775D01*
X849701Y541825D01*
X849767Y541871D01*
X849834Y541914D01*
X849904Y541954D01*
X849976Y541990D01*
X850050Y542022D01*
X850124Y542051D01*
X850201Y542077D01*
X850278Y542098D01*
X850357Y542116D01*
X850436Y542129D01*
X850516Y542139D01*
X850596Y542145D01*
X850676Y542147D01*
X852313Y542147D01*
X855158Y536827D02*
X855160Y536916D01*
X855166Y537005D01*
X855176Y537094D01*
X855189Y537182D01*
X855206Y537270D01*
X855228Y537357D01*
X855253Y537442D01*
X855281Y537527D01*
X855314Y537610D01*
X855350Y537692D01*
X855389Y537772D01*
X855432Y537850D01*
X855478Y537926D01*
X855528Y538001D01*
X855581Y538073D01*
X855637Y538142D01*
X855696Y538209D01*
X855757Y538274D01*
X855822Y538335D01*
X855889Y538394D01*
X855958Y538450D01*
X856030Y538503D01*
X856105Y538553D01*
X856181Y538599D01*
X856259Y538642D01*
X856339Y538681D01*
X856421Y538717D01*
X856504Y538750D01*
X856589Y538778D01*
X856674Y538803D01*
X856761Y538825D01*
X856849Y538842D01*
X856937Y538855D01*
X857026Y538865D01*
X857115Y538871D01*
X857204Y538873D01*
X857293Y538871D01*
X857382Y538865D01*
X857471Y538855D01*
X857559Y538842D01*
X857647Y538825D01*
X857734Y538803D01*
X857819Y538778D01*
X857904Y538750D01*
X857987Y538717D01*
X858069Y538681D01*
X858149Y538642D01*
X858227Y538599D01*
X858303Y538553D01*
X858378Y538503D01*
X858450Y538450D01*
X858519Y538394D01*
X858586Y538335D01*
X858651Y538274D01*
X858712Y538209D01*
X858771Y538142D01*
X858827Y538073D01*
X858880Y538001D01*
X858930Y537926D01*
X858976Y537850D01*
X859019Y537772D01*
X859058Y537692D01*
X859094Y537610D01*
X859127Y537527D01*
X859155Y537442D01*
X859180Y537357D01*
X859202Y537270D01*
X859219Y537182D01*
X859232Y537094D01*
X859242Y537005D01*
X859248Y536916D01*
X859250Y536827D01*
X859248Y536738D01*
X859242Y536649D01*
X859232Y536560D01*
X859219Y536472D01*
X859202Y536384D01*
X859180Y536297D01*
X859155Y536212D01*
X859127Y536127D01*
X859094Y536044D01*
X859058Y535962D01*
X859019Y535882D01*
X858976Y535804D01*
X858930Y535728D01*
X858880Y535653D01*
X858827Y535581D01*
X858771Y535512D01*
X858712Y535445D01*
X858651Y535380D01*
X858586Y535319D01*
X858519Y535260D01*
X858450Y535204D01*
X858378Y535151D01*
X858303Y535101D01*
X858227Y535055D01*
X858149Y535012D01*
X858069Y534973D01*
X857987Y534937D01*
X857904Y534904D01*
X857819Y534876D01*
X857734Y534851D01*
X857647Y534829D01*
X857559Y534812D01*
X857471Y534799D01*
X857382Y534789D01*
X857293Y534783D01*
X857204Y534781D01*
X857115Y534783D01*
X857026Y534789D01*
X856937Y534799D01*
X856849Y534812D01*
X856761Y534829D01*
X856674Y534851D01*
X856589Y534876D01*
X856504Y534904D01*
X856421Y534937D01*
X856339Y534973D01*
X856259Y535012D01*
X856181Y535055D01*
X856105Y535101D01*
X856030Y535151D01*
X855958Y535204D01*
X855889Y535260D01*
X855822Y535319D01*
X855757Y535380D01*
X855696Y535445D01*
X855637Y535512D01*
X855581Y535581D01*
X855528Y535653D01*
X855478Y535728D01*
X855432Y535804D01*
X855389Y535882D01*
X855350Y535962D01*
X855314Y536044D01*
X855281Y536127D01*
X855253Y536212D01*
X855228Y536297D01*
X855206Y536384D01*
X855189Y536472D01*
X855176Y536560D01*
X855166Y536649D01*
X855160Y536738D01*
X855158Y536827D01*
X855567Y540510D02*
X855569Y540589D01*
X855575Y540668D01*
X855584Y540747D01*
X855597Y540825D01*
X855615Y540902D01*
X855635Y540978D01*
X855660Y541053D01*
X855688Y541127D01*
X855719Y541200D01*
X855755Y541271D01*
X855793Y541340D01*
X855835Y541407D01*
X855880Y541472D01*
X855928Y541535D01*
X855979Y541596D01*
X856033Y541653D01*
X856089Y541709D01*
X856148Y541761D01*
X856210Y541811D01*
X856274Y541857D01*
X856340Y541901D01*
X856408Y541941D01*
X856478Y541977D01*
X856550Y542011D01*
X856624Y542041D01*
X856698Y542067D01*
X856774Y542090D01*
X856851Y542108D01*
X856928Y542124D01*
X857007Y542135D01*
X857085Y542143D01*
X857164Y542147D01*
X857244Y542147D01*
X857323Y542143D01*
X857401Y542135D01*
X857480Y542124D01*
X857557Y542108D01*
X857634Y542090D01*
X857710Y542067D01*
X857784Y542041D01*
X857858Y542011D01*
X857930Y541977D01*
X858000Y541941D01*
X858068Y541901D01*
X858134Y541857D01*
X858198Y541811D01*
X858260Y541761D01*
X858319Y541709D01*
X858375Y541653D01*
X858429Y541596D01*
X858480Y541535D01*
X858528Y541472D01*
X858573Y541407D01*
X858615Y541340D01*
X858653Y541271D01*
X858689Y541200D01*
X858720Y541127D01*
X858748Y541053D01*
X858773Y540978D01*
X858793Y540902D01*
X858811Y540825D01*
X858824Y540747D01*
X858833Y540668D01*
X858839Y540589D01*
X858841Y540510D01*
X858839Y540431D01*
X858833Y540352D01*
X858824Y540273D01*
X858811Y540195D01*
X858793Y540118D01*
X858773Y540042D01*
X858748Y539967D01*
X858720Y539893D01*
X858689Y539820D01*
X858653Y539749D01*
X858615Y539680D01*
X858573Y539613D01*
X858528Y539548D01*
X858480Y539485D01*
X858429Y539424D01*
X858375Y539367D01*
X858319Y539311D01*
X858260Y539259D01*
X858198Y539209D01*
X858134Y539163D01*
X858068Y539119D01*
X858000Y539079D01*
X857930Y539043D01*
X857858Y539009D01*
X857784Y538979D01*
X857710Y538953D01*
X857634Y538930D01*
X857557Y538912D01*
X857480Y538896D01*
X857401Y538885D01*
X857323Y538877D01*
X857244Y538873D01*
X857164Y538873D01*
X857085Y538877D01*
X857007Y538885D01*
X856928Y538896D01*
X856851Y538912D01*
X856774Y538930D01*
X856698Y538953D01*
X856624Y538979D01*
X856550Y539009D01*
X856478Y539043D01*
X856408Y539079D01*
X856340Y539119D01*
X856274Y539163D01*
X856210Y539209D01*
X856148Y539259D01*
X856089Y539311D01*
X856033Y539367D01*
X855979Y539424D01*
X855928Y539485D01*
X855880Y539548D01*
X855835Y539613D01*
X855793Y539680D01*
X855755Y539749D01*
X855719Y539820D01*
X855688Y539893D01*
X855660Y539967D01*
X855635Y540042D01*
X855615Y540118D01*
X855597Y540195D01*
X855584Y540273D01*
X855575Y540352D01*
X855569Y540431D01*
X855567Y540510D01*
D10*
X811695Y583552D02*
X811695Y603682D01*
D12*
X828548Y593725D02*
X835152Y593725D01*
D13*
X853712Y590931D02*
X855349Y590931D01*
X853712Y590931D02*
X853634Y590933D01*
X853556Y590938D01*
X853479Y590948D01*
X853402Y590961D01*
X853326Y590977D01*
X853251Y590997D01*
X853177Y591021D01*
X853104Y591048D01*
X853032Y591079D01*
X852962Y591113D01*
X852894Y591150D01*
X852827Y591191D01*
X852762Y591235D01*
X852700Y591281D01*
X852640Y591331D01*
X852582Y591383D01*
X852527Y591438D01*
X852475Y591496D01*
X852425Y591556D01*
X852379Y591618D01*
X852335Y591683D01*
X852294Y591750D01*
X852257Y591818D01*
X852223Y591888D01*
X852192Y591960D01*
X852165Y592033D01*
X852141Y592107D01*
X852121Y592182D01*
X852105Y592258D01*
X852092Y592335D01*
X852082Y592412D01*
X852077Y592490D01*
X852075Y592568D01*
X852075Y596660D01*
X852077Y596740D01*
X852083Y596820D01*
X852093Y596900D01*
X852106Y596979D01*
X852124Y597058D01*
X852145Y597135D01*
X852171Y597211D01*
X852200Y597286D01*
X852232Y597360D01*
X852268Y597432D01*
X852308Y597502D01*
X852351Y597569D01*
X852397Y597635D01*
X852447Y597698D01*
X852499Y597759D01*
X852554Y597818D01*
X852613Y597873D01*
X852673Y597925D01*
X852737Y597975D01*
X852803Y598021D01*
X852870Y598064D01*
X852940Y598104D01*
X853012Y598140D01*
X853086Y598172D01*
X853160Y598201D01*
X853237Y598227D01*
X853314Y598248D01*
X853393Y598266D01*
X853472Y598279D01*
X853552Y598289D01*
X853632Y598295D01*
X853712Y598297D01*
X855349Y598297D01*
X858194Y596660D02*
X860240Y598297D01*
X860240Y590931D01*
X858194Y590931D02*
X862286Y590931D01*
X865509Y596660D02*
X867555Y598297D01*
X867555Y590931D01*
X865509Y590931D02*
X869601Y590931D01*
D14*
X819825Y627063D02*
X819825Y629563D01*
X819825Y627063D02*
X819825Y624563D01*
X819825Y627063D02*
X824825Y629563D01*
X824825Y624563D02*
X819825Y627063D01*
X824825Y624563D02*
X824825Y629563D01*
D13*
X818581Y635697D02*
X818581Y643063D01*
X820627Y643063D01*
X820716Y643061D01*
X820805Y643055D01*
X820894Y643045D01*
X820982Y643032D01*
X821070Y643015D01*
X821157Y642993D01*
X821242Y642968D01*
X821327Y642940D01*
X821410Y642907D01*
X821492Y642871D01*
X821572Y642832D01*
X821650Y642789D01*
X821726Y642743D01*
X821801Y642693D01*
X821873Y642640D01*
X821942Y642584D01*
X822009Y642525D01*
X822074Y642464D01*
X822135Y642399D01*
X822194Y642332D01*
X822250Y642263D01*
X822303Y642191D01*
X822353Y642116D01*
X822399Y642040D01*
X822442Y641962D01*
X822481Y641882D01*
X822517Y641800D01*
X822550Y641717D01*
X822578Y641632D01*
X822603Y641547D01*
X822625Y641460D01*
X822642Y641372D01*
X822655Y641284D01*
X822665Y641195D01*
X822671Y641106D01*
X822673Y641017D01*
X822673Y637743D01*
X822671Y637654D01*
X822665Y637565D01*
X822655Y637476D01*
X822642Y637388D01*
X822625Y637300D01*
X822603Y637213D01*
X822578Y637128D01*
X822550Y637043D01*
X822517Y636960D01*
X822481Y636878D01*
X822442Y636798D01*
X822399Y636720D01*
X822353Y636644D01*
X822303Y636569D01*
X822250Y636497D01*
X822194Y636428D01*
X822135Y636361D01*
X822074Y636296D01*
X822009Y636235D01*
X821942Y636176D01*
X821873Y636120D01*
X821801Y636067D01*
X821726Y636017D01*
X821650Y635971D01*
X821572Y635928D01*
X821492Y635889D01*
X821410Y635853D01*
X821327Y635820D01*
X821242Y635792D01*
X821157Y635767D01*
X821070Y635745D01*
X820982Y635728D01*
X820894Y635715D01*
X820805Y635705D01*
X820716Y635699D01*
X820627Y635697D01*
X818581Y635697D01*
X826140Y641426D02*
X828186Y643063D01*
X828186Y635697D01*
X826140Y635697D02*
X830232Y635697D01*
D10*
X919163Y558800D02*
X931863Y558800D01*
X938213Y552450D01*
X938213Y539750D01*
X931863Y533400D01*
X912813Y539750D02*
X912813Y552450D01*
X919163Y558800D01*
X912813Y539750D02*
X919163Y533400D01*
X931863Y533400D01*
X898922Y537766D02*
X898922Y554022D01*
X903437Y554022D01*
X903570Y554020D01*
X903702Y554014D01*
X903834Y554004D01*
X903966Y553991D01*
X904098Y553973D01*
X904228Y553952D01*
X904359Y553927D01*
X904488Y553898D01*
X904616Y553865D01*
X904744Y553829D01*
X904870Y553789D01*
X904995Y553745D01*
X905119Y553697D01*
X905241Y553646D01*
X905362Y553591D01*
X905481Y553533D01*
X905599Y553471D01*
X905714Y553406D01*
X905828Y553337D01*
X905939Y553266D01*
X906048Y553190D01*
X906155Y553112D01*
X906260Y553031D01*
X906362Y552946D01*
X906462Y552859D01*
X906559Y552769D01*
X906654Y552676D01*
X906745Y552580D01*
X906834Y552482D01*
X906920Y552381D01*
X907003Y552277D01*
X907083Y552171D01*
X907159Y552063D01*
X907233Y551953D01*
X907303Y551840D01*
X907370Y551726D01*
X907433Y551609D01*
X907493Y551491D01*
X907550Y551371D01*
X907603Y551249D01*
X907652Y551126D01*
X907698Y551002D01*
X907740Y550876D01*
X907778Y550749D01*
X907813Y550621D01*
X907844Y550492D01*
X907871Y550363D01*
X907894Y550232D01*
X907914Y550101D01*
X907929Y549969D01*
X907941Y549837D01*
X907949Y549705D01*
X907953Y549572D01*
X907953Y549440D01*
X907949Y549307D01*
X907941Y549175D01*
X907929Y549043D01*
X907914Y548911D01*
X907894Y548780D01*
X907871Y548649D01*
X907844Y548520D01*
X907813Y548391D01*
X907778Y548263D01*
X907740Y548136D01*
X907698Y548010D01*
X907652Y547886D01*
X907603Y547763D01*
X907550Y547641D01*
X907493Y547521D01*
X907433Y547403D01*
X907370Y547286D01*
X907303Y547172D01*
X907233Y547059D01*
X907159Y546949D01*
X907083Y546841D01*
X907003Y546735D01*
X906920Y546631D01*
X906834Y546530D01*
X906745Y546432D01*
X906654Y546336D01*
X906559Y546243D01*
X906462Y546153D01*
X906362Y546066D01*
X906260Y545981D01*
X906155Y545900D01*
X906048Y545822D01*
X905939Y545746D01*
X905828Y545675D01*
X905714Y545606D01*
X905599Y545541D01*
X905481Y545479D01*
X905362Y545421D01*
X905241Y545366D01*
X905119Y545315D01*
X904995Y545267D01*
X904870Y545223D01*
X904744Y545183D01*
X904616Y545147D01*
X904488Y545114D01*
X904359Y545085D01*
X904228Y545060D01*
X904098Y545039D01*
X903966Y545021D01*
X903834Y545008D01*
X903702Y544998D01*
X903570Y544992D01*
X903437Y544990D01*
X903437Y544991D02*
X898922Y544991D01*
X904341Y544991D02*
X907953Y537766D01*
X765175Y627063D02*
X765175Y639763D01*
X765175Y627063D02*
X758825Y620713D01*
X746125Y620713D01*
X739775Y627063D01*
X758825Y620713D02*
X765175Y614363D01*
X765175Y601663D01*
X758825Y595313D01*
X746125Y595313D01*
X739775Y601663D01*
X739775Y614363D01*
X746125Y620713D01*
X746125Y646113D02*
X758825Y646113D01*
X765175Y639763D01*
X746125Y646113D02*
X739775Y639763D01*
X739775Y627063D01*
X758825Y595313D02*
X765175Y588963D01*
X765175Y576263D01*
X758825Y569913D01*
X746125Y569913D01*
X739775Y576263D01*
X739775Y588963D01*
X746125Y595313D01*
D12*
X842963Y493586D02*
X842963Y487236D01*
D13*
X839772Y461338D02*
X847138Y461338D01*
X839772Y461338D02*
X839772Y463384D01*
X839774Y463473D01*
X839780Y463562D01*
X839790Y463651D01*
X839803Y463739D01*
X839820Y463827D01*
X839842Y463914D01*
X839867Y463999D01*
X839895Y464084D01*
X839928Y464167D01*
X839964Y464249D01*
X840003Y464329D01*
X840046Y464407D01*
X840092Y464483D01*
X840142Y464558D01*
X840195Y464630D01*
X840251Y464699D01*
X840310Y464766D01*
X840371Y464831D01*
X840436Y464892D01*
X840503Y464951D01*
X840572Y465007D01*
X840644Y465060D01*
X840719Y465110D01*
X840795Y465156D01*
X840873Y465199D01*
X840953Y465238D01*
X841035Y465274D01*
X841118Y465307D01*
X841203Y465335D01*
X841288Y465360D01*
X841375Y465382D01*
X841463Y465399D01*
X841551Y465412D01*
X841640Y465422D01*
X841729Y465428D01*
X841818Y465430D01*
X841907Y465428D01*
X841996Y465422D01*
X842085Y465412D01*
X842173Y465399D01*
X842261Y465382D01*
X842348Y465360D01*
X842433Y465335D01*
X842518Y465307D01*
X842601Y465274D01*
X842683Y465238D01*
X842763Y465199D01*
X842841Y465156D01*
X842917Y465110D01*
X842992Y465060D01*
X843064Y465007D01*
X843133Y464951D01*
X843200Y464892D01*
X843265Y464831D01*
X843326Y464766D01*
X843385Y464699D01*
X843441Y464630D01*
X843494Y464558D01*
X843544Y464483D01*
X843590Y464407D01*
X843633Y464329D01*
X843672Y464249D01*
X843708Y464167D01*
X843741Y464084D01*
X843769Y463999D01*
X843794Y463914D01*
X843816Y463827D01*
X843833Y463739D01*
X843846Y463651D01*
X843856Y463562D01*
X843862Y463473D01*
X843864Y463384D01*
X843864Y461338D01*
X843864Y463793D02*
X847138Y465430D01*
X845092Y468602D02*
X845003Y468604D01*
X844914Y468610D01*
X844825Y468620D01*
X844737Y468633D01*
X844649Y468650D01*
X844562Y468672D01*
X844477Y468697D01*
X844392Y468725D01*
X844309Y468758D01*
X844227Y468794D01*
X844147Y468833D01*
X844069Y468876D01*
X843993Y468922D01*
X843918Y468972D01*
X843846Y469025D01*
X843777Y469081D01*
X843710Y469140D01*
X843645Y469201D01*
X843584Y469266D01*
X843525Y469333D01*
X843469Y469402D01*
X843416Y469474D01*
X843366Y469549D01*
X843320Y469625D01*
X843277Y469703D01*
X843238Y469783D01*
X843202Y469865D01*
X843169Y469948D01*
X843141Y470033D01*
X843116Y470118D01*
X843094Y470205D01*
X843077Y470293D01*
X843064Y470381D01*
X843054Y470470D01*
X843048Y470559D01*
X843046Y470648D01*
X843048Y470737D01*
X843054Y470826D01*
X843064Y470915D01*
X843077Y471003D01*
X843094Y471091D01*
X843116Y471178D01*
X843141Y471263D01*
X843169Y471348D01*
X843202Y471431D01*
X843238Y471513D01*
X843277Y471593D01*
X843320Y471671D01*
X843366Y471747D01*
X843416Y471822D01*
X843469Y471894D01*
X843525Y471963D01*
X843584Y472030D01*
X843645Y472095D01*
X843710Y472156D01*
X843777Y472215D01*
X843846Y472271D01*
X843918Y472324D01*
X843993Y472374D01*
X844069Y472420D01*
X844147Y472463D01*
X844227Y472502D01*
X844309Y472538D01*
X844392Y472571D01*
X844477Y472599D01*
X844562Y472624D01*
X844649Y472646D01*
X844737Y472663D01*
X844825Y472676D01*
X844914Y472686D01*
X845003Y472692D01*
X845092Y472694D01*
X845181Y472692D01*
X845270Y472686D01*
X845359Y472676D01*
X845447Y472663D01*
X845535Y472646D01*
X845622Y472624D01*
X845707Y472599D01*
X845792Y472571D01*
X845875Y472538D01*
X845957Y472502D01*
X846037Y472463D01*
X846115Y472420D01*
X846191Y472374D01*
X846266Y472324D01*
X846338Y472271D01*
X846407Y472215D01*
X846474Y472156D01*
X846539Y472095D01*
X846600Y472030D01*
X846659Y471963D01*
X846715Y471894D01*
X846768Y471822D01*
X846818Y471747D01*
X846864Y471671D01*
X846907Y471593D01*
X846946Y471513D01*
X846982Y471431D01*
X847015Y471348D01*
X847043Y471263D01*
X847068Y471178D01*
X847090Y471091D01*
X847107Y471003D01*
X847120Y470915D01*
X847130Y470826D01*
X847136Y470737D01*
X847138Y470648D01*
X847136Y470559D01*
X847130Y470470D01*
X847120Y470381D01*
X847107Y470293D01*
X847090Y470205D01*
X847068Y470118D01*
X847043Y470033D01*
X847015Y469948D01*
X846982Y469865D01*
X846946Y469783D01*
X846907Y469703D01*
X846864Y469625D01*
X846818Y469549D01*
X846768Y469474D01*
X846715Y469402D01*
X846659Y469333D01*
X846600Y469266D01*
X846539Y469201D01*
X846474Y469140D01*
X846407Y469081D01*
X846338Y469025D01*
X846266Y468972D01*
X846191Y468922D01*
X846115Y468876D01*
X846037Y468833D01*
X845957Y468794D01*
X845875Y468758D01*
X845792Y468725D01*
X845707Y468697D01*
X845622Y468672D01*
X845535Y468650D01*
X845447Y468633D01*
X845359Y468620D01*
X845270Y468610D01*
X845181Y468604D01*
X845092Y468602D01*
X841409Y469011D02*
X841330Y469013D01*
X841251Y469019D01*
X841172Y469028D01*
X841094Y469041D01*
X841017Y469059D01*
X840941Y469079D01*
X840866Y469104D01*
X840792Y469132D01*
X840719Y469163D01*
X840648Y469199D01*
X840579Y469237D01*
X840512Y469279D01*
X840447Y469324D01*
X840384Y469372D01*
X840323Y469423D01*
X840266Y469477D01*
X840210Y469533D01*
X840158Y469592D01*
X840108Y469654D01*
X840062Y469718D01*
X840018Y469784D01*
X839978Y469852D01*
X839942Y469922D01*
X839908Y469994D01*
X839878Y470068D01*
X839852Y470142D01*
X839829Y470218D01*
X839811Y470295D01*
X839795Y470372D01*
X839784Y470451D01*
X839776Y470529D01*
X839772Y470608D01*
X839772Y470688D01*
X839776Y470767D01*
X839784Y470845D01*
X839795Y470924D01*
X839811Y471001D01*
X839829Y471078D01*
X839852Y471154D01*
X839878Y471228D01*
X839908Y471302D01*
X839942Y471374D01*
X839978Y471444D01*
X840018Y471512D01*
X840062Y471578D01*
X840108Y471642D01*
X840158Y471704D01*
X840210Y471763D01*
X840266Y471819D01*
X840323Y471873D01*
X840384Y471924D01*
X840447Y471972D01*
X840512Y472017D01*
X840579Y472059D01*
X840648Y472097D01*
X840719Y472133D01*
X840792Y472164D01*
X840866Y472192D01*
X840941Y472217D01*
X841017Y472237D01*
X841094Y472255D01*
X841172Y472268D01*
X841251Y472277D01*
X841330Y472283D01*
X841409Y472285D01*
X841488Y472283D01*
X841567Y472277D01*
X841646Y472268D01*
X841724Y472255D01*
X841801Y472237D01*
X841877Y472217D01*
X841952Y472192D01*
X842026Y472164D01*
X842099Y472133D01*
X842170Y472097D01*
X842239Y472059D01*
X842306Y472017D01*
X842371Y471972D01*
X842434Y471924D01*
X842495Y471873D01*
X842552Y471819D01*
X842608Y471763D01*
X842660Y471704D01*
X842710Y471642D01*
X842756Y471578D01*
X842800Y471512D01*
X842840Y471444D01*
X842876Y471374D01*
X842910Y471302D01*
X842940Y471228D01*
X842966Y471154D01*
X842989Y471078D01*
X843007Y471001D01*
X843023Y470924D01*
X843034Y470845D01*
X843042Y470767D01*
X843046Y470688D01*
X843046Y470608D01*
X843042Y470529D01*
X843034Y470451D01*
X843023Y470372D01*
X843007Y470295D01*
X842989Y470218D01*
X842966Y470142D01*
X842940Y470068D01*
X842910Y469994D01*
X842876Y469922D01*
X842840Y469852D01*
X842800Y469784D01*
X842756Y469718D01*
X842710Y469654D01*
X842660Y469592D01*
X842608Y469533D01*
X842552Y469477D01*
X842495Y469423D01*
X842434Y469372D01*
X842371Y469324D01*
X842306Y469279D01*
X842239Y469237D01*
X842170Y469199D01*
X842099Y469163D01*
X842026Y469132D01*
X841952Y469104D01*
X841877Y469079D01*
X841801Y469059D01*
X841724Y469041D01*
X841646Y469028D01*
X841567Y469019D01*
X841488Y469013D01*
X841409Y469011D01*
D12*
X798513Y487236D02*
X798513Y493586D01*
D13*
X794925Y462132D02*
X802291Y462132D01*
X794925Y462132D02*
X794925Y464178D01*
X794927Y464267D01*
X794933Y464356D01*
X794943Y464445D01*
X794956Y464533D01*
X794973Y464621D01*
X794995Y464708D01*
X795020Y464793D01*
X795048Y464878D01*
X795081Y464961D01*
X795117Y465043D01*
X795156Y465123D01*
X795199Y465201D01*
X795245Y465277D01*
X795295Y465352D01*
X795348Y465424D01*
X795404Y465493D01*
X795463Y465560D01*
X795524Y465625D01*
X795589Y465686D01*
X795656Y465745D01*
X795725Y465801D01*
X795797Y465854D01*
X795872Y465904D01*
X795948Y465950D01*
X796026Y465993D01*
X796106Y466032D01*
X796188Y466068D01*
X796271Y466101D01*
X796356Y466129D01*
X796441Y466154D01*
X796528Y466176D01*
X796616Y466193D01*
X796704Y466206D01*
X796793Y466216D01*
X796882Y466222D01*
X796971Y466224D01*
X797060Y466222D01*
X797149Y466216D01*
X797238Y466206D01*
X797326Y466193D01*
X797414Y466176D01*
X797501Y466154D01*
X797586Y466129D01*
X797671Y466101D01*
X797754Y466068D01*
X797836Y466032D01*
X797916Y465993D01*
X797994Y465950D01*
X798070Y465904D01*
X798145Y465854D01*
X798217Y465801D01*
X798286Y465745D01*
X798353Y465686D01*
X798418Y465625D01*
X798479Y465560D01*
X798538Y465493D01*
X798594Y465424D01*
X798647Y465352D01*
X798697Y465277D01*
X798743Y465201D01*
X798786Y465123D01*
X798825Y465043D01*
X798861Y464961D01*
X798894Y464878D01*
X798922Y464793D01*
X798947Y464708D01*
X798969Y464621D01*
X798986Y464533D01*
X798999Y464445D01*
X799009Y464356D01*
X799015Y464267D01*
X799017Y464178D01*
X799017Y462132D01*
X799017Y464587D02*
X802291Y466224D01*
X802291Y469396D02*
X802291Y471851D01*
X802289Y471929D01*
X802284Y472007D01*
X802274Y472084D01*
X802261Y472161D01*
X802245Y472237D01*
X802225Y472312D01*
X802201Y472386D01*
X802174Y472459D01*
X802143Y472531D01*
X802109Y472601D01*
X802072Y472670D01*
X802031Y472736D01*
X801987Y472801D01*
X801941Y472863D01*
X801891Y472923D01*
X801839Y472981D01*
X801784Y473036D01*
X801726Y473088D01*
X801666Y473138D01*
X801604Y473184D01*
X801539Y473228D01*
X801473Y473269D01*
X801404Y473306D01*
X801334Y473340D01*
X801262Y473371D01*
X801189Y473398D01*
X801115Y473422D01*
X801040Y473442D01*
X800964Y473458D01*
X800887Y473471D01*
X800810Y473481D01*
X800732Y473486D01*
X800654Y473488D01*
X799835Y473488D01*
X799755Y473486D01*
X799675Y473480D01*
X799595Y473470D01*
X799516Y473457D01*
X799437Y473439D01*
X799360Y473418D01*
X799284Y473392D01*
X799209Y473363D01*
X799135Y473331D01*
X799063Y473295D01*
X798993Y473255D01*
X798926Y473212D01*
X798860Y473166D01*
X798797Y473116D01*
X798736Y473064D01*
X798677Y473009D01*
X798622Y472950D01*
X798570Y472890D01*
X798520Y472826D01*
X798474Y472760D01*
X798431Y472693D01*
X798391Y472623D01*
X798355Y472551D01*
X798323Y472477D01*
X798294Y472403D01*
X798268Y472326D01*
X798247Y472249D01*
X798229Y472170D01*
X798216Y472091D01*
X798206Y472011D01*
X798200Y471931D01*
X798198Y471851D01*
X798199Y471851D02*
X798199Y469396D01*
X794925Y469396D01*
X794925Y473488D01*
D12*
X820738Y487236D02*
X820738Y493586D01*
D13*
X818737Y461338D02*
X826103Y461338D01*
X818737Y461338D02*
X818737Y463384D01*
X818739Y463473D01*
X818745Y463562D01*
X818755Y463651D01*
X818768Y463739D01*
X818785Y463827D01*
X818807Y463914D01*
X818832Y463999D01*
X818860Y464084D01*
X818893Y464167D01*
X818929Y464249D01*
X818968Y464329D01*
X819011Y464407D01*
X819057Y464483D01*
X819107Y464558D01*
X819160Y464630D01*
X819216Y464699D01*
X819275Y464766D01*
X819336Y464831D01*
X819401Y464892D01*
X819468Y464951D01*
X819537Y465007D01*
X819609Y465060D01*
X819684Y465110D01*
X819760Y465156D01*
X819838Y465199D01*
X819918Y465238D01*
X820000Y465274D01*
X820083Y465307D01*
X820168Y465335D01*
X820253Y465360D01*
X820340Y465382D01*
X820428Y465399D01*
X820516Y465412D01*
X820605Y465422D01*
X820694Y465428D01*
X820783Y465430D01*
X820872Y465428D01*
X820961Y465422D01*
X821050Y465412D01*
X821138Y465399D01*
X821226Y465382D01*
X821313Y465360D01*
X821398Y465335D01*
X821483Y465307D01*
X821566Y465274D01*
X821648Y465238D01*
X821728Y465199D01*
X821806Y465156D01*
X821882Y465110D01*
X821957Y465060D01*
X822029Y465007D01*
X822098Y464951D01*
X822165Y464892D01*
X822230Y464831D01*
X822291Y464766D01*
X822350Y464699D01*
X822406Y464630D01*
X822459Y464558D01*
X822509Y464483D01*
X822555Y464407D01*
X822598Y464329D01*
X822637Y464249D01*
X822673Y464167D01*
X822706Y464084D01*
X822734Y463999D01*
X822759Y463914D01*
X822781Y463827D01*
X822798Y463739D01*
X822811Y463651D01*
X822821Y463562D01*
X822827Y463473D01*
X822829Y463384D01*
X822830Y463384D02*
X822830Y461338D01*
X822830Y463793D02*
X826103Y465430D01*
X819556Y468602D02*
X818737Y468602D01*
X818737Y472694D01*
X826103Y470648D01*
D12*
X776288Y487236D02*
X776288Y493586D01*
D13*
X778875Y461338D02*
X771509Y461338D01*
X771509Y463384D01*
X771511Y463473D01*
X771517Y463562D01*
X771527Y463651D01*
X771540Y463739D01*
X771557Y463827D01*
X771579Y463914D01*
X771604Y463999D01*
X771632Y464084D01*
X771665Y464167D01*
X771701Y464249D01*
X771740Y464329D01*
X771783Y464407D01*
X771829Y464483D01*
X771879Y464558D01*
X771932Y464630D01*
X771988Y464699D01*
X772047Y464766D01*
X772108Y464831D01*
X772173Y464892D01*
X772240Y464951D01*
X772309Y465007D01*
X772381Y465060D01*
X772456Y465110D01*
X772532Y465156D01*
X772610Y465199D01*
X772690Y465238D01*
X772772Y465274D01*
X772855Y465307D01*
X772940Y465335D01*
X773025Y465360D01*
X773112Y465382D01*
X773200Y465399D01*
X773288Y465412D01*
X773377Y465422D01*
X773466Y465428D01*
X773555Y465430D01*
X773644Y465428D01*
X773733Y465422D01*
X773822Y465412D01*
X773910Y465399D01*
X773998Y465382D01*
X774085Y465360D01*
X774170Y465335D01*
X774255Y465307D01*
X774338Y465274D01*
X774420Y465238D01*
X774500Y465199D01*
X774578Y465156D01*
X774654Y465110D01*
X774729Y465060D01*
X774801Y465007D01*
X774870Y464951D01*
X774937Y464892D01*
X775002Y464831D01*
X775063Y464766D01*
X775122Y464699D01*
X775178Y464630D01*
X775231Y464558D01*
X775281Y464483D01*
X775327Y464407D01*
X775370Y464329D01*
X775409Y464249D01*
X775445Y464167D01*
X775478Y464084D01*
X775506Y463999D01*
X775531Y463914D01*
X775553Y463827D01*
X775570Y463739D01*
X775583Y463651D01*
X775593Y463562D01*
X775599Y463473D01*
X775601Y463384D01*
X775601Y461338D01*
X775601Y463793D02*
X778875Y465430D01*
X774783Y468602D02*
X774783Y471057D01*
X774785Y471135D01*
X774790Y471213D01*
X774800Y471290D01*
X774813Y471367D01*
X774829Y471443D01*
X774849Y471518D01*
X774873Y471592D01*
X774900Y471665D01*
X774931Y471737D01*
X774965Y471807D01*
X775002Y471876D01*
X775043Y471942D01*
X775087Y472007D01*
X775133Y472069D01*
X775183Y472129D01*
X775235Y472187D01*
X775290Y472242D01*
X775348Y472294D01*
X775408Y472344D01*
X775470Y472390D01*
X775535Y472434D01*
X775602Y472475D01*
X775670Y472512D01*
X775740Y472546D01*
X775812Y472577D01*
X775885Y472604D01*
X775959Y472628D01*
X776034Y472648D01*
X776110Y472664D01*
X776187Y472677D01*
X776264Y472687D01*
X776342Y472692D01*
X776420Y472694D01*
X776829Y472694D01*
X776918Y472692D01*
X777007Y472686D01*
X777096Y472676D01*
X777184Y472663D01*
X777272Y472646D01*
X777359Y472624D01*
X777444Y472599D01*
X777529Y472571D01*
X777612Y472538D01*
X777694Y472502D01*
X777774Y472463D01*
X777852Y472420D01*
X777928Y472374D01*
X778003Y472324D01*
X778075Y472271D01*
X778144Y472215D01*
X778211Y472156D01*
X778276Y472095D01*
X778337Y472030D01*
X778396Y471963D01*
X778452Y471894D01*
X778505Y471822D01*
X778555Y471747D01*
X778601Y471671D01*
X778644Y471593D01*
X778683Y471513D01*
X778719Y471431D01*
X778752Y471348D01*
X778780Y471263D01*
X778805Y471178D01*
X778827Y471091D01*
X778844Y471003D01*
X778857Y470915D01*
X778867Y470826D01*
X778873Y470737D01*
X778875Y470648D01*
X778873Y470559D01*
X778867Y470470D01*
X778857Y470381D01*
X778844Y470293D01*
X778827Y470205D01*
X778805Y470118D01*
X778780Y470033D01*
X778752Y469948D01*
X778719Y469865D01*
X778683Y469783D01*
X778644Y469703D01*
X778601Y469625D01*
X778555Y469549D01*
X778505Y469474D01*
X778452Y469402D01*
X778396Y469333D01*
X778337Y469266D01*
X778276Y469201D01*
X778211Y469140D01*
X778144Y469081D01*
X778075Y469025D01*
X778003Y468972D01*
X777928Y468922D01*
X777852Y468876D01*
X777774Y468833D01*
X777694Y468794D01*
X777612Y468758D01*
X777529Y468725D01*
X777444Y468697D01*
X777359Y468672D01*
X777272Y468650D01*
X777184Y468633D01*
X777096Y468620D01*
X777007Y468610D01*
X776918Y468604D01*
X776829Y468602D01*
X774783Y468602D01*
X774669Y468604D01*
X774555Y468610D01*
X774441Y468620D01*
X774327Y468634D01*
X774214Y468652D01*
X774102Y468674D01*
X773991Y468699D01*
X773881Y468729D01*
X773771Y468762D01*
X773663Y468799D01*
X773557Y468840D01*
X773451Y468885D01*
X773348Y468933D01*
X773246Y468985D01*
X773146Y469041D01*
X773048Y469099D01*
X772952Y469162D01*
X772859Y469227D01*
X772767Y469296D01*
X772679Y469368D01*
X772592Y469443D01*
X772509Y469521D01*
X772428Y469602D01*
X772350Y469685D01*
X772275Y469771D01*
X772203Y469860D01*
X772134Y469952D01*
X772069Y470045D01*
X772007Y470141D01*
X771948Y470239D01*
X771892Y470339D01*
X771840Y470441D01*
X771792Y470544D01*
X771747Y470649D01*
X771706Y470756D01*
X771669Y470864D01*
X771636Y470974D01*
X771606Y471084D01*
X771581Y471195D01*
X771559Y471307D01*
X771541Y471420D01*
X771527Y471534D01*
X771517Y471648D01*
X771511Y471762D01*
X771509Y471876D01*
D15*
X834325Y522100D02*
X834325Y570100D01*
X834325Y522100D02*
X810325Y522100D01*
X810325Y570100D01*
X834325Y570100D01*
D16*
X838325Y563100D03*
D17*
X838387Y563098D01*
X838448Y563092D01*
X838509Y563083D01*
X838569Y563070D01*
X838628Y563053D01*
X838686Y563032D01*
X838743Y563008D01*
X838798Y562981D01*
X838851Y562950D01*
X838903Y562916D01*
X838952Y562879D01*
X838999Y562839D01*
X839043Y562796D01*
X839084Y562751D01*
X839123Y562703D01*
X839159Y562652D01*
X839191Y562600D01*
X839220Y562546D01*
X839246Y562490D01*
X839268Y562432D01*
X839287Y562374D01*
X839302Y562314D01*
X839313Y562253D01*
X839321Y562192D01*
X839325Y562131D01*
X839325Y562069D01*
X839321Y562008D01*
X839313Y561947D01*
X839302Y561886D01*
X839287Y561826D01*
X839268Y561768D01*
X839246Y561710D01*
X839220Y561654D01*
X839191Y561600D01*
X839159Y561548D01*
X839123Y561497D01*
X839084Y561449D01*
X839043Y561404D01*
X838999Y561361D01*
X838952Y561321D01*
X838903Y561284D01*
X838851Y561250D01*
X838798Y561219D01*
X838743Y561192D01*
X838686Y561168D01*
X838628Y561147D01*
X838569Y561130D01*
X838509Y561117D01*
X838448Y561108D01*
X838387Y561102D01*
X838325Y561100D01*
D16*
X838325Y561100D03*
D17*
X838263Y561102D01*
X838202Y561108D01*
X838141Y561117D01*
X838081Y561130D01*
X838022Y561147D01*
X837964Y561168D01*
X837907Y561192D01*
X837852Y561219D01*
X837799Y561250D01*
X837747Y561284D01*
X837698Y561321D01*
X837651Y561361D01*
X837607Y561404D01*
X837566Y561449D01*
X837527Y561497D01*
X837491Y561548D01*
X837459Y561600D01*
X837430Y561654D01*
X837404Y561710D01*
X837382Y561768D01*
X837363Y561826D01*
X837348Y561886D01*
X837337Y561947D01*
X837329Y562008D01*
X837325Y562069D01*
X837325Y562131D01*
X837329Y562192D01*
X837337Y562253D01*
X837348Y562314D01*
X837363Y562374D01*
X837382Y562432D01*
X837404Y562490D01*
X837430Y562546D01*
X837459Y562600D01*
X837491Y562652D01*
X837527Y562703D01*
X837566Y562751D01*
X837607Y562796D01*
X837651Y562839D01*
X837698Y562879D01*
X837747Y562916D01*
X837799Y562950D01*
X837852Y562981D01*
X837907Y563008D01*
X837964Y563032D01*
X838022Y563053D01*
X838081Y563070D01*
X838141Y563083D01*
X838202Y563092D01*
X838263Y563098D01*
X838325Y563100D01*
D11*
X802021Y535361D02*
X793583Y535361D01*
X802021Y535361D02*
X802134Y535363D01*
X802247Y535369D01*
X802360Y535379D01*
X802473Y535393D01*
X802585Y535410D01*
X802696Y535432D01*
X802806Y535457D01*
X802916Y535487D01*
X803024Y535520D01*
X803131Y535557D01*
X803237Y535597D01*
X803341Y535642D01*
X803444Y535690D01*
X803545Y535741D01*
X803644Y535796D01*
X803741Y535854D01*
X803836Y535916D01*
X803929Y535981D01*
X804019Y536049D01*
X804107Y536120D01*
X804193Y536195D01*
X804276Y536272D01*
X804356Y536352D01*
X804433Y536435D01*
X804508Y536521D01*
X804579Y536609D01*
X804647Y536699D01*
X804712Y536792D01*
X804774Y536887D01*
X804832Y536984D01*
X804887Y537083D01*
X804938Y537184D01*
X804986Y537287D01*
X805031Y537391D01*
X805071Y537497D01*
X805108Y537604D01*
X805141Y537712D01*
X805171Y537822D01*
X805196Y537932D01*
X805218Y538043D01*
X805235Y538155D01*
X805249Y538268D01*
X805259Y538381D01*
X805265Y538494D01*
X805267Y538607D01*
X805265Y538720D01*
X805259Y538833D01*
X805249Y538946D01*
X805235Y539059D01*
X805218Y539171D01*
X805196Y539282D01*
X805171Y539392D01*
X805141Y539502D01*
X805108Y539610D01*
X805071Y539717D01*
X805031Y539823D01*
X804986Y539927D01*
X804938Y540030D01*
X804887Y540131D01*
X804832Y540230D01*
X804774Y540327D01*
X804712Y540422D01*
X804647Y540515D01*
X804579Y540605D01*
X804508Y540693D01*
X804433Y540779D01*
X804356Y540862D01*
X804276Y540942D01*
X804193Y541019D01*
X804107Y541094D01*
X804019Y541165D01*
X803929Y541233D01*
X803836Y541298D01*
X803741Y541360D01*
X803644Y541418D01*
X803545Y541473D01*
X803444Y541524D01*
X803341Y541572D01*
X803237Y541617D01*
X803131Y541657D01*
X803024Y541694D01*
X802916Y541727D01*
X802806Y541757D01*
X802696Y541782D01*
X802585Y541804D01*
X802473Y541821D01*
X802360Y541835D01*
X802247Y541845D01*
X802134Y541851D01*
X802021Y541853D01*
X793583Y541853D01*
X793583Y550743D02*
X793585Y550850D01*
X793591Y550956D01*
X793601Y551062D01*
X793614Y551168D01*
X793632Y551274D01*
X793653Y551378D01*
X793678Y551482D01*
X793707Y551585D01*
X793739Y551686D01*
X793776Y551786D01*
X793816Y551885D01*
X793859Y551983D01*
X793906Y552079D01*
X793957Y552173D01*
X794011Y552265D01*
X794068Y552355D01*
X794128Y552443D01*
X794192Y552528D01*
X794259Y552611D01*
X794329Y552692D01*
X794401Y552770D01*
X794477Y552846D01*
X794555Y552918D01*
X794636Y552988D01*
X794719Y553055D01*
X794804Y553119D01*
X794892Y553179D01*
X794982Y553236D01*
X795074Y553290D01*
X795168Y553341D01*
X795264Y553388D01*
X795362Y553431D01*
X795461Y553471D01*
X795561Y553508D01*
X795662Y553540D01*
X795765Y553569D01*
X795869Y553594D01*
X795973Y553615D01*
X796079Y553633D01*
X796185Y553646D01*
X796291Y553656D01*
X796397Y553662D01*
X796504Y553664D01*
X793583Y550743D02*
X793585Y550622D01*
X793591Y550501D01*
X793601Y550381D01*
X793614Y550260D01*
X793632Y550141D01*
X793653Y550021D01*
X793678Y549903D01*
X793707Y549786D01*
X793740Y549669D01*
X793776Y549554D01*
X793817Y549440D01*
X793860Y549327D01*
X793908Y549215D01*
X793959Y549106D01*
X794014Y548998D01*
X794072Y548891D01*
X794133Y548787D01*
X794198Y548685D01*
X794266Y548585D01*
X794337Y548487D01*
X794411Y548391D01*
X794488Y548298D01*
X794569Y548208D01*
X794652Y548120D01*
X794738Y548035D01*
X794827Y547952D01*
X794918Y547873D01*
X795012Y547796D01*
X795108Y547723D01*
X795206Y547653D01*
X795307Y547586D01*
X795410Y547522D01*
X795515Y547462D01*
X795622Y547404D01*
X795730Y547351D01*
X795840Y547301D01*
X795952Y547255D01*
X796065Y547212D01*
X796180Y547173D01*
X798776Y552689D02*
X798698Y552768D01*
X798618Y552844D01*
X798535Y552917D01*
X798449Y552987D01*
X798362Y553054D01*
X798271Y553118D01*
X798179Y553178D01*
X798085Y553236D01*
X797988Y553290D01*
X797890Y553340D01*
X797790Y553387D01*
X797689Y553431D01*
X797586Y553471D01*
X797481Y553507D01*
X797376Y553539D01*
X797269Y553568D01*
X797162Y553593D01*
X797053Y553615D01*
X796944Y553632D01*
X796835Y553646D01*
X796725Y553655D01*
X796614Y553661D01*
X796504Y553663D01*
X798776Y552690D02*
X805267Y547172D01*
X805267Y553664D01*
D18*
X737400Y514528D03*
D19*
X750646Y514528D03*
D20*
X735266Y514706D03*
D21*
X739000Y514706D03*
X758736Y514706D03*
D22*
X737133Y514706D03*
D23*
X750735Y514706D03*
D24*
X734911Y514883D03*
D25*
X739000Y514883D03*
D26*
X736956Y514883D03*
D27*
X751002Y514883D03*
D21*
X739000Y515061D03*
X759447Y515061D03*
D28*
X736778Y515061D03*
D29*
X751091Y515061D03*
D25*
X739000Y515239D03*
D30*
X736689Y515239D03*
D31*
X751269Y515239D03*
D21*
X734200Y515417D03*
X739000Y515417D03*
D32*
X736600Y515417D03*
D33*
X751357Y515417D03*
D21*
X739000Y515595D03*
D34*
X736511Y515595D03*
D35*
X751446Y515595D03*
D25*
X739000Y515772D03*
D24*
X760158Y515772D03*
D36*
X736422Y515772D03*
D37*
X751446Y515772D03*
D21*
X733844Y515950D03*
X739000Y515950D03*
D38*
X736422Y515950D03*
D39*
X751535Y515950D03*
D25*
X739000Y516128D03*
D40*
X736333Y516128D03*
D41*
X751624Y516128D03*
D21*
X739000Y516306D03*
X760514Y516306D03*
D42*
X736244Y516306D03*
D43*
X751624Y516306D03*
D20*
X733488Y516484D03*
D21*
X739000Y516484D03*
D42*
X736244Y516484D03*
D44*
X751713Y516484D03*
D25*
X739000Y516661D03*
D24*
X760692Y516661D03*
D45*
X736155Y516661D03*
D46*
X751713Y516661D03*
D21*
X733311Y516839D03*
X739000Y516839D03*
D47*
X736155Y516839D03*
D48*
X751802Y516839D03*
D25*
X739000Y517017D03*
D49*
X736067Y517017D03*
D50*
X751891Y517017D03*
D21*
X739000Y517195D03*
D20*
X761047Y517195D03*
D51*
X735978Y517195D03*
D52*
X751891Y517195D03*
D21*
X739000Y517373D03*
D51*
X735978Y517373D03*
D53*
X751980Y517373D03*
D25*
X739000Y517550D03*
X761225Y517550D03*
D54*
X735889Y517550D03*
D55*
X751980Y517550D03*
D21*
X732777Y517728D03*
X739000Y517728D03*
D56*
X735889Y517728D03*
D57*
X752069Y517728D03*
D25*
X739000Y517906D03*
X761403Y517906D03*
D58*
X735800Y517906D03*
D59*
X752069Y517906D03*
D20*
X732599Y518084D03*
D21*
X739000Y518084D03*
D60*
X735800Y518084D03*
D61*
X752158Y518084D03*
D21*
X739000Y518262D03*
D62*
X735711Y518262D03*
D63*
X752246Y518262D03*
D25*
X739000Y518439D03*
X761759Y518439D03*
D64*
X735622Y518439D03*
D65*
X752246Y518439D03*
D20*
X732244Y518617D03*
D21*
X739000Y518617D03*
D66*
X735622Y518617D03*
D67*
X752335Y518617D03*
D25*
X739000Y518795D03*
D24*
X761936Y518795D03*
D68*
X735533Y518795D03*
D69*
X752335Y518795D03*
D21*
X732066Y518973D03*
X739000Y518973D03*
D70*
X735533Y518973D03*
D71*
X752424Y518973D03*
D21*
X739000Y519151D03*
D72*
X735444Y519151D03*
D73*
X752513Y519151D03*
D25*
X731888Y519328D03*
X739000Y519328D03*
D74*
X735444Y519328D03*
D75*
X752513Y519328D03*
D21*
X739000Y519506D03*
D76*
X735355Y519506D03*
D77*
X752602Y519506D03*
D25*
X739000Y519684D03*
D24*
X762470Y519684D03*
D78*
X735266Y519684D03*
D79*
X752602Y519684D03*
D21*
X731533Y519862D03*
X739000Y519862D03*
D80*
X735266Y519862D03*
D81*
X752691Y519862D03*
D21*
X739000Y520040D03*
X762648Y520040D03*
D82*
X735178Y520040D03*
D81*
X752691Y520040D03*
D24*
X731355Y520217D03*
D25*
X739000Y520217D03*
D83*
X735178Y520217D03*
D84*
X752780Y520217D03*
D21*
X739000Y520395D03*
D85*
X735089Y520395D03*
D86*
X752869Y520395D03*
D25*
X731177Y520573D03*
X739000Y520573D03*
D87*
X735089Y520573D03*
D88*
X752869Y520573D03*
D21*
X739000Y520751D03*
D89*
X735000Y520751D03*
D90*
X752958Y520751D03*
D21*
X739000Y520929D03*
X763181Y520929D03*
D91*
X734911Y520929D03*
D90*
X752958Y520929D03*
D24*
X730821Y521106D03*
D25*
X739000Y521106D03*
D92*
X734911Y521106D03*
D93*
X753047Y521106D03*
D21*
X739000Y521284D03*
D20*
X742912Y521284D03*
X763359Y521284D03*
D94*
X734822Y521284D03*
D90*
X753135Y521284D03*
D25*
X730644Y521462D03*
X739000Y521462D03*
D24*
X742912Y521462D03*
D95*
X734822Y521462D03*
D93*
X753224Y521462D03*
D21*
X739000Y521640D03*
D20*
X742912Y521640D03*
D21*
X763537Y521640D03*
D96*
X734733Y521640D03*
D97*
X753224Y521640D03*
D21*
X739000Y521818D03*
D20*
X742912Y521818D03*
D98*
X734644Y521818D03*
D99*
X753313Y521818D03*
D25*
X739000Y521995D03*
D24*
X742912Y521995D03*
D100*
X734644Y521995D03*
D101*
X753402Y521995D03*
D21*
X739000Y522173D03*
D20*
X742912Y522173D03*
D21*
X763892Y522173D03*
D102*
X734555Y522173D03*
D103*
X753402Y522173D03*
D25*
X730110Y522351D03*
X739000Y522351D03*
D24*
X742912Y522351D03*
D104*
X734555Y522351D03*
D105*
X753491Y522351D03*
D21*
X739000Y522529D03*
D20*
X742912Y522529D03*
D106*
X752602Y522529D03*
D21*
X753758Y522529D03*
X764070Y522529D03*
D107*
X734466Y522529D03*
D108*
X747712Y522529D03*
D109*
X758914Y522529D03*
D20*
X729932Y522707D03*
D21*
X739000Y522707D03*
D20*
X742912Y522707D03*
X752157Y522707D03*
D21*
X754113Y522707D03*
D107*
X734466Y522707D03*
D110*
X747535Y522707D03*
D111*
X759181Y522707D03*
D25*
X739000Y522884D03*
D24*
X742912Y522884D03*
D25*
X751980Y522884D03*
D24*
X764248Y522884D03*
D112*
X734377Y522884D03*
D113*
X747446Y522884D03*
D114*
X759270Y522884D03*
D21*
X739000Y523062D03*
D20*
X742912Y523062D03*
D21*
X754647Y523062D03*
X764426Y523062D03*
D115*
X734289Y523062D03*
D102*
X747357Y523062D03*
D116*
X759536Y523062D03*
D24*
X729577Y523240D03*
D25*
X739000Y523240D03*
D24*
X742912Y523240D03*
D25*
X751624Y523240D03*
D117*
X734289Y523240D03*
D100*
X747268Y523240D03*
D114*
X759625Y523240D03*
D21*
X739000Y523418D03*
D20*
X742912Y523418D03*
X764603Y523418D03*
D108*
X734200Y523418D03*
D98*
X747268Y523418D03*
D116*
X759714Y523418D03*
D21*
X729399Y523596D03*
X739000Y523596D03*
D20*
X742912Y523596D03*
D108*
X734200Y523596D03*
D96*
X747179Y523596D03*
D118*
X759803Y523596D03*
D25*
X739000Y523773D03*
D24*
X742912Y523773D03*
D25*
X755002Y523773D03*
X764781Y523773D03*
D119*
X734111Y523773D03*
D120*
X747179Y523773D03*
D119*
X759892Y523773D03*
D21*
X729221Y523951D03*
X739000Y523951D03*
D20*
X742912Y523951D03*
X751268Y523951D03*
D116*
X734111Y523951D03*
D121*
X747090Y523951D03*
D118*
X759981Y523951D03*
D25*
X739000Y524129D03*
D24*
X742912Y524129D03*
X751268Y524129D03*
D25*
X764959Y524129D03*
D114*
X734022Y524129D03*
D122*
X747090Y524129D03*
D114*
X759981Y524129D03*
D21*
X739000Y524307D03*
D20*
X742912Y524307D03*
X751268Y524307D03*
D123*
X733933Y524307D03*
D121*
X747090Y524307D03*
D111*
X760070Y524307D03*
D21*
X728866Y524485D03*
X739000Y524485D03*
D20*
X742912Y524485D03*
X751268Y524485D03*
X765137Y524485D03*
D123*
X733933Y524485D03*
D121*
X747090Y524485D03*
D111*
X760070Y524485D03*
D25*
X739000Y524662D03*
D24*
X742912Y524662D03*
X751268Y524662D03*
D124*
X733844Y524662D03*
D122*
X747090Y524662D03*
D124*
X760158Y524662D03*
D20*
X728688Y524840D03*
D21*
X739000Y524840D03*
D20*
X742912Y524840D03*
X751268Y524840D03*
D109*
X733844Y524840D03*
D121*
X747090Y524840D03*
D125*
X760247Y524840D03*
D25*
X739000Y525018D03*
D24*
X742912Y525018D03*
X751268Y525018D03*
X765492Y525018D03*
D126*
X733755Y525018D03*
D122*
X747090Y525018D03*
D126*
X760247Y525018D03*
D21*
X728510Y525196D03*
X739000Y525196D03*
D20*
X742912Y525196D03*
X751268Y525196D03*
D125*
X733755Y525196D03*
D121*
X747090Y525196D03*
D127*
X760336Y525196D03*
D21*
X739000Y525374D03*
D20*
X742912Y525374D03*
X751268Y525374D03*
D21*
X765670Y525374D03*
D127*
X733666Y525374D03*
D121*
X747090Y525374D03*
D127*
X760336Y525374D03*
D25*
X739000Y525551D03*
D24*
X742912Y525551D03*
X751268Y525551D03*
D128*
X733577Y525551D03*
D122*
X747090Y525551D03*
D128*
X760425Y525551D03*
D20*
X728154Y525729D03*
D21*
X739000Y525729D03*
D20*
X742912Y525729D03*
X751268Y525729D03*
D21*
X755180Y525729D03*
X765848Y525729D03*
D129*
X733577Y525729D03*
D121*
X747090Y525729D03*
D127*
X760514Y525729D03*
D25*
X739000Y525907D03*
D24*
X742912Y525907D03*
X751268Y525907D03*
D25*
X755180Y525907D03*
D130*
X733488Y525907D03*
D122*
X747090Y525907D03*
D128*
X760603Y525907D03*
D21*
X727977Y526085D03*
X739000Y526085D03*
D20*
X742912Y526085D03*
X751268Y526085D03*
D21*
X755180Y526085D03*
D131*
X733488Y526085D03*
D121*
X747090Y526085D03*
D131*
X760692Y526085D03*
D21*
X739000Y526263D03*
D20*
X742912Y526263D03*
X751268Y526263D03*
D21*
X755180Y526263D03*
X766204Y526263D03*
D132*
X733400Y526263D03*
D121*
X747090Y526263D03*
D131*
X760692Y526263D03*
D24*
X727799Y526440D03*
D25*
X739000Y526440D03*
D24*
X742912Y526440D03*
X751268Y526440D03*
D25*
X755180Y526440D03*
D133*
X733400Y526440D03*
D122*
X747090Y526440D03*
D133*
X760781Y526440D03*
D21*
X739000Y526618D03*
D20*
X742912Y526618D03*
X751268Y526618D03*
D21*
X755180Y526618D03*
D20*
X766381Y526618D03*
D134*
X733311Y526618D03*
D121*
X747090Y526618D03*
D132*
X760781Y526618D03*
D25*
X739000Y526796D03*
D24*
X742912Y526796D03*
X751268Y526796D03*
D25*
X755180Y526796D03*
D135*
X733222Y526796D03*
D122*
X747090Y526796D03*
D136*
X760870Y526796D03*
D21*
X727443Y526974D03*
X739000Y526974D03*
D20*
X742912Y526974D03*
D21*
X755180Y526974D03*
D137*
X733222Y526974D03*
D121*
X747090Y526974D03*
D137*
X760959Y526974D03*
D21*
X739000Y527152D03*
D20*
X742912Y527152D03*
D21*
X755180Y527152D03*
X766737Y527152D03*
D138*
X733133Y527152D03*
D121*
X747090Y527152D03*
D137*
X760959Y527152D03*
D24*
X727265Y527329D03*
D25*
X739000Y527329D03*
D24*
X742912Y527329D03*
D25*
X755180Y527329D03*
D139*
X733133Y527329D03*
D122*
X747090Y527329D03*
D139*
X761048Y527329D03*
D21*
X739000Y527507D03*
D20*
X742912Y527507D03*
D21*
X755180Y527507D03*
D20*
X766915Y527507D03*
D140*
X733044Y527507D03*
D121*
X747090Y527507D03*
D138*
X761048Y527507D03*
D25*
X727088Y527685D03*
X739000Y527685D03*
D24*
X742912Y527685D03*
D25*
X755180Y527685D03*
D141*
X733044Y527685D03*
D122*
X747090Y527685D03*
D141*
X761136Y527685D03*
D21*
X739000Y527863D03*
D20*
X742912Y527863D03*
D21*
X755180Y527863D03*
X767093Y527863D03*
D142*
X732955Y527863D03*
D121*
X747090Y527863D03*
D140*
X761136Y527863D03*
D21*
X739000Y528041D03*
D20*
X742912Y528041D03*
D21*
X755180Y528041D03*
D143*
X732866Y528041D03*
D121*
X747090Y528041D03*
D142*
X761225Y528041D03*
D25*
X726732Y528218D03*
X739000Y528218D03*
D24*
X742912Y528218D03*
D25*
X755180Y528218D03*
D144*
X732866Y528218D03*
D122*
X747090Y528218D03*
D144*
X761314Y528218D03*
D21*
X739000Y528396D03*
D20*
X742912Y528396D03*
D21*
X755180Y528396D03*
X767448Y528396D03*
D145*
X732777Y528396D03*
D121*
X747090Y528396D03*
D143*
X761314Y528396D03*
D25*
X726554Y528574D03*
X739000Y528574D03*
D24*
X742912Y528574D03*
D25*
X755180Y528574D03*
D146*
X732777Y528574D03*
D122*
X747090Y528574D03*
D146*
X761403Y528574D03*
D21*
X739000Y528752D03*
D20*
X742912Y528752D03*
D21*
X755180Y528752D03*
X767626Y528752D03*
D147*
X732688Y528752D03*
D121*
X747090Y528752D03*
D145*
X761403Y528752D03*
D20*
X726376Y528930D03*
D21*
X739000Y528930D03*
D20*
X742912Y528930D03*
D21*
X755180Y528930D03*
D147*
X732688Y528930D03*
D121*
X747090Y528930D03*
D147*
X761492Y528930D03*
D25*
X739000Y529107D03*
D24*
X742912Y529107D03*
D25*
X755180Y529107D03*
D24*
X767804Y529107D03*
D148*
X732599Y529107D03*
D122*
X747090Y529107D03*
D149*
X761492Y529107D03*
D21*
X739000Y529285D03*
D20*
X742912Y529285D03*
D21*
X755180Y529285D03*
D150*
X732511Y529285D03*
D121*
X747090Y529285D03*
D151*
X761581Y529285D03*
D24*
X726021Y529463D03*
D25*
X739000Y529463D03*
D24*
X742912Y529463D03*
D25*
X755180Y529463D03*
D152*
X732511Y529463D03*
D122*
X747090Y529463D03*
D152*
X761670Y529463D03*
D21*
X739000Y529641D03*
D20*
X742912Y529641D03*
D21*
X755180Y529641D03*
D20*
X768159Y529641D03*
D153*
X732422Y529641D03*
D121*
X747090Y529641D03*
D150*
X761670Y529641D03*
D21*
X725843Y529819D03*
X739000Y529819D03*
D20*
X742912Y529819D03*
D21*
X755180Y529819D03*
D153*
X732422Y529819D03*
D121*
X747090Y529819D03*
D153*
X761759Y529819D03*
D25*
X739000Y529996D03*
D24*
X742912Y529996D03*
D25*
X755180Y529996D03*
X768337Y529996D03*
D154*
X732333Y529996D03*
D122*
X747090Y529996D03*
D155*
X761759Y529996D03*
D21*
X739000Y530174D03*
D20*
X742912Y530174D03*
D21*
X755180Y530174D03*
D156*
X732244Y530174D03*
D121*
X747090Y530174D03*
D157*
X761848Y530174D03*
D24*
X725487Y530352D03*
D25*
X739000Y530352D03*
D24*
X742912Y530352D03*
D25*
X755180Y530352D03*
X768515Y530352D03*
D158*
X732244Y530352D03*
D122*
X747090Y530352D03*
D154*
X761848Y530352D03*
D21*
X739000Y530530D03*
D20*
X742912Y530530D03*
D21*
X755180Y530530D03*
D20*
X768693Y530530D03*
D159*
X732155Y530530D03*
D121*
X747090Y530530D03*
D156*
X761937Y530530D03*
D21*
X725310Y530708D03*
X739000Y530708D03*
D20*
X742912Y530708D03*
D21*
X755180Y530708D03*
D159*
X732155Y530708D03*
D121*
X747090Y530708D03*
D159*
X762025Y530708D03*
D25*
X739000Y530885D03*
D24*
X742912Y530885D03*
D25*
X755180Y530885D03*
X768871Y530885D03*
D160*
X732066Y530885D03*
D122*
X747090Y530885D03*
D161*
X762025Y530885D03*
D20*
X725132Y531063D03*
D21*
X739000Y531063D03*
D20*
X742912Y531063D03*
D21*
X755180Y531063D03*
D162*
X732066Y531063D03*
D121*
X747090Y531063D03*
D162*
X762114Y531063D03*
D25*
X739000Y531241D03*
D24*
X742912Y531241D03*
D25*
X755180Y531241D03*
D24*
X769048Y531241D03*
D163*
X731977Y531241D03*
D122*
X747090Y531241D03*
D160*
X762114Y531241D03*
D21*
X739000Y531419D03*
D20*
X742912Y531419D03*
D21*
X755180Y531419D03*
D164*
X731888Y531419D03*
D121*
X747090Y531419D03*
D165*
X762203Y531419D03*
D21*
X724776Y531597D03*
X739000Y531597D03*
D20*
X742912Y531597D03*
D21*
X755180Y531597D03*
D164*
X731888Y531597D03*
D121*
X747090Y531597D03*
D164*
X762292Y531597D03*
D25*
X739000Y531774D03*
D24*
X742912Y531774D03*
D25*
X755180Y531774D03*
X769404Y531774D03*
D166*
X731799Y531774D03*
D122*
X747090Y531774D03*
D167*
X762292Y531774D03*
D20*
X724598Y531952D03*
D21*
X739000Y531952D03*
D20*
X742912Y531952D03*
D21*
X755180Y531952D03*
D168*
X731799Y531952D03*
D121*
X747090Y531952D03*
D168*
X762381Y531952D03*
D25*
X739000Y532130D03*
D24*
X742912Y532130D03*
D25*
X755180Y532130D03*
D24*
X769582Y532130D03*
D169*
X731710Y532130D03*
D122*
X747090Y532130D03*
D166*
X762381Y532130D03*
D21*
X724421Y532308D03*
X739000Y532308D03*
D20*
X742912Y532308D03*
D21*
X755180Y532308D03*
D170*
X731710Y532308D03*
D121*
X747090Y532308D03*
D170*
X762470Y532308D03*
D21*
X739000Y532486D03*
D20*
X742912Y532486D03*
D21*
X755180Y532486D03*
X769760Y532486D03*
D171*
X731622Y532486D03*
D121*
X747090Y532486D03*
D170*
X762470Y532486D03*
D25*
X739000Y532663D03*
D24*
X742912Y532663D03*
D25*
X755180Y532663D03*
D172*
X731533Y532663D03*
D122*
X747090Y532663D03*
D173*
X762559Y532663D03*
D21*
X724065Y532841D03*
X739000Y532841D03*
D20*
X742912Y532841D03*
D21*
X755180Y532841D03*
D174*
X731533Y532841D03*
D121*
X747090Y532841D03*
D174*
X762648Y532841D03*
D24*
X742912Y533019D03*
D25*
X755180Y533019D03*
X770115Y533019D03*
D175*
X731444Y533019D03*
D122*
X747090Y533019D03*
D172*
X762648Y533019D03*
D21*
X723887Y533197D03*
D20*
X742912Y533197D03*
D21*
X755180Y533197D03*
D176*
X731444Y533197D03*
D121*
X747090Y533197D03*
D176*
X762737Y533197D03*
D20*
X742912Y533375D03*
D21*
X755180Y533375D03*
X770293Y533375D03*
D177*
X731355Y533375D03*
D121*
X747090Y533375D03*
D176*
X762737Y533375D03*
D24*
X723709Y533552D03*
X742912Y533552D03*
D25*
X755180Y533552D03*
D178*
X731355Y533552D03*
D122*
X747090Y533552D03*
D178*
X762826Y533552D03*
D20*
X742912Y533730D03*
D21*
X755180Y533730D03*
D20*
X770471Y533730D03*
D179*
X731266Y533730D03*
D121*
X747090Y533730D03*
D177*
X762826Y533730D03*
D25*
X743090Y533908D03*
X751091Y533908D03*
X755180Y533908D03*
X770649Y533908D03*
D180*
X731177Y533908D03*
D181*
X747090Y533908D03*
D182*
X762914Y533908D03*
D20*
X723354Y534086D03*
D21*
X755180Y534086D03*
D183*
X731177Y534086D03*
X763003Y534086D03*
D21*
X755180Y534264D03*
D20*
X770826Y534264D03*
D184*
X731088Y534264D03*
D183*
X763003Y534264D03*
D25*
X723176Y534441D03*
X755180Y534441D03*
D185*
X731088Y534441D03*
X763092Y534441D03*
D21*
X755180Y534619D03*
X771004Y534619D03*
D23*
X730999Y534619D03*
D184*
X763092Y534619D03*
D25*
X722998Y534797D03*
X755180Y534797D03*
D186*
X730999Y534797D03*
X763181Y534797D03*
D21*
X755180Y534975D03*
X771182Y534975D03*
D187*
X730910Y534975D03*
D23*
X763181Y534975D03*
D20*
X722820Y535153D03*
D21*
X755180Y535153D03*
D187*
X730910Y535153D03*
X763270Y535153D03*
D24*
X722820Y535330D03*
D25*
X755180Y535330D03*
D188*
X730910Y535330D03*
X763270Y535330D03*
D21*
X755180Y535508D03*
D189*
X730821Y535508D03*
D187*
X763270Y535508D03*
D25*
X755180Y535686D03*
D24*
X771360Y535686D03*
D190*
X730821Y535686D03*
D188*
X763270Y535686D03*
D21*
X755180Y535864D03*
D20*
X771360Y535864D03*
D189*
X730821Y535864D03*
D187*
X763270Y535864D03*
D21*
X755180Y536042D03*
D20*
X771360Y536042D03*
D189*
X730821Y536042D03*
D187*
X763270Y536042D03*
D25*
X755180Y536219D03*
D24*
X771360Y536219D03*
D190*
X730821Y536219D03*
D188*
X763270Y536219D03*
D21*
X755180Y536397D03*
D20*
X771360Y536397D03*
D189*
X730821Y536397D03*
D187*
X763270Y536397D03*
D25*
X755180Y536575D03*
D190*
X730821Y536575D03*
D188*
X763270Y536575D03*
D20*
X722820Y536753D03*
D21*
X755180Y536753D03*
D187*
X730910Y536753D03*
X763270Y536753D03*
D21*
X755180Y536931D03*
X771182Y536931D03*
D187*
X730910Y536931D03*
D23*
X763181Y536931D03*
D25*
X755180Y537108D03*
X771182Y537108D03*
D188*
X730910Y537108D03*
D186*
X763181Y537108D03*
D21*
X722998Y537286D03*
X755180Y537286D03*
D23*
X730999Y537286D03*
X763181Y537286D03*
D25*
X755180Y537464D03*
X771004Y537464D03*
D186*
X730999Y537464D03*
D185*
X763092Y537464D03*
D21*
X723176Y537642D03*
X755180Y537642D03*
D184*
X731088Y537642D03*
X763092Y537642D03*
D21*
X755180Y537820D03*
D184*
X731088Y537820D03*
D183*
X763003Y537820D03*
D25*
X755180Y537997D03*
X770649Y537997D03*
D180*
X731177Y537997D03*
D182*
X762914Y537997D03*
D21*
X723532Y538175D03*
X755180Y538175D03*
D179*
X731266Y538175D03*
D121*
X747090Y538175D03*
D179*
X762914Y538175D03*
D24*
X742912Y538353D03*
D25*
X755180Y538353D03*
D24*
X770471Y538353D03*
D182*
X731266Y538353D03*
D122*
X747090Y538353D03*
D178*
X762826Y538353D03*
D20*
X723709Y538531D03*
X742912Y538531D03*
D21*
X755180Y538531D03*
D177*
X731355Y538531D03*
D121*
X747090Y538531D03*
D177*
X762826Y538531D03*
D20*
X742912Y538709D03*
D21*
X755180Y538709D03*
X770293Y538709D03*
D177*
X731355Y538709D03*
D121*
X747090Y538709D03*
D176*
X762737Y538709D03*
D25*
X723887Y538886D03*
D24*
X742912Y538886D03*
D25*
X755180Y538886D03*
X770115Y538886D03*
D175*
X731444Y538886D03*
D122*
X747090Y538886D03*
D172*
X762648Y538886D03*
D21*
X724065Y539064D03*
D20*
X742912Y539064D03*
D21*
X755180Y539064D03*
D174*
X731533Y539064D03*
D121*
X747090Y539064D03*
D174*
X762648Y539064D03*
D24*
X742912Y539242D03*
D25*
X755180Y539242D03*
D24*
X769937Y539242D03*
D172*
X731533Y539242D03*
D122*
X747090Y539242D03*
D173*
X762559Y539242D03*
D20*
X724243Y539420D03*
X742912Y539420D03*
D21*
X755180Y539420D03*
D171*
X731622Y539420D03*
D121*
X747090Y539420D03*
D171*
X762559Y539420D03*
D20*
X742912Y539598D03*
D21*
X755180Y539598D03*
X769760Y539598D03*
D171*
X731622Y539598D03*
D121*
X747090Y539598D03*
D170*
X762470Y539598D03*
D25*
X724421Y539775D03*
D24*
X742912Y539775D03*
D25*
X755180Y539775D03*
D169*
X731710Y539775D03*
D122*
X747090Y539775D03*
D169*
X762470Y539775D03*
D20*
X742912Y539953D03*
D21*
X755180Y539953D03*
D20*
X769582Y539953D03*
D170*
X731710Y539953D03*
D121*
X747090Y539953D03*
D168*
X762381Y539953D03*
D24*
X742912Y540131D03*
D25*
X755180Y540131D03*
X769404Y540131D03*
D166*
X731799Y540131D03*
D122*
X747090Y540131D03*
D167*
X762292Y540131D03*
D21*
X724776Y540309D03*
D20*
X742912Y540309D03*
D21*
X755180Y540309D03*
D164*
X731888Y540309D03*
D121*
X747090Y540309D03*
D164*
X762292Y540309D03*
D20*
X742912Y540487D03*
D21*
X755180Y540487D03*
X769226Y540487D03*
D164*
X731888Y540487D03*
D121*
X747090Y540487D03*
D165*
X762203Y540487D03*
D25*
X724954Y540664D03*
D24*
X742912Y540664D03*
D25*
X755180Y540664D03*
D163*
X731977Y540664D03*
D122*
X747090Y540664D03*
D163*
X762203Y540664D03*
D20*
X742912Y540842D03*
D21*
X755180Y540842D03*
D20*
X769048Y540842D03*
D165*
X731977Y540842D03*
D121*
X747090Y540842D03*
D162*
X762114Y540842D03*
D24*
X725132Y541020D03*
X742912Y541020D03*
D25*
X755180Y541020D03*
D160*
X732066Y541020D03*
D122*
X747090Y541020D03*
D160*
X762114Y541020D03*
D20*
X742912Y541198D03*
D21*
X755180Y541198D03*
D162*
X732066Y541198D03*
D121*
X747090Y541198D03*
D159*
X762025Y541198D03*
D20*
X742912Y541376D03*
D21*
X755180Y541376D03*
D20*
X768693Y541376D03*
D159*
X732155Y541376D03*
D121*
X747090Y541376D03*
D156*
X761937Y541376D03*
D24*
X725487Y541553D03*
X742912Y541553D03*
D25*
X755180Y541553D03*
D158*
X732244Y541553D03*
D122*
X747090Y541553D03*
D158*
X761937Y541553D03*
D20*
X742912Y541731D03*
D21*
X755180Y541731D03*
X768515Y541731D03*
D156*
X732244Y541731D03*
D121*
X747090Y541731D03*
D157*
X761848Y541731D03*
D25*
X725665Y541909D03*
D24*
X742912Y541909D03*
D25*
X755180Y541909D03*
D154*
X732333Y541909D03*
D122*
X747090Y541909D03*
D154*
X761848Y541909D03*
D20*
X742912Y542087D03*
D21*
X755180Y542087D03*
X768337Y542087D03*
D157*
X732333Y542087D03*
D121*
X747090Y542087D03*
D153*
X761759Y542087D03*
D21*
X725843Y542265D03*
D20*
X742912Y542265D03*
D21*
X755180Y542265D03*
D153*
X732422Y542265D03*
D121*
X747090Y542265D03*
D153*
X761759Y542265D03*
D24*
X742912Y542442D03*
D25*
X755180Y542442D03*
D155*
X732422Y542442D03*
D122*
X747090Y542442D03*
D152*
X761670Y542442D03*
D20*
X742912Y542620D03*
D21*
X755180Y542620D03*
X767982Y542620D03*
D150*
X732511Y542620D03*
D121*
X747090Y542620D03*
D151*
X761581Y542620D03*
D25*
X726199Y542798D03*
D24*
X742912Y542798D03*
D25*
X755180Y542798D03*
D148*
X732599Y542798D03*
D122*
X747090Y542798D03*
D148*
X761581Y542798D03*
D20*
X742912Y542976D03*
D21*
X755180Y542976D03*
D20*
X767804Y542976D03*
D151*
X732599Y542976D03*
D121*
X747090Y542976D03*
D147*
X761492Y542976D03*
D20*
X742912Y543154D03*
D21*
X755180Y543154D03*
D147*
X732688Y543154D03*
D121*
X747090Y543154D03*
D147*
X761492Y543154D03*
D25*
X726554Y543331D03*
D24*
X742912Y543331D03*
D25*
X755180Y543331D03*
X767626Y543331D03*
D146*
X732777Y543331D03*
D122*
X747090Y543331D03*
D146*
X761403Y543331D03*
D20*
X742912Y543509D03*
D21*
X755180Y543509D03*
X767448Y543509D03*
D145*
X732777Y543509D03*
D121*
X747090Y543509D03*
D143*
X761314Y543509D03*
D25*
X726732Y543687D03*
D24*
X742912Y543687D03*
D25*
X755180Y543687D03*
D144*
X732866Y543687D03*
D122*
X747090Y543687D03*
D144*
X761314Y543687D03*
D20*
X742912Y543865D03*
D21*
X755180Y543865D03*
D20*
X767270Y543865D03*
D143*
X732866Y543865D03*
D121*
X747090Y543865D03*
D142*
X761225Y543865D03*
D20*
X726910Y544043D03*
D21*
X739000Y544043D03*
D20*
X742912Y544043D03*
D21*
X755180Y544043D03*
D142*
X732955Y544043D03*
D121*
X747090Y544043D03*
D142*
X761225Y544043D03*
D25*
X727088Y544220D03*
X739000Y544220D03*
D24*
X742912Y544220D03*
D25*
X755180Y544220D03*
X767093Y544220D03*
D141*
X733044Y544220D03*
D122*
X747090Y544220D03*
D141*
X761136Y544220D03*
D21*
X739000Y544398D03*
D20*
X742912Y544398D03*
D21*
X755180Y544398D03*
D140*
X733044Y544398D03*
D121*
X747090Y544398D03*
D140*
X761136Y544398D03*
D24*
X727265Y544576D03*
D25*
X739000Y544576D03*
D24*
X742912Y544576D03*
D25*
X755180Y544576D03*
D24*
X766915Y544576D03*
D139*
X733133Y544576D03*
D122*
X747090Y544576D03*
D139*
X761048Y544576D03*
D21*
X739000Y544754D03*
D20*
X742912Y544754D03*
D21*
X755180Y544754D03*
X766737Y544754D03*
D138*
X733133Y544754D03*
D121*
X747090Y544754D03*
D137*
X760959Y544754D03*
D21*
X727443Y544932D03*
X739000Y544932D03*
D20*
X742912Y544932D03*
D21*
X755180Y544932D03*
D137*
X733222Y544932D03*
D121*
X747090Y544932D03*
D137*
X760959Y544932D03*
D25*
X739000Y545109D03*
D24*
X742912Y545109D03*
D25*
X755180Y545109D03*
X766559Y545109D03*
D135*
X733222Y545109D03*
D122*
X747090Y545109D03*
D136*
X760870Y545109D03*
D21*
X727621Y545287D03*
X739000Y545287D03*
D20*
X742912Y545287D03*
D21*
X755180Y545287D03*
D134*
X733311Y545287D03*
D121*
X747090Y545287D03*
D134*
X760870Y545287D03*
D24*
X727799Y545465D03*
D25*
X739000Y545465D03*
D24*
X742912Y545465D03*
D25*
X755180Y545465D03*
D24*
X766381Y545465D03*
D133*
X733400Y545465D03*
D122*
X747090Y545465D03*
D133*
X760781Y545465D03*
D21*
X739000Y545643D03*
D20*
X742912Y545643D03*
D21*
X755180Y545643D03*
D132*
X733400Y545643D03*
D121*
X747090Y545643D03*
D132*
X760781Y545643D03*
D21*
X727977Y545821D03*
X739000Y545821D03*
D20*
X742912Y545821D03*
D21*
X755180Y545821D03*
D131*
X733488Y545821D03*
D121*
X747090Y545821D03*
D131*
X760692Y545821D03*
D25*
X739000Y545998D03*
D24*
X742912Y545998D03*
D25*
X755180Y545998D03*
D24*
X766026Y545998D03*
D130*
X733488Y545998D03*
D122*
X747090Y545998D03*
D128*
X760603Y545998D03*
D20*
X728154Y546176D03*
D21*
X739000Y546176D03*
D20*
X742912Y546176D03*
D21*
X755180Y546176D03*
D129*
X733577Y546176D03*
D121*
X747090Y546176D03*
D129*
X760603Y546176D03*
D25*
X739000Y546354D03*
D24*
X742912Y546354D03*
D25*
X755180Y546354D03*
X765848Y546354D03*
D128*
X733577Y546354D03*
D122*
X747090Y546354D03*
D191*
X760514Y546354D03*
D21*
X728332Y546532D03*
X739000Y546532D03*
D20*
X742912Y546532D03*
D21*
X755180Y546532D03*
D127*
X733666Y546532D03*
D121*
X747090Y546532D03*
D127*
X760514Y546532D03*
D21*
X728510Y546710D03*
X739000Y546710D03*
D20*
X742912Y546710D03*
D21*
X755180Y546710D03*
X765670Y546710D03*
D125*
X733755Y546710D03*
D121*
X747090Y546710D03*
D125*
X760425Y546710D03*
D25*
X739000Y546887D03*
D24*
X742912Y546887D03*
D25*
X755180Y546887D03*
D24*
X765492Y546887D03*
D126*
X733755Y546887D03*
D122*
X747090Y546887D03*
D124*
X760336Y546887D03*
D20*
X728688Y547065D03*
D21*
X739000Y547065D03*
D20*
X742912Y547065D03*
D21*
X755180Y547065D03*
D109*
X733844Y547065D03*
D121*
X747090Y547065D03*
D109*
X760336Y547065D03*
D25*
X739000Y547243D03*
D24*
X742912Y547243D03*
D25*
X755180Y547243D03*
X765315Y547243D03*
D124*
X733844Y547243D03*
D122*
X747090Y547243D03*
D192*
X760247Y547243D03*
D21*
X728866Y547421D03*
X739000Y547421D03*
D20*
X742912Y547421D03*
D21*
X755180Y547421D03*
D123*
X733933Y547421D03*
D121*
X747090Y547421D03*
D123*
X760247Y547421D03*
D21*
X739000Y547599D03*
D20*
X742912Y547599D03*
D21*
X755180Y547599D03*
D20*
X765137Y547599D03*
D123*
X733933Y547599D03*
D121*
X747090Y547599D03*
D118*
X760159Y547599D03*
D25*
X739000Y547776D03*
D24*
X742912Y547776D03*
D25*
X755180Y547776D03*
D114*
X734022Y547776D03*
D122*
X747090Y547776D03*
D114*
X760159Y547776D03*
D21*
X729221Y547954D03*
X739000Y547954D03*
D20*
X742912Y547954D03*
D21*
X755180Y547954D03*
X764959Y547954D03*
D116*
X734111Y547954D03*
D121*
X747090Y547954D03*
D116*
X760070Y547954D03*
D25*
X739000Y548132D03*
X755180Y548132D03*
X764781Y548132D03*
D119*
X734111Y548132D03*
D120*
X747001Y548132D03*
D193*
X759981Y548132D03*
D21*
X729399Y548310D03*
X755180Y548310D03*
D116*
X734289Y548310D03*
D96*
X747001Y548310D03*
D108*
X759981Y548310D03*
D21*
X739178Y548488D03*
X742734Y548488D03*
X755180Y548488D03*
D20*
X764603Y548488D03*
D116*
X734289Y548488D03*
D96*
X747001Y548488D03*
D115*
X759892Y548488D03*
D24*
X729577Y548665D03*
D25*
X755180Y548665D03*
D119*
X734466Y548665D03*
D100*
X746912Y548665D03*
D117*
X759892Y548665D03*
D21*
X729755Y548843D03*
D20*
X739356Y548843D03*
D21*
X755180Y548843D03*
X764426Y548843D03*
D108*
X734555Y548843D03*
D102*
X746823Y548843D03*
D194*
X759803Y548843D03*
D25*
X739534Y549021D03*
D24*
X742378Y549021D03*
D25*
X755180Y549021D03*
D119*
X734644Y549021D03*
D104*
X746823Y549021D03*
D112*
X759803Y549021D03*
D20*
X729932Y549199D03*
X739711Y549199D03*
D21*
X742201Y549199D03*
X755180Y549199D03*
D20*
X764248Y549199D03*
D116*
X734822Y549199D03*
D107*
X746735Y549199D03*
X759714Y549199D03*
D21*
X740067Y549377D03*
X741845Y549377D03*
X755180Y549377D03*
X764070Y549377D03*
D111*
X735000Y549377D03*
D115*
X746557Y549377D03*
D102*
X759625Y549377D03*
D25*
X730110Y549554D03*
D195*
X740600Y549554D03*
X741312Y549554D03*
D25*
X755180Y549554D03*
D124*
X735266Y549554D03*
D119*
X746379Y549554D03*
D104*
X759625Y549554D03*
D21*
X755180Y549732D03*
X763892Y549732D03*
D196*
X740689Y549732D03*
D98*
X759536Y549732D03*
D25*
X730288Y549910D03*
X755180Y549910D03*
D101*
X740778Y549910D03*
D100*
X759536Y549910D03*
D20*
X730466Y550088D03*
D21*
X755180Y550088D03*
D20*
X763714Y550088D03*
D99*
X740867Y550088D03*
D96*
X759447Y550088D03*
D21*
X755180Y550266D03*
D99*
X740867Y550266D03*
D96*
X759447Y550266D03*
D25*
X730644Y550443D03*
X755180Y550443D03*
D93*
X740956Y550443D03*
D95*
X759358Y550443D03*
D21*
X755180Y550621D03*
D20*
X763359Y550621D03*
D97*
X740956Y550621D03*
D91*
X759270Y550621D03*
D24*
X730821Y550799D03*
D25*
X755180Y550799D03*
D197*
X741045Y550799D03*
D92*
X759270Y550799D03*
D21*
X755180Y550977D03*
X763181Y550977D03*
D90*
X741045Y550977D03*
D89*
X759181Y550977D03*
D21*
X730999Y551155D03*
X755180Y551155D03*
D86*
X741134Y551155D03*
D89*
X759181Y551155D03*
D25*
X731177Y551332D03*
X755180Y551332D03*
X763003Y551332D03*
D84*
X741223Y551332D03*
D87*
X759092Y551332D03*
D21*
X755180Y551510D03*
D20*
X762825Y551510D03*
D198*
X741223Y551510D03*
D82*
X759003Y551510D03*
D24*
X731355Y551688D03*
D25*
X755180Y551688D03*
D199*
X741312Y551688D03*
D83*
X759003Y551688D03*
D21*
X755180Y551866D03*
X762648Y551866D03*
D200*
X741312Y551866D03*
D80*
X758914Y551866D03*
D21*
X731533Y552044D03*
X755180Y552044D03*
D77*
X741401Y552044D03*
D80*
X758914Y552044D03*
D24*
X731710Y552221D03*
D25*
X755180Y552221D03*
D24*
X762470Y552221D03*
D75*
X741489Y552221D03*
D201*
X758825Y552221D03*
D21*
X755180Y552399D03*
D73*
X741489Y552399D03*
D76*
X758825Y552399D03*
D25*
X731888Y552577D03*
X755180Y552577D03*
X762292Y552577D03*
D202*
X741578Y552577D03*
D74*
X758736Y552577D03*
D21*
X755180Y552755D03*
X762114Y552755D03*
D71*
X741578Y552755D03*
D70*
X758647Y552755D03*
D21*
X732066Y552933D03*
X755180Y552933D03*
D67*
X741667Y552933D03*
D70*
X758647Y552933D03*
D25*
X755180Y553110D03*
D24*
X761936Y553110D03*
D69*
X741667Y553110D03*
D64*
X758558Y553110D03*
D20*
X732244Y553288D03*
D21*
X755180Y553288D03*
D203*
X741756Y553288D03*
D66*
X758558Y553288D03*
D25*
X732422Y553466D03*
X755180Y553466D03*
X761759Y553466D03*
D204*
X741845Y553466D03*
D205*
X758469Y553466D03*
D21*
X755180Y553644D03*
D61*
X741845Y553644D03*
D62*
X758469Y553644D03*
D20*
X732599Y553822D03*
D21*
X755180Y553822D03*
D20*
X761581Y553822D03*
D57*
X741934Y553822D03*
D60*
X758381Y553822D03*
D25*
X755180Y553999D03*
X761403Y553999D03*
D59*
X741934Y553999D03*
D54*
X758292Y553999D03*
D21*
X732777Y554177D03*
X755180Y554177D03*
D53*
X742023Y554177D03*
D56*
X758292Y554177D03*
D25*
X755180Y554355D03*
X761225Y554355D03*
D55*
X742023Y554355D03*
D206*
X758203Y554355D03*
D21*
X732955Y554533D03*
X755180Y554533D03*
D52*
X742112Y554533D03*
D51*
X758203Y554533D03*
D20*
X733133Y554711D03*
D21*
X755180Y554711D03*
D20*
X761047Y554711D03*
D207*
X742201Y554711D03*
D208*
X758114Y554711D03*
D25*
X755180Y554888D03*
X760870Y554888D03*
D209*
X742201Y554888D03*
D45*
X758025Y554888D03*
D21*
X733311Y555066D03*
X755180Y555066D03*
D44*
X742290Y555066D03*
D47*
X758025Y555066D03*
D25*
X755180Y555244D03*
D24*
X760692Y555244D03*
D46*
X742290Y555244D03*
D210*
X757936Y555244D03*
D211*
X733755Y555422D03*
D20*
X733488Y555422D03*
D21*
X755180Y555422D03*
D35*
X742556Y555422D03*
D42*
X757936Y555422D03*
D212*
X734111Y555600D03*
D21*
X755180Y555600D03*
X760514Y555600D03*
X733666Y555600D03*
D213*
X742823Y555600D03*
D214*
X757847Y555600D03*
D215*
X734377Y555777D03*
D25*
X733666Y555777D03*
X755180Y555777D03*
D216*
X743090Y555777D03*
D40*
X757847Y555777D03*
D217*
X734644Y555955D03*
D21*
X733844Y555955D03*
X755180Y555955D03*
X760336Y555955D03*
D23*
X743267Y555955D03*
D38*
X757758Y555955D03*
D218*
X735000Y556133D03*
D25*
X755180Y556133D03*
D24*
X760158Y556133D03*
X734022Y556133D03*
D219*
X743534Y556133D03*
D220*
X757669Y556133D03*
D221*
X735178Y556311D03*
D106*
X755447Y556311D03*
D20*
X734022Y556311D03*
D21*
X755180Y556311D03*
D176*
X743712Y556311D03*
D222*
X757847Y556311D03*
D223*
X735533Y556489D03*
D224*
X755714Y556489D03*
D21*
X734200Y556489D03*
X755180Y556489D03*
D225*
X743979Y556489D03*
D226*
X758025Y556489D03*
D227*
X735889Y556666D03*
D215*
X755891Y556666D03*
D24*
X734377Y556666D03*
D25*
X755180Y556666D03*
D163*
X744245Y556666D03*
D228*
X758114Y556666D03*
D18*
X736155Y556844D03*
D229*
X756158Y556844D03*
D21*
X734555Y556844D03*
X755180Y556844D03*
X759447Y556844D03*
D230*
X744423Y556844D03*
D231*
X758203Y556844D03*
D228*
X736600Y557022D03*
D232*
X756336Y557022D03*
D24*
X734911Y557022D03*
D25*
X755180Y557022D03*
D24*
X759269Y557022D03*
D155*
X744690Y557022D03*
D218*
X758292Y557022D03*
D233*
X736956Y557200D03*
D234*
X756603Y557200D03*
D20*
X735266Y557200D03*
D21*
X755180Y557200D03*
D20*
X758914Y557200D03*
D235*
X744868Y557200D03*
D224*
X758381Y557200D03*
D236*
X737667Y557378D03*
D234*
X756603Y557378D03*
D237*
X735800Y557378D03*
D21*
X755180Y557378D03*
D106*
X758292Y557378D03*
D20*
X736155Y557378D03*
D143*
X745134Y557378D03*
D20*
X758025Y557378D03*
M02*
